<ttFont>
<head>
    <!-- Most of this table will be recalculated by the compiler -->
    <tableVersion value="1.0"/>
    <fontRevision value="1.002"/>
    <checkSumAdjustment value="0xb870ad6b"/>
    <magicNumber value="0x5f0f3cf5"/>
    <flags value="00000000 00001111"/>
    <unitsPerEm value="1000"/>
    <created value="Sat Jan  4 16:14:24 2020"/>
    <modified value="Tue Feb  2 03:35:29 2021"/>
    <xMin value="-171"/>
    <yMin value="-514"/>
    <xMax value="1465"/>
    <yMax value="1134"/>
    <macStyle value="00000000 00000000"/>
    <lowestRecPPEM value="6"/>
    <fontDirectionHint value="2"/>
    <indexToLocFormat value="1"/>
    <glyphDataFormat value="0"/>
  </head>
    <TTGlyph name=".notdef" xMin="40" yMin="0" xMax="544" yMax="700">
      <contour>
        <pt x="40" y="35" on="1"/>
        <pt x="40" y="665" on="1"/>
        <pt x="40" y="682" on="0"/>
        <pt x="58" y="700" on="0"/>
        <pt x="75" y="700" on="1"/>
        <pt x="509" y="700" on="1"/>
        <pt x="526" y="700" on="0"/>
        <pt x="544" y="682" on="0"/>
        <pt x="544" y="665" on="1"/>
        <pt x="544" y="35" on="1"/>
        <pt x="544" y="18" on="0"/>
        <pt x="526" y="0" on="0"/>
        <pt x="509" y="0" on="1"/>
        <pt x="75" y="0" on="1"/>
        <pt x="58" y="0" on="0"/>
        <pt x="40" y="18" on="0"/>
      </contour>
      <contour>
        <pt x="517" y="678" on="1"/>
        <pt x="84" y="678" on="1"/>
        <pt x="81" y="678" on="0"/>
        <pt x="79" y="674" on="0"/>
        <pt x="81" y="672" on="1"/>
        <pt x="516" y="47" on="1"/>
        <pt x="518" y="44" on="0"/>
        <pt x="522" y="45" on="0"/>
        <pt x="522" y="49" on="1"/>
        <pt x="522" y="673" on="1"/>
        <pt x="522" y="675" on="0"/>
        <pt x="519" y="678" on="0"/>
      </contour>
      <contour>
        <pt x="62" y="650" on="1"/>
        <pt x="62" y="27" on="1"/>
        <pt x="62" y="25" on="0"/>
        <pt x="65" y="22" on="0"/>
        <pt x="67" y="22" on="1"/>
        <pt x="499" y="22" on="1"/>
        <pt x="502" y="22" on="0"/>
        <pt x="504" y="26" on="0"/>
        <pt x="502" y="28" on="1"/>
        <pt x="68" y="652" on="1"/>
        <pt x="66" y="655" on="0"/>
        <pt x="62" y="654" on="0"/>
      </contour>
    </TTGlyph>
    <TTGlyph name="A" xMin="20" yMin="0" xMax="591" yMax="700">
      <contour>
        <pt x="304" y="682" on="1"/>
        <pt x="305" y="682" on="1"/>
        <pt x="302" y="672" on="0"/>
        <pt x="262" y="570" on="0"/>
        <pt x="237" y="503" on="1"/>
        <pt x="46" y="0" on="1"/>
        <pt x="20" y="0" on="1"/>
        <pt x="289" y="700" on="1"/>
        <pt x="322" y="700" on="1"/>
        <pt x="591" y="0" on="1"/>
        <pt x="565" y="0" on="1"/>
        <pt x="372" y="504" on="1"/>
        <pt x="348" y="568" on="0"/>
        <pt x="308" y="672" on="0"/>
      </contour>
      <contour>
        <pt x="299" y="230" on="1"/>
        <pt x="120" y="230" on="1"/>
        <pt x="128" y="253" on="1"/>
        <pt x="299" y="253" on="1"/>
      </contour>
      <contour>
        <pt x="493" y="230" on="1"/>
        <pt x="299" y="230" on="1"/>
        <pt x="299" y="253" on="1"/>
        <pt x="485" y="253" on="1"/>
      </contour>
    </TTGlyph>
    <TTGlyph name="AE" xMin="0" yMin="0" xMax="861" yMax="700">
      <contour>
        <pt x="164" y="216" on="1"/>
        <pt x="178" y="238" on="1"/>
        <pt x="502" y="238" on="1"/>
        <pt x="486" y="220" on="1"/>
        <pt x="486" y="691" on="1"/>
        <pt x="495" y="691" on="1"/>
        <pt x="28" y="0" on="1"/>
        <pt x="0" y="0" on="1"/>
        <pt x="476" y="700" on="1"/>
        <pt x="861" y="700" on="1"/>
        <pt x="861" y="678" on="1"/>
        <pt x="499" y="678" on="1"/>
        <pt x="508" y="687" on="1"/>
        <pt x="508" y="357" on="1"/>
        <pt x="498" y="372" on="1"/>
        <pt x="804" y="372" on="1"/>
        <pt x="804" y="350" on="1"/>
        <pt x="499" y="350" on="1"/>
        <pt x="508" y="367" on="1"/>
        <pt x="508" y="9" on="1"/>
        <pt x="497" y="22" on="1"/>
        <pt x="861" y="22" on="1"/>
        <pt x="861" y="0" on="1"/>
        <pt x="486" y="0" on="1"/>
        <pt x="486" y="228" on="1"/>
        <pt x="502" y="216" on="1"/>
      </contour>
    </TTGlyph>
    <TTGlyph name="AEacute" xMin="0" yMin="0" xMax="861" yMax="890">
      <contour>
        <pt x="164" y="216" on="1"/>
        <pt x="178" y="238" on="1"/>
        <pt x="502" y="238" on="1"/>
        <pt x="486" y="220" on="1"/>
        <pt x="486" y="691" on="1"/>
        <pt x="495" y="691" on="1"/>
        <pt x="28" y="0" on="1"/>
        <pt x="0" y="0" on="1"/>
        <pt x="476" y="700" on="1"/>
        <pt x="861" y="700" on="1"/>
        <pt x="861" y="678" on="1"/>
        <pt x="499" y="678" on="1"/>
        <pt x="508" y="687" on="1"/>
        <pt x="508" y="357" on="1"/>
        <pt x="498" y="372" on="1"/>
        <pt x="804" y="372" on="1"/>
        <pt x="804" y="350" on="1"/>
        <pt x="499" y="350" on="1"/>
        <pt x="508" y="367" on="1"/>
        <pt x="508" y="9" on="1"/>
        <pt x="497" y="22" on="1"/>
        <pt x="861" y="22" on="1"/>
        <pt x="861" y="0" on="1"/>
        <pt x="486" y="0" on="1"/>
        <pt x="486" y="228" on="1"/>
        <pt x="502" y="216" on="1"/>
      </contour>
      <contour>
        <pt x="759" y="869" on="1"/>
        <pt x="613" y="770" on="1"/>
        <pt x="603" y="785" on="1"/>
        <pt x="745" y="890" on="1"/>
      </contour>
    </TTGlyph>
    <TTGlyph name="Aacute" xMin="20" yMin="0" xMax="591" yMax="890">
      <contour>
        <pt x="304" y="682" on="1"/>
        <pt x="305" y="682" on="1"/>
        <pt x="302" y="672" on="0"/>
        <pt x="262" y="570" on="0"/>
        <pt x="237" y="503" on="1"/>
        <pt x="46" y="0" on="1"/>
        <pt x="20" y="0" on="1"/>
        <pt x="289" y="700" on="1"/>
        <pt x="322" y="700" on="1"/>
        <pt x="591" y="0" on="1"/>
        <pt x="565" y="0" on="1"/>
        <pt x="372" y="504" on="1"/>
        <pt x="348" y="568" on="0"/>
        <pt x="308" y="672" on="0"/>
      </contour>
      <contour>
        <pt x="299" y="230" on="1"/>
        <pt x="120" y="230" on="1"/>
        <pt x="128" y="253" on="1"/>
        <pt x="299" y="253" on="1"/>
      </contour>
      <contour>
        <pt x="493" y="230" on="1"/>
        <pt x="299" y="230" on="1"/>
        <pt x="299" y="253" on="1"/>
        <pt x="485" y="253" on="1"/>
      </contour>
      <contour>
        <pt x="413" y="869" on="1"/>
        <pt x="267" y="770" on="1"/>
        <pt x="257" y="785" on="1"/>
        <pt x="399" y="890" on="1"/>
      </contour>
    </TTGlyph>
    <TTGlyph name="Abreve" xMin="20" yMin="0" xMax="591" yMax="909">
      <contour>
        <pt x="304" y="682" on="1"/>
        <pt x="305" y="682" on="1"/>
        <pt x="302" y="672" on="0"/>
        <pt x="262" y="570" on="0"/>
        <pt x="237" y="503" on="1"/>
        <pt x="46" y="0" on="1"/>
        <pt x="20" y="0" on="1"/>
        <pt x="289" y="700" on="1"/>
        <pt x="322" y="700" on="1"/>
        <pt x="591" y="0" on="1"/>
        <pt x="565" y="0" on="1"/>
        <pt x="372" y="504" on="1"/>
        <pt x="348" y="568" on="0"/>
        <pt x="308" y="672" on="0"/>
      </contour>
      <contour>
        <pt x="299" y="230" on="1"/>
        <pt x="120" y="230" on="1"/>
        <pt x="128" y="253" on="1"/>
        <pt x="299" y="253" on="1"/>
      </contour>
      <contour>
        <pt x="493" y="230" on="1"/>
        <pt x="299" y="230" on="1"/>
        <pt x="299" y="253" on="1"/>
        <pt x="485" y="253" on="1"/>
      </contour>
      <contour>
        <pt x="306" y="787" on="1"/>
        <pt x="254" y="787" on="0"/>
        <pt x="186" y="851" on="0"/>
        <pt x="174" y="907" on="1"/>
        <pt x="196" y="909" on="1"/>
        <pt x="206" y="861" on="0"/>
        <pt x="266" y="808" on="0"/>
        <pt x="306" y="808" on="1"/>
        <pt x="344" y="808" on="0"/>
        <pt x="406" y="861" on="0"/>
        <pt x="416" y="909" on="1"/>
        <pt x="438" y="907" on="1"/>
        <pt x="426" y="851" on="0"/>
        <pt x="356" y="787" on="0"/>
      </contour>
    </TTGlyph>
    <TTGlyph name="Acircumflex" xMin="20" yMin="0" xMax="591" yMax="875">
      <contour>
        <pt x="304" y="682" on="1"/>
        <pt x="305" y="682" on="1"/>
        <pt x="302" y="672" on="0"/>
        <pt x="262" y="570" on="0"/>
        <pt x="237" y="503" on="1"/>
        <pt x="46" y="0" on="1"/>
        <pt x="20" y="0" on="1"/>
        <pt x="289" y="700" on="1"/>
        <pt x="322" y="700" on="1"/>
        <pt x="591" y="0" on="1"/>
        <pt x="565" y="0" on="1"/>
        <pt x="372" y="504" on="1"/>
        <pt x="348" y="568" on="0"/>
        <pt x="308" y="672" on="0"/>
      </contour>
      <contour>
        <pt x="299" y="230" on="1"/>
        <pt x="120" y="230" on="1"/>
        <pt x="128" y="253" on="1"/>
        <pt x="299" y="253" on="1"/>
      </contour>
      <contour>
        <pt x="493" y="230" on="1"/>
        <pt x="299" y="230" on="1"/>
        <pt x="299" y="253" on="1"/>
        <pt x="485" y="253" on="1"/>
      </contour>
      <contour>
        <pt x="414" y="770" on="1"/>
        <pt x="298" y="862" on="1"/>
        <pt x="314" y="862" on="1"/>
        <pt x="196" y="770" on="1"/>
        <pt x="184" y="783" on="1"/>
        <pt x="292" y="875" on="1"/>
        <pt x="320" y="875" on="1"/>
        <pt x="426" y="783" on="1"/>
      </contour>
    </TTGlyph>
    <TTGlyph name="Adieresis" xMin="20" yMin="0" xMax="591" yMax="824">
      <contour>
        <pt x="304" y="682" on="1"/>
        <pt x="305" y="682" on="1"/>
        <pt x="302" y="672" on="0"/>
        <pt x="262" y="570" on="0"/>
        <pt x="237" y="503" on="1"/>
        <pt x="46" y="0" on="1"/>
        <pt x="20" y="0" on="1"/>
        <pt x="289" y="700" on="1"/>
        <pt x="322" y="700" on="1"/>
        <pt x="591" y="0" on="1"/>
        <pt x="565" y="0" on="1"/>
        <pt x="372" y="504" on="1"/>
        <pt x="348" y="568" on="0"/>
        <pt x="308" y="672" on="0"/>
      </contour>
      <contour>
        <pt x="299" y="230" on="1"/>
        <pt x="120" y="230" on="1"/>
        <pt x="128" y="253" on="1"/>
        <pt x="299" y="253" on="1"/>
      </contour>
      <contour>
        <pt x="493" y="230" on="1"/>
        <pt x="299" y="230" on="1"/>
        <pt x="299" y="253" on="1"/>
        <pt x="485" y="253" on="1"/>
      </contour>
      <contour>
        <pt x="258" y="797" on="1"/>
        <pt x="258" y="785" on="0"/>
        <pt x="244" y="770" on="0"/>
        <pt x="230" y="770" on="1"/>
        <pt x="218" y="770" on="0"/>
        <pt x="204" y="785" on="0"/>
        <pt x="204" y="797" on="1"/>
        <pt x="204" y="808" on="0"/>
        <pt x="218" y="824" on="0"/>
        <pt x="230" y="824" on="1"/>
        <pt x="244" y="824" on="0"/>
        <pt x="258" y="809" on="0"/>
      </contour>
      <contour>
        <pt x="408" y="797" on="1"/>
        <pt x="408" y="785" on="0"/>
        <pt x="394" y="770" on="0"/>
        <pt x="380" y="770" on="1"/>
        <pt x="368" y="770" on="0"/>
        <pt x="354" y="785" on="0"/>
        <pt x="354" y="797" on="1"/>
        <pt x="354" y="808" on="0"/>
        <pt x="368" y="824" on="0"/>
        <pt x="380" y="824" on="1"/>
        <pt x="394" y="824" on="0"/>
        <pt x="408" y="809" on="0"/>
      </contour>
    </TTGlyph>
    <TTGlyph name="Agrave" xMin="20" yMin="0" xMax="591" yMax="890">
      <contour>
        <pt x="304" y="682" on="1"/>
        <pt x="305" y="682" on="1"/>
        <pt x="302" y="672" on="0"/>
        <pt x="262" y="570" on="0"/>
        <pt x="237" y="503" on="1"/>
        <pt x="46" y="0" on="1"/>
        <pt x="20" y="0" on="1"/>
        <pt x="289" y="700" on="1"/>
        <pt x="322" y="700" on="1"/>
        <pt x="591" y="0" on="1"/>
        <pt x="565" y="0" on="1"/>
        <pt x="372" y="504" on="1"/>
        <pt x="348" y="568" on="0"/>
        <pt x="308" y="672" on="0"/>
      </contour>
      <contour>
        <pt x="299" y="230" on="1"/>
        <pt x="120" y="230" on="1"/>
        <pt x="128" y="253" on="1"/>
        <pt x="299" y="253" on="1"/>
      </contour>
      <contour>
        <pt x="493" y="230" on="1"/>
        <pt x="299" y="230" on="1"/>
        <pt x="299" y="253" on="1"/>
        <pt x="485" y="253" on="1"/>
      </contour>
      <contour>
        <pt x="354" y="785" on="1"/>
        <pt x="344" y="770" on="1"/>
        <pt x="198" y="869" on="1"/>
        <pt x="212" y="890" on="1"/>
      </contour>
    </TTGlyph>
    <TTGlyph name="Amacron" xMin="20" yMin="0" xMax="591" yMax="792">
      <contour>
        <pt x="304" y="682" on="1"/>
        <pt x="305" y="682" on="1"/>
        <pt x="302" y="672" on="0"/>
        <pt x="262" y="570" on="0"/>
        <pt x="237" y="503" on="1"/>
        <pt x="46" y="0" on="1"/>
        <pt x="20" y="0" on="1"/>
        <pt x="289" y="700" on="1"/>
        <pt x="322" y="700" on="1"/>
        <pt x="591" y="0" on="1"/>
        <pt x="565" y="0" on="1"/>
        <pt x="372" y="504" on="1"/>
        <pt x="348" y="568" on="0"/>
        <pt x="308" y="672" on="0"/>
      </contour>
      <contour>
        <pt x="299" y="230" on="1"/>
        <pt x="120" y="230" on="1"/>
        <pt x="128" y="253" on="1"/>
        <pt x="299" y="253" on="1"/>
      </contour>
      <contour>
        <pt x="493" y="230" on="1"/>
        <pt x="299" y="230" on="1"/>
        <pt x="299" y="253" on="1"/>
        <pt x="485" y="253" on="1"/>
      </contour>
      <contour>
        <pt x="440" y="770" on="1"/>
        <pt x="170" y="770" on="1"/>
        <pt x="170" y="792" on="1"/>
        <pt x="440" y="792" on="1"/>
      </contour>
    </TTGlyph>
    <TTGlyph name="Aogonek" xMin="20" yMin="-230" xMax="618" yMax="700">
      <contour>
        <pt x="579" y="9" on="1"/>
        <pt x="565" y="0" on="1"/>
        <pt x="372" y="504" on="1"/>
        <pt x="362" y="529" on="0"/>
        <pt x="344" y="578" on="0"/>
        <pt x="336" y="599" on="1"/>
        <pt x="324" y="631" on="0"/>
        <pt x="306" y="676" on="0"/>
        <pt x="304" y="682" on="1"/>
        <pt x="305" y="682" on="1"/>
        <pt x="303" y="676" on="0"/>
        <pt x="286" y="632" on="0"/>
        <pt x="274" y="599" on="1"/>
        <pt x="266" y="579" on="0"/>
        <pt x="247" y="529" on="0"/>
        <pt x="237" y="503" on="1"/>
        <pt x="46" y="0" on="1"/>
        <pt x="20" y="0" on="1"/>
        <pt x="289" y="700" on="1"/>
        <pt x="322" y="700" on="1"/>
        <pt x="589" y="5" on="1"/>
        <pt x="588" y="0" on="1"/>
        <pt x="530" y="-10" on="0"/>
        <pt x="450" y="-77" on="0"/>
        <pt x="450" y="-130" on="1"/>
        <pt x="450" y="-163" on="0"/>
        <pt x="495" y="-208" on="0"/>
        <pt x="528" y="-208" on="1"/>
        <pt x="554" y="-208" on="0"/>
        <pt x="592" y="-183" on="0"/>
        <pt x="603" y="-163" on="1"/>
        <pt x="618" y="-176" on="1"/>
        <pt x="606" y="-200" on="0"/>
        <pt x="558" y="-230" on="0"/>
        <pt x="528" y="-230" on="1"/>
        <pt x="486" y="-230" on="0"/>
        <pt x="428" y="-172" on="0"/>
        <pt x="428" y="-130" on="1"/>
        <pt x="428" y="-70" on="0"/>
        <pt x="524" y="8" on="0"/>
        <pt x="579" y="18" on="1"/>
      </contour>
      <contour>
        <pt x="299" y="230" on="1"/>
        <pt x="120" y="230" on="1"/>
        <pt x="128" y="253" on="1"/>
        <pt x="299" y="253" on="1"/>
      </contour>
      <contour>
        <pt x="493" y="230" on="1"/>
        <pt x="299" y="230" on="1"/>
        <pt x="299" y="253" on="1"/>
        <pt x="485" y="253" on="1"/>
      </contour>
    </TTGlyph>
    <TTGlyph name="Aring" xMin="20" yMin="0" xMax="591" yMax="858">
      <contour>
        <pt x="304" y="682" on="1"/>
        <pt x="305" y="682" on="1"/>
        <pt x="302" y="672" on="0"/>
        <pt x="262" y="570" on="0"/>
        <pt x="237" y="503" on="1"/>
        <pt x="46" y="0" on="1"/>
        <pt x="20" y="0" on="1"/>
        <pt x="289" y="700" on="1"/>
        <pt x="322" y="700" on="1"/>
        <pt x="591" y="0" on="1"/>
        <pt x="565" y="0" on="1"/>
        <pt x="372" y="504" on="1"/>
        <pt x="348" y="568" on="0"/>
        <pt x="308" y="672" on="0"/>
      </contour>
      <contour>
        <pt x="299" y="230" on="1"/>
        <pt x="120" y="230" on="1"/>
        <pt x="128" y="253" on="1"/>
        <pt x="299" y="253" on="1"/>
      </contour>
      <contour>
        <pt x="493" y="230" on="1"/>
        <pt x="299" y="230" on="1"/>
        <pt x="299" y="253" on="1"/>
        <pt x="485" y="253" on="1"/>
      </contour>
      <contour>
        <pt x="397" y="768" on="1"/>
        <pt x="397" y="733" on="0"/>
        <pt x="342" y="680" on="0"/>
        <pt x="305" y="680" on="1"/>
        <pt x="268" y="680" on="0"/>
        <pt x="213" y="732" on="0"/>
        <pt x="213" y="768" on="1"/>
        <pt x="213" y="805" on="0"/>
        <pt x="267" y="858" on="0"/>
        <pt x="305" y="858" on="1"/>
        <pt x="343" y="858" on="0"/>
        <pt x="397" y="805" on="0"/>
      </contour>
      <contour>
        <pt x="234" y="768" on="1"/>
        <pt x="234" y="741" on="0"/>
        <pt x="276" y="700" on="0"/>
        <pt x="305" y="700" on="1"/>
        <pt x="335" y="700" on="0"/>
        <pt x="376" y="741" on="0"/>
        <pt x="376" y="768" on="1"/>
        <pt x="376" y="800" on="0"/>
        <pt x="335" y="838" on="0"/>
        <pt x="305" y="838" on="1"/>
        <pt x="274" y="838" on="0"/>
        <pt x="234" y="799" on="0"/>
      </contour>
    </TTGlyph>
    <TTGlyph name="Aringacute" xMin="20" yMin="0" xMax="591" yMax="1028">
      <contour>
        <pt x="304" y="682" on="1"/>
        <pt x="305" y="682" on="1"/>
        <pt x="302" y="672" on="0"/>
        <pt x="262" y="570" on="0"/>
        <pt x="237" y="503" on="1"/>
        <pt x="46" y="0" on="1"/>
        <pt x="20" y="0" on="1"/>
        <pt x="289" y="700" on="1"/>
        <pt x="322" y="700" on="1"/>
        <pt x="591" y="0" on="1"/>
        <pt x="565" y="0" on="1"/>
        <pt x="372" y="504" on="1"/>
        <pt x="348" y="568" on="0"/>
        <pt x="308" y="672" on="0"/>
      </contour>
      <contour>
        <pt x="299" y="230" on="1"/>
        <pt x="120" y="230" on="1"/>
        <pt x="128" y="253" on="1"/>
        <pt x="299" y="253" on="1"/>
      </contour>
      <contour>
        <pt x="493" y="230" on="1"/>
        <pt x="299" y="230" on="1"/>
        <pt x="299" y="253" on="1"/>
        <pt x="485" y="253" on="1"/>
      </contour>
      <contour>
        <pt x="397" y="768" on="1"/>
        <pt x="397" y="733" on="0"/>
        <pt x="342" y="680" on="0"/>
        <pt x="305" y="680" on="1"/>
        <pt x="268" y="680" on="0"/>
        <pt x="213" y="732" on="0"/>
        <pt x="213" y="768" on="1"/>
        <pt x="213" y="805" on="0"/>
        <pt x="267" y="858" on="0"/>
        <pt x="305" y="858" on="1"/>
        <pt x="343" y="858" on="0"/>
        <pt x="397" y="805" on="0"/>
      </contour>
      <contour>
        <pt x="234" y="768" on="1"/>
        <pt x="234" y="741" on="0"/>
        <pt x="276" y="700" on="0"/>
        <pt x="305" y="700" on="1"/>
        <pt x="335" y="700" on="0"/>
        <pt x="376" y="741" on="0"/>
        <pt x="376" y="768" on="1"/>
        <pt x="376" y="800" on="0"/>
        <pt x="335" y="838" on="0"/>
        <pt x="305" y="838" on="1"/>
        <pt x="274" y="838" on="0"/>
        <pt x="234" y="799" on="0"/>
      </contour>
      <contour>
        <pt x="389" y="1007" on="1"/>
        <pt x="243" y="908" on="1"/>
        <pt x="233" y="923" on="1"/>
        <pt x="375" y="1028" on="1"/>
      </contour>
    </TTGlyph>
    <TTGlyph name="Atilde" xMin="20" yMin="0" xMax="591" yMax="838">
      <contour>
        <pt x="304" y="682" on="1"/>
        <pt x="305" y="682" on="1"/>
        <pt x="302" y="672" on="0"/>
        <pt x="262" y="570" on="0"/>
        <pt x="237" y="503" on="1"/>
        <pt x="46" y="0" on="1"/>
        <pt x="20" y="0" on="1"/>
        <pt x="289" y="700" on="1"/>
        <pt x="322" y="700" on="1"/>
        <pt x="591" y="0" on="1"/>
        <pt x="565" y="0" on="1"/>
        <pt x="372" y="504" on="1"/>
        <pt x="348" y="568" on="0"/>
        <pt x="308" y="672" on="0"/>
      </contour>
      <contour>
        <pt x="299" y="230" on="1"/>
        <pt x="120" y="230" on="1"/>
        <pt x="128" y="253" on="1"/>
        <pt x="299" y="253" on="1"/>
      </contour>
      <contour>
        <pt x="493" y="230" on="1"/>
        <pt x="299" y="230" on="1"/>
        <pt x="299" y="253" on="1"/>
        <pt x="485" y="253" on="1"/>
      </contour>
      <contour>
        <pt x="195" y="771" on="1"/>
        <pt x="173" y="771" on="1"/>
        <pt x="173" y="802" on="0"/>
        <pt x="208" y="838" on="0"/>
        <pt x="230" y="838" on="1"/>
        <pt x="254" y="838" on="0"/>
        <pt x="296" y="818" on="0"/>
        <pt x="314" y="809" on="1"/>
        <pt x="321" y="806" on="0"/>
        <pt x="351" y="792" on="0"/>
        <pt x="364" y="792" on="1"/>
        <pt x="383" y="792" on="0"/>
        <pt x="415" y="813" on="0"/>
        <pt x="416" y="837" on="1"/>
        <pt x="438" y="837" on="1"/>
        <pt x="438" y="805" on="0"/>
        <pt x="395" y="770" on="0"/>
        <pt x="366" y="770" on="1"/>
        <pt x="342" y="770" on="0"/>
        <pt x="301" y="790" on="0"/>
        <pt x="284" y="798" on="1"/>
        <pt x="278" y="801" on="0"/>
        <pt x="247" y="816" on="0"/>
        <pt x="232" y="816" on="1"/>
        <pt x="218" y="816" on="0"/>
        <pt x="195" y="793" on="0"/>
      </contour>
    </TTGlyph>
    <TTGlyph name="B" xMin="110" yMin="0" xMax="597" yMax="700">
      <contour>
        <pt x="110" y="700" on="1"/>
        <pt x="378" y="700" on="1"/>
        <pt x="461" y="700" on="0"/>
        <pt x="560" y="601" on="0"/>
        <pt x="560" y="531" on="1"/>
        <pt x="560" y="459" on="0"/>
        <pt x="451" y="359" on="0"/>
        <pt x="365" y="359" on="1"/>
        <pt x="368" y="375" on="1"/>
        <pt x="481" y="375" on="0"/>
        <pt x="597" y="270" on="0"/>
        <pt x="597" y="192" on="1"/>
        <pt x="597" y="111" on="0"/>
        <pt x="492" y="0" on="0"/>
        <pt x="371" y="0" on="1"/>
        <pt x="110" y="0" on="1"/>
      </contour>
      <contour>
        <pt x="537" y="532" on="1"/>
        <pt x="537" y="593" on="0"/>
        <pt x="450" y="678" on="0"/>
        <pt x="375" y="678" on="1"/>
        <pt x="124" y="678" on="1"/>
        <pt x="131" y="691" on="1"/>
        <pt x="131" y="364" on="1"/>
        <pt x="125" y="378" on="1"/>
        <pt x="372" y="378" on="1"/>
        <pt x="440" y="378" on="0"/>
        <pt x="537" y="468" on="0"/>
      </contour>
      <contour>
        <pt x="574" y="188" on="1"/>
        <pt x="574" y="262" on="0"/>
        <pt x="471" y="356" on="0"/>
        <pt x="377" y="356" on="1"/>
        <pt x="125" y="356" on="1"/>
        <pt x="131" y="370" on="1"/>
        <pt x="131" y="13" on="1"/>
        <pt x="122" y="22" on="1"/>
        <pt x="372" y="22" on="1"/>
        <pt x="481" y="22" on="0"/>
        <pt x="574" y="118" on="0"/>
      </contour>
    </TTGlyph>
    <TTGlyph name="C" xMin="55" yMin="-10" xMax="655" yMax="710">
      <contour>
        <pt x="624" y="99" on="1"/>
        <pt x="639" y="81" on="1"/>
        <pt x="594" y="38" on="0"/>
        <pt x="471" y="-10" on="0"/>
        <pt x="399" y="-10" on="1"/>
        <pt x="248" y="-10" on="0"/>
        <pt x="55" y="189" on="0"/>
        <pt x="55" y="346" on="1"/>
        <pt x="55" y="505" on="0"/>
        <pt x="248" y="710" on="0"/>
        <pt x="399" y="710" on="1"/>
        <pt x="478" y="710" on="0"/>
        <pt x="608" y="647" on="0"/>
        <pt x="655" y="594" on="1"/>
        <pt x="637" y="578" on="1"/>
        <pt x="593" y="628" on="0"/>
        <pt x="472" y="688" on="0"/>
        <pt x="399" y="688" on="1"/>
        <pt x="260" y="688" on="0"/>
        <pt x="78" y="494" on="0"/>
        <pt x="78" y="346" on="1"/>
        <pt x="78" y="200" on="0"/>
        <pt x="260" y="12" on="0"/>
        <pt x="399" y="12" on="1"/>
        <pt x="467" y="12" on="0"/>
        <pt x="582" y="58" on="0"/>
      </contour>
    </TTGlyph>
    <TTGlyph name="Cacute" xMin="55" yMin="-10" xMax="655" yMax="890">
      <contour>
        <pt x="624" y="99" on="1"/>
        <pt x="639" y="81" on="1"/>
        <pt x="594" y="38" on="0"/>
        <pt x="471" y="-10" on="0"/>
        <pt x="399" y="-10" on="1"/>
        <pt x="248" y="-10" on="0"/>
        <pt x="55" y="189" on="0"/>
        <pt x="55" y="346" on="1"/>
        <pt x="55" y="505" on="0"/>
        <pt x="248" y="710" on="0"/>
        <pt x="399" y="710" on="1"/>
        <pt x="478" y="710" on="0"/>
        <pt x="608" y="647" on="0"/>
        <pt x="655" y="594" on="1"/>
        <pt x="637" y="578" on="1"/>
        <pt x="593" y="628" on="0"/>
        <pt x="472" y="688" on="0"/>
        <pt x="399" y="688" on="1"/>
        <pt x="260" y="688" on="0"/>
        <pt x="78" y="494" on="0"/>
        <pt x="78" y="346" on="1"/>
        <pt x="78" y="200" on="0"/>
        <pt x="260" y="12" on="0"/>
        <pt x="399" y="12" on="1"/>
        <pt x="467" y="12" on="0"/>
        <pt x="582" y="58" on="0"/>
      </contour>
      <contour>
        <pt x="471" y="869" on="1"/>
        <pt x="325" y="770" on="1"/>
        <pt x="315" y="785" on="1"/>
        <pt x="457" y="890" on="1"/>
      </contour>
    </TTGlyph>
    <TTGlyph name="Ccaron" xMin="55" yMin="-10" xMax="655" yMax="850">
      <contour>
        <pt x="624" y="99" on="1"/>
        <pt x="639" y="81" on="1"/>
        <pt x="594" y="38" on="0"/>
        <pt x="471" y="-10" on="0"/>
        <pt x="399" y="-10" on="1"/>
        <pt x="248" y="-10" on="0"/>
        <pt x="55" y="189" on="0"/>
        <pt x="55" y="346" on="1"/>
        <pt x="55" y="505" on="0"/>
        <pt x="248" y="710" on="0"/>
        <pt x="399" y="710" on="1"/>
        <pt x="478" y="710" on="0"/>
        <pt x="608" y="647" on="0"/>
        <pt x="655" y="594" on="1"/>
        <pt x="637" y="578" on="1"/>
        <pt x="593" y="628" on="0"/>
        <pt x="472" y="688" on="0"/>
        <pt x="399" y="688" on="1"/>
        <pt x="260" y="688" on="0"/>
        <pt x="78" y="494" on="0"/>
        <pt x="78" y="346" on="1"/>
        <pt x="78" y="200" on="0"/>
        <pt x="260" y="12" on="0"/>
        <pt x="399" y="12" on="1"/>
        <pt x="467" y="12" on="0"/>
        <pt x="582" y="58" on="0"/>
      </contour>
      <contour>
        <pt x="489" y="850" on="1"/>
        <pt x="373" y="758" on="1"/>
        <pt x="388" y="758" on="1"/>
        <pt x="271" y="850" on="1"/>
        <pt x="259" y="837" on="1"/>
        <pt x="366" y="745" on="1"/>
        <pt x="394" y="745" on="1"/>
        <pt x="501" y="837" on="1"/>
      </contour>
    </TTGlyph>
    <TTGlyph name="Ccedilla" xMin="55" yMin="-222" xMax="655" yMax="710">
      <contour>
        <pt x="624" y="99" on="1"/>
        <pt x="639" y="81" on="1"/>
        <pt x="594" y="38" on="0"/>
        <pt x="471" y="-10" on="0"/>
        <pt x="399" y="-10" on="1"/>
        <pt x="248" y="-10" on="0"/>
        <pt x="55" y="189" on="0"/>
        <pt x="55" y="346" on="1"/>
        <pt x="55" y="505" on="0"/>
        <pt x="248" y="710" on="0"/>
        <pt x="399" y="710" on="1"/>
        <pt x="478" y="710" on="0"/>
        <pt x="608" y="647" on="0"/>
        <pt x="655" y="594" on="1"/>
        <pt x="637" y="578" on="1"/>
        <pt x="593" y="628" on="0"/>
        <pt x="472" y="688" on="0"/>
        <pt x="399" y="688" on="1"/>
        <pt x="260" y="688" on="0"/>
        <pt x="78" y="494" on="0"/>
        <pt x="78" y="346" on="1"/>
        <pt x="78" y="200" on="0"/>
        <pt x="260" y="12" on="0"/>
        <pt x="399" y="12" on="1"/>
        <pt x="467" y="12" on="0"/>
        <pt x="582" y="58" on="0"/>
      </contour>
      <contour>
        <pt x="359" y="-76" on="1"/>
        <pt x="341" y="-73" on="1"/>
        <pt x="395" y="5" on="1"/>
        <pt x="417" y="5" on="1"/>
      </contour>
      <contour>
        <pt x="474" y="-134" on="1"/>
        <pt x="474" y="-152" on="0"/>
        <pt x="456" y="-188" on="0"/>
        <pt x="434" y="-197" on="1"/>
        <pt x="412" y="-206" on="0"/>
        <pt x="364" y="-216" on="0"/>
        <pt x="328" y="-222" on="1"/>
        <pt x="324" y="-205" on="1"/>
        <pt x="369" y="-198" on="0"/>
        <pt x="454" y="-174" on="0"/>
        <pt x="454" y="-133" on="1"/>
        <pt x="454" y="-111" on="0"/>
        <pt x="412" y="-83" on="0"/>
        <pt x="354" y="-83" on="1"/>
        <pt x="341" y="-75" on="1"/>
        <pt x="341" y="-73" on="1"/>
        <pt x="360" y="-66" on="1"/>
        <pt x="423" y="-67" on="0"/>
        <pt x="474" y="-103" on="0"/>
      </contour>
    </TTGlyph>
    <TTGlyph name="Ccircumflex" xMin="55" yMin="-10" xMax="655" yMax="875">
      <contour>
        <pt x="624" y="99" on="1"/>
        <pt x="639" y="81" on="1"/>
        <pt x="594" y="38" on="0"/>
        <pt x="471" y="-10" on="0"/>
        <pt x="399" y="-10" on="1"/>
        <pt x="248" y="-10" on="0"/>
        <pt x="55" y="189" on="0"/>
        <pt x="55" y="346" on="1"/>
        <pt x="55" y="505" on="0"/>
        <pt x="248" y="710" on="0"/>
        <pt x="399" y="710" on="1"/>
        <pt x="478" y="710" on="0"/>
        <pt x="608" y="647" on="0"/>
        <pt x="655" y="594" on="1"/>
        <pt x="637" y="578" on="1"/>
        <pt x="593" y="628" on="0"/>
        <pt x="472" y="688" on="0"/>
        <pt x="399" y="688" on="1"/>
        <pt x="260" y="688" on="0"/>
        <pt x="78" y="494" on="0"/>
        <pt x="78" y="346" on="1"/>
        <pt x="78" y="200" on="0"/>
        <pt x="260" y="12" on="0"/>
        <pt x="399" y="12" on="1"/>
        <pt x="467" y="12" on="0"/>
        <pt x="582" y="58" on="0"/>
      </contour>
      <contour>
        <pt x="499" y="770" on="1"/>
        <pt x="383" y="862" on="1"/>
        <pt x="398" y="862" on="1"/>
        <pt x="281" y="770" on="1"/>
        <pt x="269" y="783" on="1"/>
        <pt x="376" y="875" on="1"/>
        <pt x="404" y="875" on="1"/>
        <pt x="511" y="783" on="1"/>
      </contour>
    </TTGlyph>
    <TTGlyph name="Cdotaccent" xMin="55" yMin="-10" xMax="655" yMax="828">
      <contour>
        <pt x="624" y="99" on="1"/>
        <pt x="639" y="81" on="1"/>
        <pt x="594" y="38" on="0"/>
        <pt x="471" y="-10" on="0"/>
        <pt x="399" y="-10" on="1"/>
        <pt x="248" y="-10" on="0"/>
        <pt x="55" y="189" on="0"/>
        <pt x="55" y="346" on="1"/>
        <pt x="55" y="505" on="0"/>
        <pt x="248" y="710" on="0"/>
        <pt x="399" y="710" on="1"/>
        <pt x="478" y="710" on="0"/>
        <pt x="608" y="647" on="0"/>
        <pt x="655" y="594" on="1"/>
        <pt x="637" y="578" on="1"/>
        <pt x="593" y="628" on="0"/>
        <pt x="472" y="688" on="0"/>
        <pt x="399" y="688" on="1"/>
        <pt x="260" y="688" on="0"/>
        <pt x="78" y="494" on="0"/>
        <pt x="78" y="346" on="1"/>
        <pt x="78" y="200" on="0"/>
        <pt x="260" y="12" on="0"/>
        <pt x="399" y="12" on="1"/>
        <pt x="467" y="12" on="0"/>
        <pt x="582" y="58" on="0"/>
      </contour>
      <contour>
        <pt x="409" y="799" on="1"/>
        <pt x="409" y="786" on="0"/>
        <pt x="395" y="770" on="0"/>
        <pt x="381" y="770" on="1"/>
        <pt x="367" y="770" on="0"/>
        <pt x="353" y="786" on="0"/>
        <pt x="353" y="799" on="1"/>
        <pt x="353" y="811" on="0"/>
        <pt x="367" y="828" on="0"/>
        <pt x="381" y="828" on="1"/>
        <pt x="394" y="828" on="0"/>
        <pt x="409" y="812" on="0"/>
      </contour>
    </TTGlyph>
    <TTGlyph name="D" xMin="110" yMin="0" xMax="682" yMax="700">
      <contour>
        <pt x="110" y="700" on="1"/>
        <pt x="357" y="700" on="1"/>
        <pt x="485" y="700" on="0"/>
        <pt x="682" y="502" on="0"/>
        <pt x="682" y="350" on="1"/>
        <pt x="682" y="199" on="0"/>
        <pt x="485" y="0" on="0"/>
        <pt x="357" y="0" on="1"/>
        <pt x="110" y="0" on="1"/>
      </contour>
      <contour>
        <pt x="122" y="22" on="1"/>
        <pt x="352" y="22" on="1"/>
        <pt x="473" y="22" on="0"/>
        <pt x="659" y="211" on="0"/>
        <pt x="659" y="350" on="1"/>
        <pt x="659" y="490" on="0"/>
        <pt x="473" y="678" on="0"/>
        <pt x="352" y="678" on="1"/>
        <pt x="121" y="678" on="1"/>
        <pt x="132" y="689" on="1"/>
        <pt x="132" y="13" on="1"/>
      </contour>
    </TTGlyph>
    <TTGlyph name="Dcaron" xMin="110" yMin="0" xMax="682" yMax="850">
      <contour>
        <pt x="110" y="700" on="1"/>
        <pt x="357" y="700" on="1"/>
        <pt x="485" y="700" on="0"/>
        <pt x="682" y="502" on="0"/>
        <pt x="682" y="350" on="1"/>
        <pt x="682" y="199" on="0"/>
        <pt x="485" y="0" on="0"/>
        <pt x="357" y="0" on="1"/>
        <pt x="110" y="0" on="1"/>
      </contour>
      <contour>
        <pt x="122" y="22" on="1"/>
        <pt x="352" y="22" on="1"/>
        <pt x="473" y="22" on="0"/>
        <pt x="659" y="211" on="0"/>
        <pt x="659" y="350" on="1"/>
        <pt x="659" y="490" on="0"/>
        <pt x="473" y="678" on="0"/>
        <pt x="352" y="678" on="1"/>
        <pt x="121" y="678" on="1"/>
        <pt x="132" y="689" on="1"/>
        <pt x="132" y="13" on="1"/>
      </contour>
      <contour>
        <pt x="464" y="850" on="1"/>
        <pt x="348" y="758" on="1"/>
        <pt x="363" y="758" on="1"/>
        <pt x="246" y="850" on="1"/>
        <pt x="234" y="837" on="1"/>
        <pt x="341" y="745" on="1"/>
        <pt x="369" y="745" on="1"/>
        <pt x="476" y="837" on="1"/>
      </contour>
    </TTGlyph>
    <TTGlyph name="Dcroat" xMin="5" yMin="0" xMax="682" yMax="700">
      <contour>
        <pt x="110" y="700" on="1"/>
        <pt x="357" y="700" on="1"/>
        <pt x="485" y="700" on="0"/>
        <pt x="682" y="502" on="0"/>
        <pt x="682" y="350" on="1"/>
        <pt x="682" y="199" on="0"/>
        <pt x="485" y="0" on="0"/>
        <pt x="357" y="0" on="1"/>
        <pt x="110" y="0" on="1"/>
      </contour>
      <contour>
        <pt x="122" y="22" on="1"/>
        <pt x="352" y="22" on="1"/>
        <pt x="473" y="22" on="0"/>
        <pt x="659" y="211" on="0"/>
        <pt x="659" y="350" on="1"/>
        <pt x="659" y="490" on="0"/>
        <pt x="473" y="678" on="0"/>
        <pt x="352" y="678" on="1"/>
        <pt x="121" y="678" on="1"/>
        <pt x="132" y="689" on="1"/>
        <pt x="132" y="13" on="1"/>
      </contour>
      <contour>
        <pt x="273" y="344" on="1"/>
        <pt x="5" y="344" on="1"/>
        <pt x="5" y="365" on="1"/>
        <pt x="273" y="365" on="1"/>
      </contour>
    </TTGlyph>
    <TTGlyph name="E" xMin="110" yMin="0" xMax="501" yMax="700">
      <contour>
        <pt x="132" y="0" on="1"/>
        <pt x="110" y="0" on="1"/>
        <pt x="110" y="700" on="1"/>
        <pt x="132" y="700" on="1"/>
      </contour>
      <contour>
        <pt x="495" y="0" on="1"/>
        <pt x="124" y="0" on="1"/>
        <pt x="124" y="22" on="1"/>
        <pt x="495" y="22" on="1"/>
      </contour>
      <contour>
        <pt x="443" y="351" on="1"/>
        <pt x="123" y="351" on="1"/>
        <pt x="123" y="373" on="1"/>
        <pt x="443" y="373" on="1"/>
      </contour>
      <contour>
        <pt x="501" y="678" on="1"/>
        <pt x="123" y="678" on="1"/>
        <pt x="123" y="700" on="1"/>
        <pt x="501" y="700" on="1"/>
      </contour>
    </TTGlyph>
    <TTGlyph name="Eacute" xMin="110" yMin="0" xMax="501" yMax="890">
      <contour>
        <pt x="132" y="0" on="1"/>
        <pt x="110" y="0" on="1"/>
        <pt x="110" y="700" on="1"/>
        <pt x="132" y="700" on="1"/>
      </contour>
      <contour>
        <pt x="495" y="0" on="1"/>
        <pt x="124" y="0" on="1"/>
        <pt x="124" y="22" on="1"/>
        <pt x="495" y="22" on="1"/>
      </contour>
      <contour>
        <pt x="443" y="351" on="1"/>
        <pt x="123" y="351" on="1"/>
        <pt x="123" y="373" on="1"/>
        <pt x="443" y="373" on="1"/>
      </contour>
      <contour>
        <pt x="501" y="678" on="1"/>
        <pt x="123" y="678" on="1"/>
        <pt x="123" y="700" on="1"/>
        <pt x="501" y="700" on="1"/>
      </contour>
      <contour>
        <pt x="400" y="869" on="1"/>
        <pt x="254" y="770" on="1"/>
        <pt x="244" y="785" on="1"/>
        <pt x="386" y="890" on="1"/>
      </contour>
    </TTGlyph>
    <TTGlyph name="Ebreve" xMin="110" yMin="0" xMax="501" yMax="909">
      <contour>
        <pt x="132" y="0" on="1"/>
        <pt x="110" y="0" on="1"/>
        <pt x="110" y="700" on="1"/>
        <pt x="132" y="700" on="1"/>
      </contour>
      <contour>
        <pt x="495" y="0" on="1"/>
        <pt x="124" y="0" on="1"/>
        <pt x="124" y="22" on="1"/>
        <pt x="495" y="22" on="1"/>
      </contour>
      <contour>
        <pt x="443" y="351" on="1"/>
        <pt x="123" y="351" on="1"/>
        <pt x="123" y="373" on="1"/>
        <pt x="443" y="373" on="1"/>
      </contour>
      <contour>
        <pt x="501" y="678" on="1"/>
        <pt x="123" y="678" on="1"/>
        <pt x="123" y="700" on="1"/>
        <pt x="501" y="700" on="1"/>
      </contour>
      <contour>
        <pt x="307" y="787" on="1"/>
        <pt x="256" y="787" on="0"/>
        <pt x="187" y="851" on="0"/>
        <pt x="175" y="907" on="1"/>
        <pt x="197" y="909" on="1"/>
        <pt x="207" y="861" on="0"/>
        <pt x="267" y="808" on="0"/>
        <pt x="307" y="808" on="1"/>
        <pt x="346" y="808" on="0"/>
        <pt x="408" y="861" on="0"/>
        <pt x="417" y="909" on="1"/>
        <pt x="439" y="907" on="1"/>
        <pt x="428" y="851" on="0"/>
        <pt x="357" y="787" on="0"/>
      </contour>
    </TTGlyph>
    <TTGlyph name="Ecaron" xMin="110" yMin="0" xMax="501" yMax="850">
      <contour>
        <pt x="132" y="0" on="1"/>
        <pt x="110" y="0" on="1"/>
        <pt x="110" y="700" on="1"/>
        <pt x="132" y="700" on="1"/>
      </contour>
      <contour>
        <pt x="495" y="0" on="1"/>
        <pt x="124" y="0" on="1"/>
        <pt x="124" y="22" on="1"/>
        <pt x="495" y="22" on="1"/>
      </contour>
      <contour>
        <pt x="443" y="351" on="1"/>
        <pt x="123" y="351" on="1"/>
        <pt x="123" y="373" on="1"/>
        <pt x="443" y="373" on="1"/>
      </contour>
      <contour>
        <pt x="501" y="678" on="1"/>
        <pt x="123" y="678" on="1"/>
        <pt x="123" y="700" on="1"/>
        <pt x="501" y="700" on="1"/>
      </contour>
      <contour>
        <pt x="414" y="850" on="1"/>
        <pt x="298" y="758" on="1"/>
        <pt x="314" y="758" on="1"/>
        <pt x="196" y="850" on="1"/>
        <pt x="184" y="837" on="1"/>
        <pt x="292" y="745" on="1"/>
        <pt x="320" y="745" on="1"/>
        <pt x="426" y="837" on="1"/>
      </contour>
    </TTGlyph>
    <TTGlyph name="Ecircumflex" xMin="110" yMin="0" xMax="501" yMax="875">
      <contour>
        <pt x="132" y="0" on="1"/>
        <pt x="110" y="0" on="1"/>
        <pt x="110" y="700" on="1"/>
        <pt x="132" y="700" on="1"/>
      </contour>
      <contour>
        <pt x="495" y="0" on="1"/>
        <pt x="124" y="0" on="1"/>
        <pt x="124" y="22" on="1"/>
        <pt x="495" y="22" on="1"/>
      </contour>
      <contour>
        <pt x="443" y="351" on="1"/>
        <pt x="123" y="351" on="1"/>
        <pt x="123" y="373" on="1"/>
        <pt x="443" y="373" on="1"/>
      </contour>
      <contour>
        <pt x="501" y="678" on="1"/>
        <pt x="123" y="678" on="1"/>
        <pt x="123" y="700" on="1"/>
        <pt x="501" y="700" on="1"/>
      </contour>
      <contour>
        <pt x="414" y="770" on="1"/>
        <pt x="298" y="862" on="1"/>
        <pt x="314" y="862" on="1"/>
        <pt x="196" y="770" on="1"/>
        <pt x="184" y="783" on="1"/>
        <pt x="292" y="875" on="1"/>
        <pt x="320" y="875" on="1"/>
        <pt x="426" y="783" on="1"/>
      </contour>
    </TTGlyph>
    <TTGlyph name="Edieresis" xMin="110" yMin="0" xMax="501" yMax="824">
      <contour>
        <pt x="132" y="0" on="1"/>
        <pt x="110" y="0" on="1"/>
        <pt x="110" y="700" on="1"/>
        <pt x="132" y="700" on="1"/>
      </contour>
      <contour>
        <pt x="495" y="0" on="1"/>
        <pt x="124" y="0" on="1"/>
        <pt x="124" y="22" on="1"/>
        <pt x="495" y="22" on="1"/>
      </contour>
      <contour>
        <pt x="443" y="351" on="1"/>
        <pt x="123" y="351" on="1"/>
        <pt x="123" y="373" on="1"/>
        <pt x="443" y="373" on="1"/>
      </contour>
      <contour>
        <pt x="501" y="678" on="1"/>
        <pt x="123" y="678" on="1"/>
        <pt x="123" y="700" on="1"/>
        <pt x="501" y="700" on="1"/>
      </contour>
      <contour>
        <pt x="258" y="797" on="1"/>
        <pt x="258" y="785" on="0"/>
        <pt x="244" y="770" on="0"/>
        <pt x="230" y="770" on="1"/>
        <pt x="218" y="770" on="0"/>
        <pt x="204" y="785" on="0"/>
        <pt x="204" y="797" on="1"/>
        <pt x="204" y="808" on="0"/>
        <pt x="218" y="824" on="0"/>
        <pt x="230" y="824" on="1"/>
        <pt x="244" y="824" on="0"/>
        <pt x="258" y="809" on="0"/>
      </contour>
      <contour>
        <pt x="408" y="797" on="1"/>
        <pt x="408" y="785" on="0"/>
        <pt x="394" y="770" on="0"/>
        <pt x="380" y="770" on="1"/>
        <pt x="368" y="770" on="0"/>
        <pt x="354" y="785" on="0"/>
        <pt x="354" y="797" on="1"/>
        <pt x="354" y="808" on="0"/>
        <pt x="368" y="824" on="0"/>
        <pt x="380" y="824" on="1"/>
        <pt x="394" y="824" on="0"/>
        <pt x="408" y="809" on="0"/>
      </contour>
    </TTGlyph>
    <TTGlyph name="Edotaccent" xMin="110" yMin="0" xMax="501" yMax="828">
      <contour>
        <pt x="132" y="0" on="1"/>
        <pt x="110" y="0" on="1"/>
        <pt x="110" y="700" on="1"/>
        <pt x="132" y="700" on="1"/>
      </contour>
      <contour>
        <pt x="495" y="0" on="1"/>
        <pt x="124" y="0" on="1"/>
        <pt x="124" y="22" on="1"/>
        <pt x="495" y="22" on="1"/>
      </contour>
      <contour>
        <pt x="443" y="351" on="1"/>
        <pt x="123" y="351" on="1"/>
        <pt x="123" y="373" on="1"/>
        <pt x="443" y="373" on="1"/>
      </contour>
      <contour>
        <pt x="501" y="678" on="1"/>
        <pt x="123" y="678" on="1"/>
        <pt x="123" y="700" on="1"/>
        <pt x="501" y="700" on="1"/>
      </contour>
      <contour>
        <pt x="334" y="799" on="1"/>
        <pt x="334" y="786" on="0"/>
        <pt x="320" y="770" on="0"/>
        <pt x="306" y="770" on="1"/>
        <pt x="292" y="770" on="0"/>
        <pt x="278" y="786" on="0"/>
        <pt x="278" y="799" on="1"/>
        <pt x="278" y="811" on="0"/>
        <pt x="292" y="828" on="0"/>
        <pt x="306" y="828" on="1"/>
        <pt x="318" y="828" on="0"/>
        <pt x="334" y="812" on="0"/>
      </contour>
    </TTGlyph>
    <TTGlyph name="Egrave" xMin="110" yMin="0" xMax="501" yMax="890">
      <contour>
        <pt x="132" y="0" on="1"/>
        <pt x="110" y="0" on="1"/>
        <pt x="110" y="700" on="1"/>
        <pt x="132" y="700" on="1"/>
      </contour>
      <contour>
        <pt x="495" y="0" on="1"/>
        <pt x="124" y="0" on="1"/>
        <pt x="124" y="22" on="1"/>
        <pt x="495" y="22" on="1"/>
      </contour>
      <contour>
        <pt x="443" y="351" on="1"/>
        <pt x="123" y="351" on="1"/>
        <pt x="123" y="373" on="1"/>
        <pt x="443" y="373" on="1"/>
      </contour>
      <contour>
        <pt x="501" y="678" on="1"/>
        <pt x="123" y="678" on="1"/>
        <pt x="123" y="700" on="1"/>
        <pt x="501" y="700" on="1"/>
      </contour>
      <contour>
        <pt x="367" y="785" on="1"/>
        <pt x="357" y="770" on="1"/>
        <pt x="211" y="869" on="1"/>
        <pt x="225" y="890" on="1"/>
      </contour>
    </TTGlyph>
    <TTGlyph name="Emacron" xMin="110" yMin="0" xMax="501" yMax="792">
      <contour>
        <pt x="132" y="0" on="1"/>
        <pt x="110" y="0" on="1"/>
        <pt x="110" y="700" on="1"/>
        <pt x="132" y="700" on="1"/>
      </contour>
      <contour>
        <pt x="495" y="0" on="1"/>
        <pt x="124" y="0" on="1"/>
        <pt x="124" y="22" on="1"/>
        <pt x="495" y="22" on="1"/>
      </contour>
      <contour>
        <pt x="443" y="351" on="1"/>
        <pt x="123" y="351" on="1"/>
        <pt x="123" y="373" on="1"/>
        <pt x="443" y="373" on="1"/>
      </contour>
      <contour>
        <pt x="501" y="678" on="1"/>
        <pt x="123" y="678" on="1"/>
        <pt x="123" y="700" on="1"/>
        <pt x="501" y="700" on="1"/>
      </contour>
      <contour>
        <pt x="433" y="770" on="1"/>
        <pt x="163" y="770" on="1"/>
        <pt x="163" y="792" on="1"/>
        <pt x="433" y="792" on="1"/>
      </contour>
    </TTGlyph>
    <TTGlyph name="Eng" xMin="110" yMin="-194" xMax="620" yMax="700">
      <contour>
        <pt x="598" y="19" on="1"/>
        <pt x="600" y="0" on="1"/>
        <pt x="115" y="686" on="1"/>
        <pt x="130" y="686" on="1"/>
        <pt x="131" y="673" on="0"/>
        <pt x="132" y="618" on="0"/>
        <pt x="132" y="585" on="1"/>
        <pt x="132" y="556" on="0"/>
        <pt x="132" y="496" on="0"/>
        <pt x="132" y="470" on="1"/>
        <pt x="132" y="0" on="1"/>
        <pt x="110" y="0" on="1"/>
        <pt x="110" y="700" on="1"/>
        <pt x="132" y="700" on="1"/>
        <pt x="605" y="31" on="1"/>
        <pt x="601" y="31" on="1"/>
        <pt x="601" y="75" on="0"/>
        <pt x="599" y="177" on="0"/>
        <pt x="598" y="241" on="1"/>
        <pt x="598" y="700" on="1"/>
        <pt x="620" y="700" on="1"/>
        <pt x="620" y="0" on="1"/>
        <pt x="620" y="-60" on="1"/>
        <pt x="620" y="-125" on="0"/>
        <pt x="554" y="-194" on="0"/>
        <pt x="494" y="-194" on="1"/>
        <pt x="486" y="-173" on="1"/>
        <pt x="548" y="-173" on="0"/>
        <pt x="598" y="-108" on="0"/>
        <pt x="598" y="-56" on="1"/>
      </contour>
    </TTGlyph>
    <TTGlyph name="Eogonek" xMin="110" yMin="-230" xMax="525" yMax="700">
      <contour>
        <pt x="132" y="0" on="1"/>
        <pt x="110" y="0" on="1"/>
        <pt x="110" y="700" on="1"/>
        <pt x="132" y="700" on="1"/>
      </contour>
      <contour>
        <pt x="495" y="0" on="1"/>
        <pt x="124" y="0" on="1"/>
        <pt x="124" y="22" on="1"/>
        <pt x="495" y="22" on="1"/>
      </contour>
      <contour>
        <pt x="443" y="351" on="1"/>
        <pt x="123" y="351" on="1"/>
        <pt x="123" y="373" on="1"/>
        <pt x="443" y="373" on="1"/>
      </contour>
      <contour>
        <pt x="501" y="678" on="1"/>
        <pt x="123" y="678" on="1"/>
        <pt x="123" y="700" on="1"/>
        <pt x="501" y="700" on="1"/>
      </contour>
      <contour>
        <pt x="435" y="-230" on="1"/>
        <pt x="393" y="-230" on="0"/>
        <pt x="335" y="-172" on="0"/>
        <pt x="335" y="-130" on="1"/>
        <pt x="335" y="-70" on="0"/>
        <pt x="431" y="8" on="0"/>
        <pt x="490" y="18" on="1"/>
        <pt x="495" y="8" on="1"/>
        <pt x="495" y="0" on="1"/>
        <pt x="437" y="-10" on="0"/>
        <pt x="357" y="-77" on="0"/>
        <pt x="357" y="-130" on="1"/>
        <pt x="357" y="-163" on="0"/>
        <pt x="402" y="-208" on="0"/>
        <pt x="435" y="-208" on="1"/>
        <pt x="461" y="-208" on="0"/>
        <pt x="499" y="-183" on="0"/>
        <pt x="510" y="-163" on="1"/>
        <pt x="525" y="-176" on="1"/>
        <pt x="513" y="-200" on="0"/>
        <pt x="465" y="-230" on="0"/>
      </contour>
    </TTGlyph>
    <TTGlyph name="Eth" xMin="5" yMin="0" xMax="682" yMax="700">
      <contour>
        <pt x="110" y="700" on="1"/>
        <pt x="357" y="700" on="1"/>
        <pt x="485" y="700" on="0"/>
        <pt x="682" y="502" on="0"/>
        <pt x="682" y="350" on="1"/>
        <pt x="682" y="199" on="0"/>
        <pt x="485" y="0" on="0"/>
        <pt x="357" y="0" on="1"/>
        <pt x="110" y="0" on="1"/>
      </contour>
      <contour>
        <pt x="122" y="22" on="1"/>
        <pt x="352" y="22" on="1"/>
        <pt x="473" y="22" on="0"/>
        <pt x="659" y="211" on="0"/>
        <pt x="659" y="350" on="1"/>
        <pt x="659" y="490" on="0"/>
        <pt x="473" y="678" on="0"/>
        <pt x="352" y="678" on="1"/>
        <pt x="121" y="678" on="1"/>
        <pt x="132" y="689" on="1"/>
        <pt x="132" y="13" on="1"/>
      </contour>
      <contour>
        <pt x="273" y="344" on="1"/>
        <pt x="5" y="344" on="1"/>
        <pt x="5" y="365" on="1"/>
        <pt x="273" y="365" on="1"/>
      </contour>
    </TTGlyph>
    <TTGlyph name="Euro" xMin="15" yMin="-10" xMax="600" yMax="710">
      <contour>
        <pt x="467" y="259" on="1"/>
        <pt x="15" y="259" on="1"/>
        <pt x="15" y="281" on="1"/>
        <pt x="467" y="281" on="1"/>
      </contour>
      <contour>
        <pt x="467" y="400" on="1"/>
        <pt x="15" y="400" on="1"/>
        <pt x="15" y="422" on="1"/>
        <pt x="467" y="422" on="1"/>
      </contour>
      <contour>
        <pt x="439" y="-10" on="1"/>
        <pt x="288" y="-10" on="0"/>
        <pt x="95" y="189" on="0"/>
        <pt x="95" y="346" on="1"/>
        <pt x="95" y="505" on="0"/>
        <pt x="288" y="710" on="0"/>
        <pt x="439" y="710" on="1"/>
        <pt x="484" y="710" on="0"/>
        <pt x="565" y="689" on="0"/>
        <pt x="600" y="670" on="1"/>
        <pt x="585" y="652" on="1"/>
        <pt x="553" y="669" on="0"/>
        <pt x="479" y="688" on="0"/>
        <pt x="439" y="688" on="1"/>
        <pt x="300" y="688" on="0"/>
        <pt x="118" y="494" on="0"/>
        <pt x="118" y="346" on="1"/>
        <pt x="118" y="200" on="0"/>
        <pt x="300" y="12" on="0"/>
        <pt x="439" y="12" on="1"/>
        <pt x="479" y="12" on="0"/>
        <pt x="552" y="28" on="0"/>
        <pt x="584" y="43" on="1"/>
        <pt x="599" y="25" on="1"/>
        <pt x="564" y="8" on="0"/>
        <pt x="483" y="-10" on="0"/>
      </contour>
    </TTGlyph>
    <TTGlyph name="F" xMin="110" yMin="0" xMax="501" yMax="700">
      <contour>
        <pt x="110" y="0" on="1"/>
        <pt x="110" y="700" on="1"/>
        <pt x="132" y="700" on="1"/>
        <pt x="132" y="0" on="1"/>
      </contour>
      <contour>
        <pt x="444" y="341" on="1"/>
        <pt x="122" y="341" on="1"/>
        <pt x="122" y="363" on="1"/>
        <pt x="444" y="363" on="1"/>
      </contour>
      <contour>
        <pt x="501" y="678" on="1"/>
        <pt x="123" y="678" on="1"/>
        <pt x="123" y="700" on="1"/>
        <pt x="501" y="700" on="1"/>
      </contour>
    </TTGlyph>
    <TTGlyph name="G" xMin="55" yMin="-10" xMax="722" yMax="710">
      <contour>
        <pt x="55" y="346" on="1"/>
        <pt x="55" y="505" on="0"/>
        <pt x="248" y="710" on="0"/>
        <pt x="399" y="710" on="1"/>
        <pt x="484" y="710" on="0"/>
        <pt x="620" y="639" on="0"/>
        <pt x="668" y="580" on="1"/>
        <pt x="651" y="564" on="1"/>
        <pt x="608" y="621" on="0"/>
        <pt x="478" y="688" on="0"/>
        <pt x="399" y="688" on="1"/>
        <pt x="260" y="688" on="0"/>
        <pt x="78" y="494" on="0"/>
        <pt x="78" y="346" on="1"/>
        <pt x="78" y="200" on="0"/>
        <pt x="261" y="12" on="0"/>
        <pt x="400" y="12" on="1"/>
        <pt x="544" y="12" on="0"/>
        <pt x="699" y="184" on="0"/>
        <pt x="699" y="322" on="1"/>
        <pt x="699" y="341" on="1"/>
        <pt x="705" y="336" on="1"/>
        <pt x="409" y="336" on="1"/>
        <pt x="409" y="358" on="1"/>
        <pt x="722" y="358" on="1"/>
        <pt x="722" y="352" on="0"/>
        <pt x="722" y="345" on="0"/>
        <pt x="722" y="339" on="1"/>
        <pt x="722" y="168" on="0"/>
        <pt x="549" y="-10" on="0"/>
        <pt x="400" y="-10" on="1"/>
        <pt x="249" y="-10" on="0"/>
        <pt x="55" y="189" on="0"/>
      </contour>
    </TTGlyph>
    <TTGlyph name="Gbreve" xMin="55" yMin="-10" xMax="722" yMax="909">
      <contour>
        <pt x="55" y="346" on="1"/>
        <pt x="55" y="505" on="0"/>
        <pt x="248" y="710" on="0"/>
        <pt x="399" y="710" on="1"/>
        <pt x="484" y="710" on="0"/>
        <pt x="620" y="639" on="0"/>
        <pt x="668" y="580" on="1"/>
        <pt x="651" y="564" on="1"/>
        <pt x="608" y="621" on="0"/>
        <pt x="478" y="688" on="0"/>
        <pt x="399" y="688" on="1"/>
        <pt x="260" y="688" on="0"/>
        <pt x="78" y="494" on="0"/>
        <pt x="78" y="346" on="1"/>
        <pt x="78" y="200" on="0"/>
        <pt x="261" y="12" on="0"/>
        <pt x="400" y="12" on="1"/>
        <pt x="544" y="12" on="0"/>
        <pt x="699" y="184" on="0"/>
        <pt x="699" y="322" on="1"/>
        <pt x="699" y="341" on="1"/>
        <pt x="705" y="336" on="1"/>
        <pt x="409" y="336" on="1"/>
        <pt x="409" y="358" on="1"/>
        <pt x="722" y="358" on="1"/>
        <pt x="722" y="352" on="0"/>
        <pt x="722" y="345" on="0"/>
        <pt x="722" y="339" on="1"/>
        <pt x="722" y="168" on="0"/>
        <pt x="549" y="-10" on="0"/>
        <pt x="400" y="-10" on="1"/>
        <pt x="249" y="-10" on="0"/>
        <pt x="55" y="189" on="0"/>
      </contour>
      <contour>
        <pt x="407" y="787" on="1"/>
        <pt x="356" y="787" on="0"/>
        <pt x="287" y="851" on="0"/>
        <pt x="275" y="907" on="1"/>
        <pt x="297" y="909" on="1"/>
        <pt x="307" y="861" on="0"/>
        <pt x="367" y="808" on="0"/>
        <pt x="407" y="808" on="1"/>
        <pt x="446" y="808" on="0"/>
        <pt x="508" y="861" on="0"/>
        <pt x="517" y="909" on="1"/>
        <pt x="539" y="907" on="1"/>
        <pt x="528" y="851" on="0"/>
        <pt x="457" y="787" on="0"/>
      </contour>
    </TTGlyph>
    <TTGlyph name="Gcaron" xMin="55" yMin="-10" xMax="722" yMax="850">
      <contour>
        <pt x="55" y="346" on="1"/>
        <pt x="55" y="505" on="0"/>
        <pt x="248" y="710" on="0"/>
        <pt x="399" y="710" on="1"/>
        <pt x="484" y="710" on="0"/>
        <pt x="620" y="639" on="0"/>
        <pt x="668" y="580" on="1"/>
        <pt x="651" y="564" on="1"/>
        <pt x="608" y="621" on="0"/>
        <pt x="478" y="688" on="0"/>
        <pt x="399" y="688" on="1"/>
        <pt x="260" y="688" on="0"/>
        <pt x="78" y="494" on="0"/>
        <pt x="78" y="346" on="1"/>
        <pt x="78" y="200" on="0"/>
        <pt x="261" y="12" on="0"/>
        <pt x="400" y="12" on="1"/>
        <pt x="544" y="12" on="0"/>
        <pt x="699" y="184" on="0"/>
        <pt x="699" y="322" on="1"/>
        <pt x="699" y="341" on="1"/>
        <pt x="705" y="336" on="1"/>
        <pt x="409" y="336" on="1"/>
        <pt x="409" y="358" on="1"/>
        <pt x="722" y="358" on="1"/>
        <pt x="722" y="352" on="0"/>
        <pt x="722" y="345" on="0"/>
        <pt x="722" y="339" on="1"/>
        <pt x="722" y="168" on="0"/>
        <pt x="549" y="-10" on="0"/>
        <pt x="400" y="-10" on="1"/>
        <pt x="249" y="-10" on="0"/>
        <pt x="55" y="189" on="0"/>
      </contour>
      <contour>
        <pt x="516" y="850" on="1"/>
        <pt x="400" y="758" on="1"/>
        <pt x="415" y="758" on="1"/>
        <pt x="298" y="850" on="1"/>
        <pt x="286" y="837" on="1"/>
        <pt x="393" y="745" on="1"/>
        <pt x="421" y="745" on="1"/>
        <pt x="528" y="837" on="1"/>
      </contour>
    </TTGlyph>
    <TTGlyph name="Gcircumflex" xMin="55" yMin="-10" xMax="722" yMax="875">
      <contour>
        <pt x="55" y="346" on="1"/>
        <pt x="55" y="505" on="0"/>
        <pt x="248" y="710" on="0"/>
        <pt x="399" y="710" on="1"/>
        <pt x="484" y="710" on="0"/>
        <pt x="620" y="639" on="0"/>
        <pt x="668" y="580" on="1"/>
        <pt x="651" y="564" on="1"/>
        <pt x="608" y="621" on="0"/>
        <pt x="478" y="688" on="0"/>
        <pt x="399" y="688" on="1"/>
        <pt x="260" y="688" on="0"/>
        <pt x="78" y="494" on="0"/>
        <pt x="78" y="346" on="1"/>
        <pt x="78" y="200" on="0"/>
        <pt x="261" y="12" on="0"/>
        <pt x="400" y="12" on="1"/>
        <pt x="544" y="12" on="0"/>
        <pt x="699" y="184" on="0"/>
        <pt x="699" y="322" on="1"/>
        <pt x="699" y="341" on="1"/>
        <pt x="705" y="336" on="1"/>
        <pt x="409" y="336" on="1"/>
        <pt x="409" y="358" on="1"/>
        <pt x="722" y="358" on="1"/>
        <pt x="722" y="352" on="0"/>
        <pt x="722" y="345" on="0"/>
        <pt x="722" y="339" on="1"/>
        <pt x="722" y="168" on="0"/>
        <pt x="549" y="-10" on="0"/>
        <pt x="400" y="-10" on="1"/>
        <pt x="249" y="-10" on="0"/>
        <pt x="55" y="189" on="0"/>
      </contour>
      <contour>
        <pt x="506" y="770" on="1"/>
        <pt x="390" y="862" on="1"/>
        <pt x="405" y="862" on="1"/>
        <pt x="288" y="770" on="1"/>
        <pt x="276" y="783" on="1"/>
        <pt x="383" y="875" on="1"/>
        <pt x="411" y="875" on="1"/>
        <pt x="518" y="783" on="1"/>
      </contour>
    </TTGlyph>
    <TTGlyph name="Gdotaccent" xMin="55" yMin="-10" xMax="722" yMax="828">
      <contour>
        <pt x="55" y="346" on="1"/>
        <pt x="55" y="505" on="0"/>
        <pt x="248" y="710" on="0"/>
        <pt x="399" y="710" on="1"/>
        <pt x="484" y="710" on="0"/>
        <pt x="620" y="639" on="0"/>
        <pt x="668" y="580" on="1"/>
        <pt x="651" y="564" on="1"/>
        <pt x="608" y="621" on="0"/>
        <pt x="478" y="688" on="0"/>
        <pt x="399" y="688" on="1"/>
        <pt x="260" y="688" on="0"/>
        <pt x="78" y="494" on="0"/>
        <pt x="78" y="346" on="1"/>
        <pt x="78" y="200" on="0"/>
        <pt x="261" y="12" on="0"/>
        <pt x="400" y="12" on="1"/>
        <pt x="544" y="12" on="0"/>
        <pt x="699" y="184" on="0"/>
        <pt x="699" y="322" on="1"/>
        <pt x="699" y="341" on="1"/>
        <pt x="705" y="336" on="1"/>
        <pt x="409" y="336" on="1"/>
        <pt x="409" y="358" on="1"/>
        <pt x="722" y="358" on="1"/>
        <pt x="722" y="352" on="0"/>
        <pt x="722" y="345" on="0"/>
        <pt x="722" y="339" on="1"/>
        <pt x="722" y="168" on="0"/>
        <pt x="549" y="-10" on="0"/>
        <pt x="400" y="-10" on="1"/>
        <pt x="249" y="-10" on="0"/>
        <pt x="55" y="189" on="0"/>
      </contour>
      <contour>
        <pt x="416" y="799" on="1"/>
        <pt x="416" y="786" on="0"/>
        <pt x="402" y="770" on="0"/>
        <pt x="388" y="770" on="1"/>
        <pt x="374" y="770" on="0"/>
        <pt x="360" y="786" on="0"/>
        <pt x="360" y="799" on="1"/>
        <pt x="360" y="811" on="0"/>
        <pt x="374" y="828" on="0"/>
        <pt x="388" y="828" on="1"/>
        <pt x="402" y="828" on="0"/>
        <pt x="416" y="812" on="0"/>
      </contour>
    </TTGlyph>
    <TTGlyph name="H" xMin="110" yMin="0" xMax="621" yMax="700">
      <contour>
        <pt x="110" y="700" on="1"/>
        <pt x="132" y="700" on="1"/>
        <pt x="132" y="0" on="1"/>
        <pt x="110" y="0" on="1"/>
      </contour>
      <contour>
        <pt x="599" y="700" on="1"/>
        <pt x="621" y="700" on="1"/>
        <pt x="621" y="0" on="1"/>
        <pt x="599" y="0" on="1"/>
      </contour>
      <contour>
        <pt x="121" y="338" on="1"/>
        <pt x="121" y="360" on="1"/>
        <pt x="610" y="360" on="1"/>
        <pt x="610" y="338" on="1"/>
      </contour>
    </TTGlyph>
    <TTGlyph name="Hbar" xMin="24" yMin="0" xMax="706" yMax="700">
      <contour>
        <pt x="110" y="541" on="1"/>
        <pt x="24" y="541" on="1"/>
        <pt x="24" y="562" on="1"/>
        <pt x="110" y="562" on="1"/>
        <pt x="127" y="562" on="1"/>
        <pt x="606" y="562" on="1"/>
        <pt x="621" y="562" on="1"/>
        <pt x="706" y="562" on="1"/>
        <pt x="706" y="541" on="1"/>
        <pt x="621" y="541" on="1"/>
        <pt x="606" y="541" on="1"/>
        <pt x="127" y="541" on="1"/>
      </contour>
      <contour>
        <pt x="110" y="700" on="1"/>
        <pt x="132" y="700" on="1"/>
        <pt x="132" y="0" on="1"/>
        <pt x="110" y="0" on="1"/>
      </contour>
      <contour>
        <pt x="599" y="700" on="1"/>
        <pt x="621" y="700" on="1"/>
        <pt x="621" y="0" on="1"/>
        <pt x="599" y="0" on="1"/>
      </contour>
      <contour>
        <pt x="121" y="338" on="1"/>
        <pt x="121" y="360" on="1"/>
        <pt x="610" y="360" on="1"/>
        <pt x="610" y="338" on="1"/>
      </contour>
    </TTGlyph>
    <TTGlyph name="Hcircumflex" xMin="110" yMin="0" xMax="621" yMax="875">
      <contour>
        <pt x="110" y="700" on="1"/>
        <pt x="132" y="700" on="1"/>
        <pt x="132" y="0" on="1"/>
        <pt x="110" y="0" on="1"/>
      </contour>
      <contour>
        <pt x="599" y="700" on="1"/>
        <pt x="621" y="700" on="1"/>
        <pt x="621" y="0" on="1"/>
        <pt x="599" y="0" on="1"/>
      </contour>
      <contour>
        <pt x="121" y="338" on="1"/>
        <pt x="121" y="360" on="1"/>
        <pt x="610" y="360" on="1"/>
        <pt x="610" y="338" on="1"/>
      </contour>
      <contour>
        <pt x="470" y="770" on="1"/>
        <pt x="354" y="862" on="1"/>
        <pt x="369" y="862" on="1"/>
        <pt x="252" y="770" on="1"/>
        <pt x="240" y="783" on="1"/>
        <pt x="347" y="875" on="1"/>
        <pt x="375" y="875" on="1"/>
        <pt x="482" y="783" on="1"/>
      </contour>
    </TTGlyph>
    <TTGlyph name="I" xMin="50" yMin="0" xMax="336" yMax="700">
      <contour>
        <pt x="204" y="700" on="1"/>
        <pt x="204" y="0" on="1"/>
        <pt x="182" y="0" on="1"/>
        <pt x="182" y="700" on="1"/>
        <pt x="210" y="700" on="0"/>
        <pt x="176" y="700" on="0"/>
      </contour>
      <contour>
        <pt x="336" y="700" on="1"/>
        <pt x="336" y="678" on="1"/>
        <pt x="50" y="678" on="1"/>
        <pt x="50" y="700" on="1"/>
      </contour>
      <contour>
        <pt x="336" y="22" on="1"/>
        <pt x="336" y="0" on="1"/>
        <pt x="50" y="0" on="1"/>
        <pt x="50" y="22" on="1"/>
      </contour>
    </TTGlyph>
    <TTGlyph name="I.ss01" xMin="143" yMin="0" xMax="165" yMax="700">
      <contour>
        <pt x="165" y="700" on="1"/>
        <pt x="165" y="0" on="1"/>
        <pt x="143" y="0" on="1"/>
        <pt x="143" y="700" on="1"/>
        <pt x="149" y="700" on="0"/>
        <pt x="159" y="700" on="0"/>
      </contour>
    </TTGlyph>
    <TTGlyph name="IJ" xMin="50" yMin="-10" xMax="855" yMax="700">
      <contour>
        <pt x="204" y="700" on="1"/>
        <pt x="204" y="0" on="1"/>
        <pt x="182" y="0" on="1"/>
        <pt x="182" y="700" on="1"/>
        <pt x="210" y="700" on="0"/>
        <pt x="176" y="700" on="0"/>
      </contour>
      <contour>
        <pt x="336" y="700" on="1"/>
        <pt x="336" y="678" on="1"/>
        <pt x="50" y="678" on="1"/>
        <pt x="50" y="700" on="1"/>
      </contour>
      <contour>
        <pt x="336" y="22" on="1"/>
        <pt x="336" y="0" on="1"/>
        <pt x="50" y="0" on="1"/>
        <pt x="50" y="22" on="1"/>
      </contour>
      <contour>
        <pt x="555" y="-10" on="1"/>
        <pt x="486" y="-10" on="0"/>
        <pt x="390" y="60" on="0"/>
        <pt x="366" y="120" on="1"/>
        <pt x="382" y="135" on="1"/>
        <pt x="410" y="72" on="0"/>
        <pt x="497" y="12" on="0"/>
        <pt x="557" y="12" on="1"/>
        <pt x="632" y="12" on="0"/>
        <pt x="727" y="107" on="0"/>
        <pt x="727" y="213" on="1"/>
        <pt x="727" y="700" on="1"/>
        <pt x="749" y="700" on="1"/>
        <pt x="749" y="213" on="1"/>
        <pt x="749" y="97" on="0"/>
        <pt x="640" y="-10" on="0"/>
      </contour>
      <contour>
        <pt x="855" y="700" on="1"/>
        <pt x="855" y="678" on="1"/>
        <pt x="598" y="678" on="1"/>
        <pt x="598" y="700" on="1"/>
      </contour>
    </TTGlyph>
    <TTGlyph name="IJ.ss01" xMin="143" yMin="-10" xMax="752" yMax="700">
      <contour>
        <pt x="165" y="700" on="1"/>
        <pt x="165" y="0" on="1"/>
        <pt x="143" y="0" on="1"/>
        <pt x="143" y="700" on="1"/>
        <pt x="149" y="700" on="0"/>
        <pt x="159" y="700" on="0"/>
      </contour>
      <contour>
        <pt x="548" y="-10" on="1"/>
        <pt x="484" y="-10" on="0"/>
        <pt x="383" y="54" on="0"/>
        <pt x="349" y="117" on="1"/>
        <pt x="369" y="139" on="1"/>
        <pt x="396" y="77" on="0"/>
        <pt x="497" y="13" on="0"/>
        <pt x="549" y="13" on="1"/>
        <pt x="625" y="13" on="0"/>
        <pt x="724" y="125" on="0"/>
        <pt x="724" y="213" on="1"/>
        <pt x="724" y="700" on="1"/>
        <pt x="752" y="700" on="1"/>
        <pt x="752" y="213" on="1"/>
        <pt x="752" y="115" on="0"/>
        <pt x="637" y="-10" on="0"/>
      </contour>
    </TTGlyph>
    <TTGlyph name="IJacute" xMin="50" yMin="-10" xMax="855" yMax="890">
      <contour>
        <pt x="204" y="700" on="1"/>
        <pt x="204" y="0" on="1"/>
        <pt x="182" y="0" on="1"/>
        <pt x="182" y="700" on="1"/>
        <pt x="210" y="700" on="0"/>
        <pt x="176" y="700" on="0"/>
      </contour>
      <contour>
        <pt x="336" y="700" on="1"/>
        <pt x="336" y="678" on="1"/>
        <pt x="50" y="678" on="1"/>
        <pt x="50" y="700" on="1"/>
      </contour>
      <contour>
        <pt x="336" y="22" on="1"/>
        <pt x="336" y="0" on="1"/>
        <pt x="50" y="0" on="1"/>
        <pt x="50" y="22" on="1"/>
      </contour>
      <contour>
        <pt x="555" y="-10" on="1"/>
        <pt x="486" y="-10" on="0"/>
        <pt x="390" y="60" on="0"/>
        <pt x="366" y="120" on="1"/>
        <pt x="382" y="135" on="1"/>
        <pt x="410" y="72" on="0"/>
        <pt x="497" y="12" on="0"/>
        <pt x="557" y="12" on="1"/>
        <pt x="632" y="12" on="0"/>
        <pt x="727" y="107" on="0"/>
        <pt x="727" y="213" on="1"/>
        <pt x="727" y="700" on="1"/>
        <pt x="749" y="700" on="1"/>
        <pt x="749" y="213" on="1"/>
        <pt x="749" y="97" on="0"/>
        <pt x="640" y="-10" on="0"/>
      </contour>
      <contour>
        <pt x="855" y="700" on="1"/>
        <pt x="855" y="678" on="1"/>
        <pt x="598" y="678" on="1"/>
        <pt x="598" y="700" on="1"/>
      </contour>
      <contour>
        <pt x="838" y="869" on="1"/>
        <pt x="692" y="770" on="1"/>
        <pt x="682" y="785" on="1"/>
        <pt x="824" y="890" on="1"/>
      </contour>
      <contour>
        <pt x="308" y="869" on="1"/>
        <pt x="162" y="770" on="1"/>
        <pt x="152" y="785" on="1"/>
        <pt x="294" y="890" on="1"/>
      </contour>
    </TTGlyph>
    <TTGlyph name="IJacute.ss01" xMin="102" yMin="-10" xMax="836" yMax="920">
      <contour>
        <pt x="165" y="700" on="1"/>
        <pt x="165" y="0" on="1"/>
        <pt x="143" y="0" on="1"/>
        <pt x="143" y="700" on="1"/>
        <pt x="149" y="700" on="0"/>
        <pt x="159" y="700" on="0"/>
      </contour>
      <contour>
        <pt x="548" y="-10" on="1"/>
        <pt x="484" y="-10" on="0"/>
        <pt x="383" y="54" on="0"/>
        <pt x="349" y="117" on="1"/>
        <pt x="369" y="139" on="1"/>
        <pt x="396" y="77" on="0"/>
        <pt x="497" y="13" on="0"/>
        <pt x="549" y="13" on="1"/>
        <pt x="625" y="13" on="0"/>
        <pt x="724" y="125" on="0"/>
        <pt x="724" y="213" on="1"/>
        <pt x="724" y="700" on="1"/>
        <pt x="752" y="700" on="1"/>
        <pt x="752" y="213" on="1"/>
        <pt x="752" y="115" on="0"/>
        <pt x="637" y="-10" on="0"/>
      </contour>
      <contour>
        <pt x="258" y="899" on="1"/>
        <pt x="112" y="800" on="1"/>
        <pt x="102" y="815" on="1"/>
        <pt x="244" y="920" on="1"/>
      </contour>
      <contour>
        <pt x="836" y="899" on="1"/>
        <pt x="690" y="800" on="1"/>
        <pt x="680" y="815" on="1"/>
        <pt x="822" y="920" on="1"/>
      </contour>
    </TTGlyph>
    <TTGlyph name="Iacute" xMin="50" yMin="0" xMax="336" yMax="890">
      <contour>
        <pt x="204" y="700" on="1"/>
        <pt x="204" y="0" on="1"/>
        <pt x="182" y="0" on="1"/>
        <pt x="182" y="700" on="1"/>
        <pt x="210" y="700" on="0"/>
        <pt x="176" y="700" on="0"/>
      </contour>
      <contour>
        <pt x="336" y="700" on="1"/>
        <pt x="336" y="678" on="1"/>
        <pt x="50" y="678" on="1"/>
        <pt x="50" y="700" on="1"/>
      </contour>
      <contour>
        <pt x="336" y="22" on="1"/>
        <pt x="336" y="0" on="1"/>
        <pt x="50" y="0" on="1"/>
        <pt x="50" y="22" on="1"/>
      </contour>
      <contour>
        <pt x="284" y="869" on="1"/>
        <pt x="138" y="770" on="1"/>
        <pt x="128" y="785" on="1"/>
        <pt x="270" y="890" on="1"/>
      </contour>
    </TTGlyph>
    <TTGlyph name="Iacute.ss01" xMin="94" yMin="0" xMax="250" yMax="890">
      <contour>
        <pt x="165" y="700" on="1"/>
        <pt x="165" y="0" on="1"/>
        <pt x="143" y="0" on="1"/>
        <pt x="143" y="700" on="1"/>
        <pt x="149" y="700" on="0"/>
        <pt x="159" y="700" on="0"/>
      </contour>
      <contour>
        <pt x="250" y="869" on="1"/>
        <pt x="104" y="770" on="1"/>
        <pt x="94" y="785" on="1"/>
        <pt x="236" y="890" on="1"/>
      </contour>
    </TTGlyph>
    <TTGlyph name="Iacute_J.loclNLD" xMin="50" yMin="-10" xMax="829" yMax="890">
      <contour>
        <pt x="204" y="700" on="1"/>
        <pt x="204" y="0" on="1"/>
        <pt x="182" y="0" on="1"/>
        <pt x="182" y="700" on="1"/>
        <pt x="210" y="700" on="0"/>
        <pt x="176" y="700" on="0"/>
      </contour>
      <contour>
        <pt x="336" y="700" on="1"/>
        <pt x="336" y="678" on="1"/>
        <pt x="50" y="678" on="1"/>
        <pt x="50" y="700" on="1"/>
      </contour>
      <contour>
        <pt x="336" y="22" on="1"/>
        <pt x="336" y="0" on="1"/>
        <pt x="50" y="0" on="1"/>
        <pt x="50" y="22" on="1"/>
      </contour>
      <contour>
        <pt x="284" y="869" on="1"/>
        <pt x="138" y="770" on="1"/>
        <pt x="128" y="785" on="1"/>
        <pt x="270" y="890" on="1"/>
      </contour>
      <contour>
        <pt x="529" y="-10" on="1"/>
        <pt x="460" y="-10" on="0"/>
        <pt x="364" y="60" on="0"/>
        <pt x="340" y="120" on="1"/>
        <pt x="356" y="135" on="1"/>
        <pt x="384" y="72" on="0"/>
        <pt x="471" y="12" on="0"/>
        <pt x="531" y="12" on="1"/>
        <pt x="606" y="12" on="0"/>
        <pt x="701" y="107" on="0"/>
        <pt x="701" y="213" on="1"/>
        <pt x="701" y="700" on="1"/>
        <pt x="723" y="700" on="1"/>
        <pt x="723" y="213" on="1"/>
        <pt x="723" y="97" on="0"/>
        <pt x="614" y="-10" on="0"/>
      </contour>
      <contour>
        <pt x="829" y="700" on="1"/>
        <pt x="829" y="678" on="1"/>
        <pt x="572" y="678" on="1"/>
        <pt x="572" y="700" on="1"/>
      </contour>
      <contour>
        <pt x="805" y="869" on="1"/>
        <pt x="659" y="770" on="1"/>
        <pt x="649" y="785" on="1"/>
        <pt x="791" y="890" on="1"/>
      </contour>
    </TTGlyph>
    <TTGlyph name="Ibreve" xMin="50" yMin="0" xMax="336" yMax="909">
      <contour>
        <pt x="204" y="700" on="1"/>
        <pt x="204" y="0" on="1"/>
        <pt x="182" y="0" on="1"/>
        <pt x="182" y="700" on="1"/>
        <pt x="210" y="700" on="0"/>
        <pt x="176" y="700" on="0"/>
      </contour>
      <contour>
        <pt x="336" y="700" on="1"/>
        <pt x="336" y="678" on="1"/>
        <pt x="50" y="678" on="1"/>
        <pt x="50" y="700" on="1"/>
      </contour>
      <contour>
        <pt x="336" y="22" on="1"/>
        <pt x="336" y="0" on="1"/>
        <pt x="50" y="0" on="1"/>
        <pt x="50" y="22" on="1"/>
      </contour>
      <contour>
        <pt x="193" y="787" on="1"/>
        <pt x="142" y="787" on="0"/>
        <pt x="73" y="851" on="0"/>
        <pt x="61" y="907" on="1"/>
        <pt x="83" y="909" on="1"/>
        <pt x="93" y="861" on="0"/>
        <pt x="153" y="808" on="0"/>
        <pt x="193" y="808" on="1"/>
        <pt x="232" y="808" on="0"/>
        <pt x="294" y="861" on="0"/>
        <pt x="303" y="909" on="1"/>
        <pt x="325" y="907" on="1"/>
        <pt x="314" y="851" on="0"/>
        <pt x="243" y="787" on="0"/>
      </contour>
    </TTGlyph>
    <TTGlyph name="Ibreve.ss01" xMin="22" yMin="0" xMax="286" yMax="909">
      <contour>
        <pt x="165" y="700" on="1"/>
        <pt x="165" y="0" on="1"/>
        <pt x="143" y="0" on="1"/>
        <pt x="143" y="700" on="1"/>
        <pt x="149" y="700" on="0"/>
        <pt x="159" y="700" on="0"/>
      </contour>
      <contour>
        <pt x="154" y="787" on="1"/>
        <pt x="103" y="787" on="0"/>
        <pt x="34" y="851" on="0"/>
        <pt x="22" y="907" on="1"/>
        <pt x="44" y="909" on="1"/>
        <pt x="54" y="861" on="0"/>
        <pt x="114" y="808" on="0"/>
        <pt x="154" y="808" on="1"/>
        <pt x="193" y="808" on="0"/>
        <pt x="255" y="861" on="0"/>
        <pt x="264" y="909" on="1"/>
        <pt x="286" y="907" on="1"/>
        <pt x="275" y="851" on="0"/>
        <pt x="204" y="787" on="0"/>
      </contour>
    </TTGlyph>
    <TTGlyph name="Icircumflex" xMin="50" yMin="0" xMax="336" yMax="875">
      <contour>
        <pt x="204" y="700" on="1"/>
        <pt x="204" y="0" on="1"/>
        <pt x="182" y="0" on="1"/>
        <pt x="182" y="700" on="1"/>
        <pt x="210" y="700" on="0"/>
        <pt x="176" y="700" on="0"/>
      </contour>
      <contour>
        <pt x="336" y="700" on="1"/>
        <pt x="336" y="678" on="1"/>
        <pt x="50" y="678" on="1"/>
        <pt x="50" y="700" on="1"/>
      </contour>
      <contour>
        <pt x="336" y="22" on="1"/>
        <pt x="336" y="0" on="1"/>
        <pt x="50" y="0" on="1"/>
        <pt x="50" y="22" on="1"/>
      </contour>
      <contour>
        <pt x="302" y="770" on="1"/>
        <pt x="186" y="862" on="1"/>
        <pt x="201" y="862" on="1"/>
        <pt x="84" y="770" on="1"/>
        <pt x="72" y="783" on="1"/>
        <pt x="179" y="875" on="1"/>
        <pt x="207" y="875" on="1"/>
        <pt x="314" y="783" on="1"/>
      </contour>
    </TTGlyph>
    <TTGlyph name="Icircumflex.ss01" xMin="33" yMin="0" xMax="275" yMax="875">
      <contour>
        <pt x="165" y="700" on="1"/>
        <pt x="165" y="0" on="1"/>
        <pt x="143" y="0" on="1"/>
        <pt x="143" y="700" on="1"/>
        <pt x="149" y="700" on="0"/>
        <pt x="159" y="700" on="0"/>
      </contour>
      <contour>
        <pt x="263" y="770" on="1"/>
        <pt x="147" y="862" on="1"/>
        <pt x="162" y="862" on="1"/>
        <pt x="45" y="770" on="1"/>
        <pt x="33" y="783" on="1"/>
        <pt x="140" y="875" on="1"/>
        <pt x="168" y="875" on="1"/>
        <pt x="275" y="783" on="1"/>
      </contour>
    </TTGlyph>
    <TTGlyph name="Idieresis" xMin="50" yMin="0" xMax="336" yMax="824">
      <contour>
        <pt x="204" y="700" on="1"/>
        <pt x="204" y="0" on="1"/>
        <pt x="182" y="0" on="1"/>
        <pt x="182" y="700" on="1"/>
        <pt x="210" y="700" on="0"/>
        <pt x="176" y="700" on="0"/>
      </contour>
      <contour>
        <pt x="336" y="700" on="1"/>
        <pt x="336" y="678" on="1"/>
        <pt x="50" y="678" on="1"/>
        <pt x="50" y="700" on="1"/>
      </contour>
      <contour>
        <pt x="336" y="22" on="1"/>
        <pt x="336" y="0" on="1"/>
        <pt x="50" y="0" on="1"/>
        <pt x="50" y="22" on="1"/>
      </contour>
      <contour>
        <pt x="145" y="797" on="1"/>
        <pt x="145" y="785" on="0"/>
        <pt x="132" y="770" on="0"/>
        <pt x="118" y="770" on="1"/>
        <pt x="106" y="770" on="0"/>
        <pt x="91" y="785" on="0"/>
        <pt x="91" y="797" on="1"/>
        <pt x="91" y="808" on="0"/>
        <pt x="105" y="824" on="0"/>
        <pt x="118" y="824" on="1"/>
        <pt x="132" y="824" on="0"/>
        <pt x="145" y="809" on="0"/>
      </contour>
      <contour>
        <pt x="295" y="797" on="1"/>
        <pt x="295" y="785" on="0"/>
        <pt x="282" y="770" on="0"/>
        <pt x="268" y="770" on="1"/>
        <pt x="256" y="770" on="0"/>
        <pt x="241" y="785" on="0"/>
        <pt x="241" y="797" on="1"/>
        <pt x="241" y="808" on="0"/>
        <pt x="255" y="824" on="0"/>
        <pt x="268" y="824" on="1"/>
        <pt x="282" y="824" on="0"/>
        <pt x="295" y="809" on="0"/>
      </contour>
    </TTGlyph>
    <TTGlyph name="Idieresis.ss01" xMin="52" yMin="0" xMax="256" yMax="824">
      <contour>
        <pt x="165" y="700" on="1"/>
        <pt x="165" y="0" on="1"/>
        <pt x="143" y="0" on="1"/>
        <pt x="143" y="700" on="1"/>
        <pt x="149" y="700" on="0"/>
        <pt x="159" y="700" on="0"/>
      </contour>
      <contour>
        <pt x="106" y="797" on="1"/>
        <pt x="106" y="785" on="0"/>
        <pt x="93" y="770" on="0"/>
        <pt x="79" y="770" on="1"/>
        <pt x="67" y="770" on="0"/>
        <pt x="52" y="785" on="0"/>
        <pt x="52" y="797" on="1"/>
        <pt x="52" y="808" on="0"/>
        <pt x="66" y="824" on="0"/>
        <pt x="79" y="824" on="1"/>
        <pt x="93" y="824" on="0"/>
        <pt x="106" y="809" on="0"/>
      </contour>
      <contour>
        <pt x="256" y="797" on="1"/>
        <pt x="256" y="785" on="0"/>
        <pt x="243" y="770" on="0"/>
        <pt x="229" y="770" on="1"/>
        <pt x="217" y="770" on="0"/>
        <pt x="202" y="785" on="0"/>
        <pt x="202" y="797" on="1"/>
        <pt x="202" y="808" on="0"/>
        <pt x="216" y="824" on="0"/>
        <pt x="229" y="824" on="1"/>
        <pt x="243" y="824" on="0"/>
        <pt x="256" y="809" on="0"/>
      </contour>
    </TTGlyph>
    <TTGlyph name="Idotaccent" xMin="50" yMin="0" xMax="336" yMax="828">
      <contour>
        <pt x="204" y="700" on="1"/>
        <pt x="204" y="0" on="1"/>
        <pt x="182" y="0" on="1"/>
        <pt x="182" y="700" on="1"/>
        <pt x="210" y="700" on="0"/>
        <pt x="176" y="700" on="0"/>
      </contour>
      <contour>
        <pt x="336" y="700" on="1"/>
        <pt x="336" y="678" on="1"/>
        <pt x="50" y="678" on="1"/>
        <pt x="50" y="700" on="1"/>
      </contour>
      <contour>
        <pt x="336" y="22" on="1"/>
        <pt x="336" y="0" on="1"/>
        <pt x="50" y="0" on="1"/>
        <pt x="50" y="22" on="1"/>
      </contour>
      <contour>
        <pt x="221" y="799" on="1"/>
        <pt x="221" y="786" on="0"/>
        <pt x="207" y="770" on="0"/>
        <pt x="193" y="770" on="1"/>
        <pt x="179" y="770" on="0"/>
        <pt x="165" y="786" on="0"/>
        <pt x="165" y="799" on="1"/>
        <pt x="165" y="811" on="0"/>
        <pt x="179" y="828" on="0"/>
        <pt x="193" y="828" on="1"/>
        <pt x="206" y="828" on="0"/>
        <pt x="221" y="812" on="0"/>
      </contour>
    </TTGlyph>
    <TTGlyph name="Idotaccent.ss01" xMin="126" yMin="0" xMax="182" yMax="828">
      <contour>
        <pt x="165" y="700" on="1"/>
        <pt x="165" y="0" on="1"/>
        <pt x="143" y="0" on="1"/>
        <pt x="143" y="700" on="1"/>
        <pt x="149" y="700" on="0"/>
        <pt x="159" y="700" on="0"/>
      </contour>
      <contour>
        <pt x="182" y="799" on="1"/>
        <pt x="182" y="786" on="0"/>
        <pt x="168" y="770" on="0"/>
        <pt x="154" y="770" on="1"/>
        <pt x="140" y="770" on="0"/>
        <pt x="126" y="786" on="0"/>
        <pt x="126" y="799" on="1"/>
        <pt x="126" y="811" on="0"/>
        <pt x="140" y="828" on="0"/>
        <pt x="154" y="828" on="1"/>
        <pt x="167" y="828" on="0"/>
        <pt x="182" y="812" on="0"/>
      </contour>
    </TTGlyph>
    <TTGlyph name="Igrave" xMin="50" yMin="0" xMax="336" yMax="890">
      <contour>
        <pt x="204" y="700" on="1"/>
        <pt x="204" y="0" on="1"/>
        <pt x="182" y="0" on="1"/>
        <pt x="182" y="700" on="1"/>
        <pt x="210" y="700" on="0"/>
        <pt x="176" y="700" on="0"/>
      </contour>
      <contour>
        <pt x="336" y="700" on="1"/>
        <pt x="336" y="678" on="1"/>
        <pt x="50" y="678" on="1"/>
        <pt x="50" y="700" on="1"/>
      </contour>
      <contour>
        <pt x="336" y="22" on="1"/>
        <pt x="336" y="0" on="1"/>
        <pt x="50" y="0" on="1"/>
        <pt x="50" y="22" on="1"/>
      </contour>
      <contour>
        <pt x="258" y="785" on="1"/>
        <pt x="248" y="770" on="1"/>
        <pt x="102" y="869" on="1"/>
        <pt x="116" y="890" on="1"/>
      </contour>
    </TTGlyph>
    <TTGlyph name="Igrave.ss01" xMin="76" yMin="0" xMax="232" yMax="890">
      <contour>
        <pt x="165" y="700" on="1"/>
        <pt x="165" y="0" on="1"/>
        <pt x="143" y="0" on="1"/>
        <pt x="143" y="700" on="1"/>
        <pt x="149" y="700" on="0"/>
        <pt x="159" y="700" on="0"/>
      </contour>
      <contour>
        <pt x="232" y="785" on="1"/>
        <pt x="222" y="770" on="1"/>
        <pt x="76" y="869" on="1"/>
        <pt x="90" y="890" on="1"/>
      </contour>
    </TTGlyph>
    <TTGlyph name="Imacron" xMin="50" yMin="0" xMax="336" yMax="792">
      <contour>
        <pt x="204" y="700" on="1"/>
        <pt x="204" y="0" on="1"/>
        <pt x="182" y="0" on="1"/>
        <pt x="182" y="700" on="1"/>
        <pt x="210" y="700" on="0"/>
        <pt x="176" y="700" on="0"/>
      </contour>
      <contour>
        <pt x="336" y="700" on="1"/>
        <pt x="336" y="678" on="1"/>
        <pt x="50" y="678" on="1"/>
        <pt x="50" y="700" on="1"/>
      </contour>
      <contour>
        <pt x="336" y="22" on="1"/>
        <pt x="336" y="0" on="1"/>
        <pt x="50" y="0" on="1"/>
        <pt x="50" y="22" on="1"/>
      </contour>
      <contour>
        <pt x="328" y="770" on="1"/>
        <pt x="58" y="770" on="1"/>
        <pt x="58" y="792" on="1"/>
        <pt x="328" y="792" on="1"/>
      </contour>
    </TTGlyph>
    <TTGlyph name="Imacron.ss01" xMin="18" yMin="0" xMax="288" yMax="819">
      <contour>
        <pt x="165" y="700" on="1"/>
        <pt x="165" y="0" on="1"/>
        <pt x="143" y="0" on="1"/>
        <pt x="143" y="700" on="1"/>
        <pt x="149" y="700" on="0"/>
        <pt x="159" y="700" on="0"/>
      </contour>
      <contour>
        <pt x="288" y="797" on="1"/>
        <pt x="18" y="797" on="1"/>
        <pt x="18" y="819" on="1"/>
        <pt x="288" y="819" on="1"/>
      </contour>
    </TTGlyph>
    <TTGlyph name="Iogonek" xMin="50" yMin="-230" xMax="336" yMax="700">
      <contour>
        <pt x="204" y="700" on="1"/>
        <pt x="204" y="0" on="1"/>
        <pt x="182" y="0" on="1"/>
        <pt x="182" y="700" on="1"/>
        <pt x="210" y="700" on="0"/>
        <pt x="176" y="700" on="0"/>
      </contour>
      <contour>
        <pt x="336" y="700" on="1"/>
        <pt x="336" y="678" on="1"/>
        <pt x="50" y="678" on="1"/>
        <pt x="50" y="700" on="1"/>
      </contour>
      <contour>
        <pt x="336" y="22" on="1"/>
        <pt x="336" y="0" on="1"/>
        <pt x="50" y="0" on="1"/>
        <pt x="50" y="22" on="1"/>
      </contour>
      <contour>
        <pt x="222" y="-230" on="1"/>
        <pt x="180" y="-230" on="0"/>
        <pt x="122" y="-172" on="0"/>
        <pt x="122" y="-130" on="1"/>
        <pt x="122" y="-70" on="0"/>
        <pt x="218" y="8" on="0"/>
        <pt x="277" y="18" on="1"/>
        <pt x="282" y="8" on="1"/>
        <pt x="282" y="0" on="1"/>
        <pt x="224" y="-10" on="0"/>
        <pt x="144" y="-77" on="0"/>
        <pt x="144" y="-130" on="1"/>
        <pt x="144" y="-163" on="0"/>
        <pt x="189" y="-208" on="0"/>
        <pt x="222" y="-208" on="1"/>
        <pt x="248" y="-208" on="0"/>
        <pt x="286" y="-183" on="0"/>
        <pt x="297" y="-163" on="1"/>
        <pt x="312" y="-176" on="1"/>
        <pt x="300" y="-200" on="0"/>
        <pt x="252" y="-230" on="0"/>
      </contour>
    </TTGlyph>
    <TTGlyph name="Iogonek.ss01" xMin="-21" yMin="-230" xMax="159" yMax="700">
      <contour>
        <pt x="94" y="700" on="1"/>
        <pt x="94" y="0" on="1"/>
        <pt x="72" y="0" on="1"/>
        <pt x="72" y="700" on="1"/>
        <pt x="80" y="700" on="0"/>
        <pt x="86" y="700" on="0"/>
      </contour>
      <contour>
        <pt x="74" y="-230" on="1"/>
        <pt x="32" y="-230" on="0"/>
        <pt x="-21" y="-173" on="0"/>
        <pt x="-21" y="-130" on="1"/>
        <pt x="-21" y="-90" on="0"/>
        <pt x="46" y="-9" on="0"/>
        <pt x="87" y="18" on="1"/>
        <pt x="94" y="8" on="1"/>
        <pt x="94" y="0" on="1"/>
        <pt x="54" y="-27" on="0"/>
        <pt x="1" y="-97" on="0"/>
        <pt x="1" y="-130" on="1"/>
        <pt x="1" y="-163" on="0"/>
        <pt x="43" y="-208" on="0"/>
        <pt x="74" y="-208" on="1"/>
        <pt x="98" y="-208" on="0"/>
        <pt x="133" y="-183" on="0"/>
        <pt x="144" y="-163" on="1"/>
        <pt x="159" y="-176" on="1"/>
        <pt x="147" y="-200" on="0"/>
        <pt x="102" y="-230" on="0"/>
      </contour>
    </TTGlyph>
    <TTGlyph name="Itilde" xMin="50" yMin="0" xMax="336" yMax="838">
      <contour>
        <pt x="204" y="700" on="1"/>
        <pt x="204" y="0" on="1"/>
        <pt x="182" y="0" on="1"/>
        <pt x="182" y="700" on="1"/>
        <pt x="210" y="700" on="0"/>
        <pt x="176" y="700" on="0"/>
      </contour>
      <contour>
        <pt x="336" y="700" on="1"/>
        <pt x="336" y="678" on="1"/>
        <pt x="50" y="678" on="1"/>
        <pt x="50" y="700" on="1"/>
      </contour>
      <contour>
        <pt x="336" y="22" on="1"/>
        <pt x="336" y="0" on="1"/>
        <pt x="50" y="0" on="1"/>
        <pt x="50" y="22" on="1"/>
      </contour>
      <contour>
        <pt x="82" y="771" on="1"/>
        <pt x="60" y="771" on="1"/>
        <pt x="60" y="802" on="0"/>
        <pt x="96" y="838" on="0"/>
        <pt x="118" y="838" on="1"/>
        <pt x="142" y="838" on="0"/>
        <pt x="184" y="818" on="0"/>
        <pt x="202" y="809" on="1"/>
        <pt x="208" y="806" on="0"/>
        <pt x="238" y="792" on="0"/>
        <pt x="252" y="792" on="1"/>
        <pt x="270" y="792" on="0"/>
        <pt x="302" y="813" on="0"/>
        <pt x="304" y="837" on="1"/>
        <pt x="326" y="837" on="1"/>
        <pt x="326" y="805" on="0"/>
        <pt x="282" y="770" on="0"/>
        <pt x="254" y="770" on="1"/>
        <pt x="230" y="770" on="0"/>
        <pt x="188" y="790" on="0"/>
        <pt x="172" y="798" on="1"/>
        <pt x="166" y="801" on="0"/>
        <pt x="134" y="816" on="0"/>
        <pt x="120" y="816" on="1"/>
        <pt x="106" y="816" on="0"/>
        <pt x="82" y="793" on="0"/>
      </contour>
    </TTGlyph>
    <TTGlyph name="Itilde.ss01" xMin="22" yMin="0" xMax="286" yMax="838">
      <contour>
        <pt x="165" y="700" on="1"/>
        <pt x="165" y="0" on="1"/>
        <pt x="143" y="0" on="1"/>
        <pt x="143" y="700" on="1"/>
        <pt x="149" y="700" on="0"/>
        <pt x="159" y="700" on="0"/>
      </contour>
      <contour>
        <pt x="44" y="771" on="1"/>
        <pt x="22" y="771" on="1"/>
        <pt x="22" y="802" on="0"/>
        <pt x="56" y="838" on="0"/>
        <pt x="78" y="838" on="1"/>
        <pt x="102" y="838" on="0"/>
        <pt x="144" y="818" on="0"/>
        <pt x="162" y="809" on="1"/>
        <pt x="170" y="806" on="0"/>
        <pt x="200" y="792" on="0"/>
        <pt x="212" y="792" on="1"/>
        <pt x="232" y="792" on="0"/>
        <pt x="264" y="813" on="0"/>
        <pt x="264" y="837" on="1"/>
        <pt x="286" y="837" on="1"/>
        <pt x="286" y="805" on="0"/>
        <pt x="244" y="770" on="0"/>
        <pt x="214" y="770" on="1"/>
        <pt x="190" y="770" on="0"/>
        <pt x="150" y="790" on="0"/>
        <pt x="132" y="798" on="1"/>
        <pt x="126" y="801" on="0"/>
        <pt x="96" y="816" on="0"/>
        <pt x="80" y="816" on="1"/>
        <pt x="66" y="816" on="0"/>
        <pt x="44" y="793" on="0"/>
      </contour>
    </TTGlyph>
    <TTGlyph name="J" xMin="20" yMin="-10" xMax="509" yMax="700">
      <contour>
        <pt x="209" y="-10" on="1"/>
        <pt x="140" y="-10" on="0"/>
        <pt x="44" y="60" on="0"/>
        <pt x="20" y="120" on="1"/>
        <pt x="36" y="135" on="1"/>
        <pt x="64" y="72" on="0"/>
        <pt x="151" y="12" on="0"/>
        <pt x="211" y="12" on="1"/>
        <pt x="286" y="12" on="0"/>
        <pt x="381" y="107" on="0"/>
        <pt x="381" y="213" on="1"/>
        <pt x="381" y="700" on="1"/>
        <pt x="403" y="700" on="1"/>
        <pt x="403" y="213" on="1"/>
        <pt x="403" y="97" on="0"/>
        <pt x="294" y="-10" on="0"/>
      </contour>
      <contour>
        <pt x="509" y="700" on="1"/>
        <pt x="509" y="678" on="1"/>
        <pt x="252" y="678" on="1"/>
        <pt x="252" y="700" on="1"/>
      </contour>
    </TTGlyph>
    <TTGlyph name="J.ss01" xMin="41" yMin="-10" xMax="444" yMax="700">
      <contour>
        <pt x="240" y="-10" on="1"/>
        <pt x="176" y="-10" on="0"/>
        <pt x="75" y="54" on="0"/>
        <pt x="41" y="117" on="1"/>
        <pt x="61" y="139" on="1"/>
        <pt x="88" y="77" on="0"/>
        <pt x="189" y="13" on="0"/>
        <pt x="241" y="13" on="1"/>
        <pt x="317" y="13" on="0"/>
        <pt x="416" y="125" on="0"/>
        <pt x="416" y="213" on="1"/>
        <pt x="416" y="700" on="1"/>
        <pt x="444" y="700" on="1"/>
        <pt x="444" y="213" on="1"/>
        <pt x="444" y="115" on="0"/>
        <pt x="329" y="-10" on="0"/>
      </contour>
    </TTGlyph>
    <TTGlyph name="Jacute.loclNLD" xMin="20" yMin="-10" xMax="509" yMax="890">
      <contour>
        <pt x="209" y="-10" on="1"/>
        <pt x="140" y="-10" on="0"/>
        <pt x="44" y="60" on="0"/>
        <pt x="20" y="120" on="1"/>
        <pt x="36" y="135" on="1"/>
        <pt x="64" y="72" on="0"/>
        <pt x="151" y="12" on="0"/>
        <pt x="211" y="12" on="1"/>
        <pt x="286" y="12" on="0"/>
        <pt x="381" y="107" on="0"/>
        <pt x="381" y="213" on="1"/>
        <pt x="381" y="700" on="1"/>
        <pt x="403" y="700" on="1"/>
        <pt x="403" y="213" on="1"/>
        <pt x="403" y="97" on="0"/>
        <pt x="294" y="-10" on="0"/>
      </contour>
      <contour>
        <pt x="509" y="700" on="1"/>
        <pt x="509" y="678" on="1"/>
        <pt x="252" y="678" on="1"/>
        <pt x="252" y="700" on="1"/>
      </contour>
      <contour>
        <pt x="485" y="869" on="1"/>
        <pt x="339" y="770" on="1"/>
        <pt x="329" y="785" on="1"/>
        <pt x="471" y="890" on="1"/>
      </contour>
    </TTGlyph>
    <TTGlyph name="Jcircumflex" xMin="20" yMin="-10" xMax="509" yMax="875">
      <contour>
        <pt x="209" y="-10" on="1"/>
        <pt x="140" y="-10" on="0"/>
        <pt x="44" y="60" on="0"/>
        <pt x="20" y="120" on="1"/>
        <pt x="36" y="135" on="1"/>
        <pt x="64" y="72" on="0"/>
        <pt x="151" y="12" on="0"/>
        <pt x="211" y="12" on="1"/>
        <pt x="286" y="12" on="0"/>
        <pt x="381" y="107" on="0"/>
        <pt x="381" y="213" on="1"/>
        <pt x="381" y="700" on="1"/>
        <pt x="403" y="700" on="1"/>
        <pt x="403" y="213" on="1"/>
        <pt x="403" y="97" on="0"/>
        <pt x="294" y="-10" on="0"/>
      </contour>
      <contour>
        <pt x="509" y="700" on="1"/>
        <pt x="509" y="678" on="1"/>
        <pt x="252" y="678" on="1"/>
        <pt x="252" y="700" on="1"/>
      </contour>
      <contour>
        <pt x="489" y="770" on="1"/>
        <pt x="373" y="862" on="1"/>
        <pt x="388" y="862" on="1"/>
        <pt x="271" y="770" on="1"/>
        <pt x="259" y="783" on="1"/>
        <pt x="366" y="875" on="1"/>
        <pt x="394" y="875" on="1"/>
        <pt x="501" y="783" on="1"/>
      </contour>
    </TTGlyph>
    <TTGlyph name="Jcircumflex.ss01" xMin="41" yMin="-10" xMax="547" yMax="899">
      <contour>
        <pt x="240" y="-10" on="1"/>
        <pt x="176" y="-10" on="0"/>
        <pt x="75" y="54" on="0"/>
        <pt x="41" y="117" on="1"/>
        <pt x="61" y="139" on="1"/>
        <pt x="88" y="77" on="0"/>
        <pt x="189" y="13" on="0"/>
        <pt x="241" y="13" on="1"/>
        <pt x="317" y="13" on="0"/>
        <pt x="416" y="125" on="0"/>
        <pt x="416" y="213" on="1"/>
        <pt x="416" y="700" on="1"/>
        <pt x="444" y="700" on="1"/>
        <pt x="444" y="213" on="1"/>
        <pt x="444" y="115" on="0"/>
        <pt x="329" y="-10" on="0"/>
      </contour>
      <contour>
        <pt x="535" y="794" on="1"/>
        <pt x="419" y="886" on="1"/>
        <pt x="434" y="886" on="1"/>
        <pt x="317" y="794" on="1"/>
        <pt x="305" y="807" on="1"/>
        <pt x="412" y="899" on="1"/>
        <pt x="440" y="899" on="1"/>
        <pt x="547" y="807" on="1"/>
      </contour>
    </TTGlyph>
    <TTGlyph name="K" xMin="110" yMin="0" xMax="616" yMax="700">
      <contour>
        <pt x="110" y="0" on="1"/>
        <pt x="110" y="700" on="1"/>
        <pt x="132" y="700" on="1"/>
        <pt x="132" y="0" on="1"/>
      </contour>
      <contour>
        <pt x="120" y="234" on="1"/>
        <pt x="120" y="265" on="1"/>
        <pt x="566" y="700" on="1"/>
        <pt x="598" y="700" on="1"/>
      </contour>
      <contour>
        <pt x="587" y="0" on="1"/>
        <pt x="282" y="404" on="1"/>
        <pt x="299" y="420" on="1"/>
        <pt x="616" y="0" on="1"/>
      </contour>
    </TTGlyph>
    <TTGlyph name="L" xMin="110" yMin="0" xMax="483" yMax="700">
      <contour>
        <pt x="122" y="22" on="1"/>
        <pt x="483" y="22" on="1"/>
        <pt x="483" y="0" on="1"/>
        <pt x="110" y="0" on="1"/>
        <pt x="110" y="700" on="1"/>
        <pt x="132" y="700" on="1"/>
        <pt x="132" y="13" on="1"/>
      </contour>
    </TTGlyph>
    <TTGlyph name="Lacute" xMin="92" yMin="0" xMax="483" yMax="890">
      <contour>
        <pt x="122" y="22" on="1"/>
        <pt x="483" y="22" on="1"/>
        <pt x="483" y="0" on="1"/>
        <pt x="110" y="0" on="1"/>
        <pt x="110" y="700" on="1"/>
        <pt x="132" y="700" on="1"/>
        <pt x="132" y="13" on="1"/>
      </contour>
      <contour>
        <pt x="248" y="869" on="1"/>
        <pt x="102" y="770" on="1"/>
        <pt x="92" y="785" on="1"/>
        <pt x="234" y="890" on="1"/>
      </contour>
    </TTGlyph>
    <TTGlyph name="Lcaron" xMin="110" yMin="0" xMax="483" yMax="716">
      <contour>
        <pt x="122" y="22" on="1"/>
        <pt x="483" y="22" on="1"/>
        <pt x="483" y="0" on="1"/>
        <pt x="110" y="0" on="1"/>
        <pt x="110" y="700" on="1"/>
        <pt x="132" y="700" on="1"/>
        <pt x="132" y="13" on="1"/>
      </contour>
      <contour>
        <pt x="381" y="716" on="1"/>
        <pt x="403" y="716" on="0"/>
        <pt x="427" y="685" on="0"/>
        <pt x="427" y="655" on="1"/>
        <pt x="427" y="621" on="0"/>
        <pt x="398" y="573" on="0"/>
        <pt x="363" y="540" on="1"/>
        <pt x="354" y="552" on="1"/>
        <pt x="373" y="573" on="0"/>
        <pt x="399" y="613" on="0"/>
        <pt x="399" y="626" on="1"/>
        <pt x="399" y="642" on="0"/>
        <pt x="384" y="654" on="0"/>
        <pt x="370" y="659" on="1"/>
        <pt x="362" y="662" on="0"/>
        <pt x="351" y="677" on="0"/>
        <pt x="351" y="688" on="1"/>
        <pt x="351" y="700" on="0"/>
        <pt x="366" y="716" on="0"/>
      </contour>
    </TTGlyph>
    <TTGlyph name="Ldot" xMin="110" yMin="0" xMax="483" yMax="700">
      <contour>
        <pt x="122" y="22" on="1"/>
        <pt x="483" y="22" on="1"/>
        <pt x="483" y="0" on="1"/>
        <pt x="110" y="0" on="1"/>
        <pt x="110" y="700" on="1"/>
        <pt x="132" y="700" on="1"/>
        <pt x="132" y="13" on="1"/>
      </contour>
      <contour>
        <pt x="421" y="328" on="1"/>
        <pt x="421" y="315" on="0"/>
        <pt x="405" y="297" on="0"/>
        <pt x="391" y="297" on="1"/>
        <pt x="377" y="297" on="0"/>
        <pt x="361" y="313" on="0"/>
        <pt x="361" y="328" on="1"/>
        <pt x="361" y="342" on="0"/>
        <pt x="377" y="359" on="0"/>
        <pt x="391" y="359" on="1"/>
        <pt x="405" y="359" on="0"/>
        <pt x="421" y="343" on="0"/>
      </contour>
    </TTGlyph>
    <TTGlyph name="Lslash" xMin="-9" yMin="0" xMax="465" yMax="700">
      <contour>
        <pt x="103" y="22" on="1"/>
        <pt x="465" y="22" on="1"/>
        <pt x="465" y="0" on="1"/>
        <pt x="94" y="0" on="1"/>
        <pt x="94" y="700" on="1"/>
        <pt x="116" y="700" on="1"/>
        <pt x="116" y="11" on="1"/>
      </contour>
      <contour>
        <pt x="-1" y="312" on="1"/>
        <pt x="-9" y="333" on="1"/>
        <pt x="256" y="454" on="1"/>
        <pt x="264" y="433" on="1"/>
      </contour>
    </TTGlyph>
    <TTGlyph name="M" xMin="110" yMin="0" xMax="728" yMax="700">
      <contour>
        <pt x="110" y="700" on="1"/>
        <pt x="127" y="700" on="1"/>
        <pt x="421" y="232" on="1"/>
        <pt x="418" y="232" on="1"/>
        <pt x="711" y="700" on="1"/>
        <pt x="728" y="700" on="1"/>
        <pt x="728" y="0" on="1"/>
        <pt x="706" y="0" on="1"/>
        <pt x="706" y="383" on="1"/>
        <pt x="706" y="472" on="0"/>
        <pt x="706" y="614" on="0"/>
        <pt x="709" y="684" on="1"/>
        <pt x="725" y="679" on="1"/>
        <pt x="427" y="204" on="1"/>
        <pt x="412" y="204" on="1"/>
        <pt x="119" y="672" on="1"/>
        <pt x="129" y="684" on="1"/>
        <pt x="132" y="618" on="0"/>
        <pt x="132" y="472" on="0"/>
        <pt x="132" y="383" on="1"/>
        <pt x="132" y="0" on="1"/>
        <pt x="110" y="0" on="1"/>
      </contour>
    </TTGlyph>
    <TTGlyph name="N" xMin="110" yMin="0" xMax="620" yMax="700">
      <contour>
        <pt x="598" y="241" on="1"/>
        <pt x="598" y="700" on="1"/>
        <pt x="620" y="700" on="1"/>
        <pt x="620" y="0" on="1"/>
        <pt x="600" y="0" on="1"/>
        <pt x="115" y="686" on="1"/>
        <pt x="130" y="686" on="1"/>
        <pt x="131" y="661" on="0"/>
        <pt x="133" y="525" on="0"/>
        <pt x="132" y="470" on="1"/>
        <pt x="132" y="0" on="1"/>
        <pt x="110" y="0" on="1"/>
        <pt x="110" y="700" on="1"/>
        <pt x="132" y="700" on="1"/>
        <pt x="605" y="31" on="1"/>
        <pt x="601" y="31" on="1"/>
        <pt x="601" y="75" on="0"/>
        <pt x="599" y="177" on="0"/>
      </contour>
    </TTGlyph>
    <TTGlyph name="Nacute" xMin="110" yMin="0" xMax="620" yMax="890">
      <contour>
        <pt x="598" y="241" on="1"/>
        <pt x="598" y="700" on="1"/>
        <pt x="620" y="700" on="1"/>
        <pt x="620" y="0" on="1"/>
        <pt x="600" y="0" on="1"/>
        <pt x="115" y="686" on="1"/>
        <pt x="130" y="686" on="1"/>
        <pt x="131" y="661" on="0"/>
        <pt x="133" y="525" on="0"/>
        <pt x="132" y="470" on="1"/>
        <pt x="132" y="0" on="1"/>
        <pt x="110" y="0" on="1"/>
        <pt x="110" y="700" on="1"/>
        <pt x="132" y="700" on="1"/>
        <pt x="605" y="31" on="1"/>
        <pt x="601" y="31" on="1"/>
        <pt x="601" y="75" on="0"/>
        <pt x="599" y="177" on="0"/>
      </contour>
      <contour>
        <pt x="510" y="869" on="1"/>
        <pt x="364" y="770" on="1"/>
        <pt x="354" y="785" on="1"/>
        <pt x="496" y="890" on="1"/>
      </contour>
    </TTGlyph>
    <TTGlyph name="Ncaron" xMin="110" yMin="0" xMax="620" yMax="850">
      <contour>
        <pt x="598" y="241" on="1"/>
        <pt x="598" y="700" on="1"/>
        <pt x="620" y="700" on="1"/>
        <pt x="620" y="0" on="1"/>
        <pt x="600" y="0" on="1"/>
        <pt x="115" y="686" on="1"/>
        <pt x="130" y="686" on="1"/>
        <pt x="131" y="661" on="0"/>
        <pt x="133" y="525" on="0"/>
        <pt x="132" y="470" on="1"/>
        <pt x="132" y="0" on="1"/>
        <pt x="110" y="0" on="1"/>
        <pt x="110" y="700" on="1"/>
        <pt x="132" y="700" on="1"/>
        <pt x="605" y="31" on="1"/>
        <pt x="601" y="31" on="1"/>
        <pt x="601" y="75" on="0"/>
        <pt x="599" y="177" on="0"/>
      </contour>
      <contour>
        <pt x="474" y="850" on="1"/>
        <pt x="358" y="758" on="1"/>
        <pt x="373" y="758" on="1"/>
        <pt x="256" y="850" on="1"/>
        <pt x="244" y="837" on="1"/>
        <pt x="351" y="745" on="1"/>
        <pt x="379" y="745" on="1"/>
        <pt x="486" y="837" on="1"/>
      </contour>
    </TTGlyph>
    <TTGlyph name="Ntilde" xMin="110" yMin="0" xMax="620" yMax="838">
      <contour>
        <pt x="598" y="241" on="1"/>
        <pt x="598" y="700" on="1"/>
        <pt x="620" y="700" on="1"/>
        <pt x="620" y="0" on="1"/>
        <pt x="600" y="0" on="1"/>
        <pt x="115" y="686" on="1"/>
        <pt x="130" y="686" on="1"/>
        <pt x="131" y="661" on="0"/>
        <pt x="133" y="525" on="0"/>
        <pt x="132" y="470" on="1"/>
        <pt x="132" y="0" on="1"/>
        <pt x="110" y="0" on="1"/>
        <pt x="110" y="700" on="1"/>
        <pt x="132" y="700" on="1"/>
        <pt x="605" y="31" on="1"/>
        <pt x="601" y="31" on="1"/>
        <pt x="601" y="75" on="0"/>
        <pt x="599" y="177" on="0"/>
      </contour>
      <contour>
        <pt x="260" y="771" on="1"/>
        <pt x="238" y="771" on="1"/>
        <pt x="238" y="802" on="0"/>
        <pt x="273" y="838" on="0"/>
        <pt x="295" y="838" on="1"/>
        <pt x="319" y="838" on="0"/>
        <pt x="361" y="818" on="0"/>
        <pt x="379" y="809" on="1"/>
        <pt x="386" y="806" on="0"/>
        <pt x="416" y="792" on="0"/>
        <pt x="429" y="792" on="1"/>
        <pt x="448" y="792" on="0"/>
        <pt x="480" y="813" on="0"/>
        <pt x="481" y="837" on="1"/>
        <pt x="503" y="837" on="1"/>
        <pt x="503" y="805" on="0"/>
        <pt x="460" y="770" on="0"/>
        <pt x="431" y="770" on="1"/>
        <pt x="407" y="770" on="0"/>
        <pt x="366" y="790" on="0"/>
        <pt x="349" y="798" on="1"/>
        <pt x="343" y="801" on="0"/>
        <pt x="312" y="816" on="0"/>
        <pt x="297" y="816" on="1"/>
        <pt x="283" y="816" on="0"/>
        <pt x="260" y="793" on="0"/>
      </contour>
    </TTGlyph>
    <TTGlyph name="O" xMin="55" yMin="-10" xMax="743" yMax="710">
      <contour>
        <pt x="399" y="710" on="1"/>
        <pt x="550" y="710" on="0"/>
        <pt x="743" y="508" on="0"/>
        <pt x="743" y="349" on="1"/>
        <pt x="743" y="191" on="0"/>
        <pt x="550" y="-10" on="0"/>
        <pt x="399" y="-10" on="1"/>
        <pt x="248" y="-10" on="0"/>
        <pt x="55" y="191" on="0"/>
        <pt x="55" y="349" on="1"/>
        <pt x="55" y="507" on="0"/>
        <pt x="248" y="710" on="0"/>
      </contour>
      <contour>
        <pt x="399" y="12" on="1"/>
        <pt x="539" y="12" on="0"/>
        <pt x="720" y="202" on="0"/>
        <pt x="720" y="349" on="1"/>
        <pt x="720" y="496" on="0"/>
        <pt x="539" y="688" on="0"/>
        <pt x="399" y="688" on="1"/>
        <pt x="260" y="688" on="0"/>
        <pt x="78" y="496" on="0"/>
        <pt x="78" y="349" on="1"/>
        <pt x="78" y="202" on="0"/>
        <pt x="260" y="12" on="0"/>
      </contour>
    </TTGlyph>
    <TTGlyph name="OE" xMin="55" yMin="0" xMax="937" yMax="700">
      <contour>
        <pt x="55" y="350" on="1"/>
        <pt x="55" y="502" on="0"/>
        <pt x="247" y="700" on="0"/>
        <pt x="371" y="700" on="1"/>
        <pt x="937" y="700" on="1"/>
        <pt x="937" y="678" on="1"/>
        <pt x="560" y="678" on="1"/>
        <pt x="568" y="688" on="1"/>
        <pt x="568" y="355" on="1"/>
        <pt x="556" y="373" on="1"/>
        <pt x="879" y="373" on="1"/>
        <pt x="879" y="351" on="1"/>
        <pt x="555" y="351" on="1"/>
        <pt x="568" y="366" on="1"/>
        <pt x="568" y="13" on="1"/>
        <pt x="561" y="22" on="1"/>
        <pt x="931" y="22" on="1"/>
        <pt x="931" y="0" on="1"/>
        <pt x="380" y="0" on="1"/>
        <pt x="253" y="0" on="0"/>
        <pt x="55" y="199" on="0"/>
      </contour>
      <contour>
        <pt x="554" y="22" on="1"/>
        <pt x="546" y="13" on="1"/>
        <pt x="546" y="688" on="1"/>
        <pt x="555" y="678" on="1"/>
        <pt x="377" y="678" on="1"/>
        <pt x="262" y="678" on="0"/>
        <pt x="78" y="490" on="0"/>
        <pt x="78" y="350" on="1"/>
        <pt x="78" y="211" on="0"/>
        <pt x="267" y="22" on="0"/>
        <pt x="386" y="22" on="1"/>
      </contour>
    </TTGlyph>
    <TTGlyph name="Oacute" xMin="55" yMin="-10" xMax="743" yMax="890">
      <contour>
        <pt x="399" y="710" on="1"/>
        <pt x="550" y="710" on="0"/>
        <pt x="743" y="508" on="0"/>
        <pt x="743" y="349" on="1"/>
        <pt x="743" y="191" on="0"/>
        <pt x="550" y="-10" on="0"/>
        <pt x="399" y="-10" on="1"/>
        <pt x="248" y="-10" on="0"/>
        <pt x="55" y="191" on="0"/>
        <pt x="55" y="349" on="1"/>
        <pt x="55" y="507" on="0"/>
        <pt x="248" y="710" on="0"/>
      </contour>
      <contour>
        <pt x="399" y="12" on="1"/>
        <pt x="539" y="12" on="0"/>
        <pt x="720" y="202" on="0"/>
        <pt x="720" y="349" on="1"/>
        <pt x="720" y="496" on="0"/>
        <pt x="539" y="688" on="0"/>
        <pt x="399" y="688" on="1"/>
        <pt x="260" y="688" on="0"/>
        <pt x="78" y="496" on="0"/>
        <pt x="78" y="349" on="1"/>
        <pt x="78" y="202" on="0"/>
        <pt x="260" y="12" on="0"/>
      </contour>
      <contour>
        <pt x="502" y="869" on="1"/>
        <pt x="356" y="770" on="1"/>
        <pt x="346" y="785" on="1"/>
        <pt x="488" y="890" on="1"/>
      </contour>
    </TTGlyph>
    <TTGlyph name="Obreve" xMin="55" yMin="-10" xMax="743" yMax="909">
      <contour>
        <pt x="399" y="710" on="1"/>
        <pt x="550" y="710" on="0"/>
        <pt x="743" y="508" on="0"/>
        <pt x="743" y="349" on="1"/>
        <pt x="743" y="191" on="0"/>
        <pt x="550" y="-10" on="0"/>
        <pt x="399" y="-10" on="1"/>
        <pt x="248" y="-10" on="0"/>
        <pt x="55" y="191" on="0"/>
        <pt x="55" y="349" on="1"/>
        <pt x="55" y="507" on="0"/>
        <pt x="248" y="710" on="0"/>
      </contour>
      <contour>
        <pt x="399" y="12" on="1"/>
        <pt x="539" y="12" on="0"/>
        <pt x="720" y="202" on="0"/>
        <pt x="720" y="349" on="1"/>
        <pt x="720" y="496" on="0"/>
        <pt x="539" y="688" on="0"/>
        <pt x="399" y="688" on="1"/>
        <pt x="260" y="688" on="0"/>
        <pt x="78" y="496" on="0"/>
        <pt x="78" y="349" on="1"/>
        <pt x="78" y="202" on="0"/>
        <pt x="260" y="12" on="0"/>
      </contour>
      <contour>
        <pt x="403" y="787" on="1"/>
        <pt x="352" y="787" on="0"/>
        <pt x="283" y="851" on="0"/>
        <pt x="271" y="907" on="1"/>
        <pt x="293" y="909" on="1"/>
        <pt x="303" y="861" on="0"/>
        <pt x="363" y="808" on="0"/>
        <pt x="403" y="808" on="1"/>
        <pt x="442" y="808" on="0"/>
        <pt x="504" y="861" on="0"/>
        <pt x="513" y="909" on="1"/>
        <pt x="535" y="907" on="1"/>
        <pt x="524" y="851" on="0"/>
        <pt x="453" y="787" on="0"/>
      </contour>
    </TTGlyph>
    <TTGlyph name="Ocircumflex" xMin="55" yMin="-10" xMax="743" yMax="875">
      <contour>
        <pt x="399" y="710" on="1"/>
        <pt x="550" y="710" on="0"/>
        <pt x="743" y="508" on="0"/>
        <pt x="743" y="349" on="1"/>
        <pt x="743" y="191" on="0"/>
        <pt x="550" y="-10" on="0"/>
        <pt x="399" y="-10" on="1"/>
        <pt x="248" y="-10" on="0"/>
        <pt x="55" y="191" on="0"/>
        <pt x="55" y="349" on="1"/>
        <pt x="55" y="507" on="0"/>
        <pt x="248" y="710" on="0"/>
      </contour>
      <contour>
        <pt x="399" y="12" on="1"/>
        <pt x="539" y="12" on="0"/>
        <pt x="720" y="202" on="0"/>
        <pt x="720" y="349" on="1"/>
        <pt x="720" y="496" on="0"/>
        <pt x="539" y="688" on="0"/>
        <pt x="399" y="688" on="1"/>
        <pt x="260" y="688" on="0"/>
        <pt x="78" y="496" on="0"/>
        <pt x="78" y="349" on="1"/>
        <pt x="78" y="202" on="0"/>
        <pt x="260" y="12" on="0"/>
      </contour>
      <contour>
        <pt x="512" y="770" on="1"/>
        <pt x="396" y="862" on="1"/>
        <pt x="411" y="862" on="1"/>
        <pt x="294" y="770" on="1"/>
        <pt x="282" y="783" on="1"/>
        <pt x="389" y="875" on="1"/>
        <pt x="417" y="875" on="1"/>
        <pt x="524" y="783" on="1"/>
      </contour>
    </TTGlyph>
    <TTGlyph name="Odieresis" xMin="55" yMin="-10" xMax="743" yMax="824">
      <contour>
        <pt x="399" y="710" on="1"/>
        <pt x="550" y="710" on="0"/>
        <pt x="743" y="508" on="0"/>
        <pt x="743" y="349" on="1"/>
        <pt x="743" y="191" on="0"/>
        <pt x="550" y="-10" on="0"/>
        <pt x="399" y="-10" on="1"/>
        <pt x="248" y="-10" on="0"/>
        <pt x="55" y="191" on="0"/>
        <pt x="55" y="349" on="1"/>
        <pt x="55" y="507" on="0"/>
        <pt x="248" y="710" on="0"/>
      </contour>
      <contour>
        <pt x="399" y="12" on="1"/>
        <pt x="539" y="12" on="0"/>
        <pt x="720" y="202" on="0"/>
        <pt x="720" y="349" on="1"/>
        <pt x="720" y="496" on="0"/>
        <pt x="539" y="688" on="0"/>
        <pt x="399" y="688" on="1"/>
        <pt x="260" y="688" on="0"/>
        <pt x="78" y="496" on="0"/>
        <pt x="78" y="349" on="1"/>
        <pt x="78" y="202" on="0"/>
        <pt x="260" y="12" on="0"/>
      </contour>
      <contour>
        <pt x="355" y="797" on="1"/>
        <pt x="355" y="785" on="0"/>
        <pt x="342" y="770" on="0"/>
        <pt x="328" y="770" on="1"/>
        <pt x="316" y="770" on="0"/>
        <pt x="301" y="785" on="0"/>
        <pt x="301" y="797" on="1"/>
        <pt x="301" y="808" on="0"/>
        <pt x="315" y="824" on="0"/>
        <pt x="328" y="824" on="1"/>
        <pt x="342" y="824" on="0"/>
        <pt x="355" y="809" on="0"/>
      </contour>
      <contour>
        <pt x="505" y="797" on="1"/>
        <pt x="505" y="785" on="0"/>
        <pt x="492" y="770" on="0"/>
        <pt x="478" y="770" on="1"/>
        <pt x="466" y="770" on="0"/>
        <pt x="451" y="785" on="0"/>
        <pt x="451" y="797" on="1"/>
        <pt x="451" y="808" on="0"/>
        <pt x="465" y="824" on="0"/>
        <pt x="478" y="824" on="1"/>
        <pt x="492" y="824" on="0"/>
        <pt x="505" y="809" on="0"/>
      </contour>
    </TTGlyph>
    <TTGlyph name="Ograve" xMin="55" yMin="-10" xMax="743" yMax="890">
      <contour>
        <pt x="399" y="710" on="1"/>
        <pt x="550" y="710" on="0"/>
        <pt x="743" y="508" on="0"/>
        <pt x="743" y="349" on="1"/>
        <pt x="743" y="191" on="0"/>
        <pt x="550" y="-10" on="0"/>
        <pt x="399" y="-10" on="1"/>
        <pt x="248" y="-10" on="0"/>
        <pt x="55" y="191" on="0"/>
        <pt x="55" y="349" on="1"/>
        <pt x="55" y="507" on="0"/>
        <pt x="248" y="710" on="0"/>
      </contour>
      <contour>
        <pt x="399" y="12" on="1"/>
        <pt x="539" y="12" on="0"/>
        <pt x="720" y="202" on="0"/>
        <pt x="720" y="349" on="1"/>
        <pt x="720" y="496" on="0"/>
        <pt x="539" y="688" on="0"/>
        <pt x="399" y="688" on="1"/>
        <pt x="260" y="688" on="0"/>
        <pt x="78" y="496" on="0"/>
        <pt x="78" y="349" on="1"/>
        <pt x="78" y="202" on="0"/>
        <pt x="260" y="12" on="0"/>
      </contour>
      <contour>
        <pt x="452" y="785" on="1"/>
        <pt x="442" y="770" on="1"/>
        <pt x="296" y="869" on="1"/>
        <pt x="310" y="890" on="1"/>
      </contour>
    </TTGlyph>
    <TTGlyph name="Ohorn" xMin="55" yMin="-10" xMax="743" yMax="799">
      <contour>
        <pt x="399" y="710" on="1"/>
        <pt x="550" y="710" on="0"/>
        <pt x="743" y="508" on="0"/>
        <pt x="743" y="349" on="1"/>
        <pt x="743" y="191" on="0"/>
        <pt x="550" y="-10" on="0"/>
        <pt x="399" y="-10" on="1"/>
        <pt x="248" y="-10" on="0"/>
        <pt x="55" y="191" on="0"/>
        <pt x="55" y="349" on="1"/>
        <pt x="55" y="507" on="0"/>
        <pt x="248" y="710" on="0"/>
      </contour>
      <contour>
        <pt x="399" y="12" on="1"/>
        <pt x="539" y="12" on="0"/>
        <pt x="720" y="202" on="0"/>
        <pt x="720" y="349" on="1"/>
        <pt x="720" y="496" on="0"/>
        <pt x="539" y="688" on="0"/>
        <pt x="399" y="688" on="1"/>
        <pt x="260" y="688" on="0"/>
        <pt x="78" y="496" on="0"/>
        <pt x="78" y="349" on="1"/>
        <pt x="78" y="202" on="0"/>
        <pt x="260" y="12" on="0"/>
      </contour>
      <contour>
        <pt x="489" y="679" on="1"/>
        <pt x="489" y="700" on="1"/>
        <pt x="538" y="700" on="0"/>
        <pt x="585" y="749" on="0"/>
        <pt x="585" y="799" on="1"/>
        <pt x="607" y="799" on="1"/>
        <pt x="607" y="744" on="0"/>
        <pt x="545" y="679" on="0"/>
      </contour>
    </TTGlyph>
    <TTGlyph name="Ohungarumlaut" xMin="55" yMin="-10" xMax="743" yMax="880">
      <contour>
        <pt x="399" y="710" on="1"/>
        <pt x="550" y="710" on="0"/>
        <pt x="743" y="508" on="0"/>
        <pt x="743" y="349" on="1"/>
        <pt x="743" y="191" on="0"/>
        <pt x="550" y="-10" on="0"/>
        <pt x="399" y="-10" on="1"/>
        <pt x="248" y="-10" on="0"/>
        <pt x="55" y="191" on="0"/>
        <pt x="55" y="349" on="1"/>
        <pt x="55" y="507" on="0"/>
        <pt x="248" y="710" on="0"/>
      </contour>
      <contour>
        <pt x="399" y="12" on="1"/>
        <pt x="539" y="12" on="0"/>
        <pt x="720" y="202" on="0"/>
        <pt x="720" y="349" on="1"/>
        <pt x="720" y="496" on="0"/>
        <pt x="539" y="688" on="0"/>
        <pt x="399" y="688" on="1"/>
        <pt x="260" y="688" on="0"/>
        <pt x="78" y="496" on="0"/>
        <pt x="78" y="349" on="1"/>
        <pt x="78" y="202" on="0"/>
        <pt x="260" y="12" on="0"/>
      </contour>
      <contour>
        <pt x="465" y="859" on="1"/>
        <pt x="321" y="755" on="1"/>
        <pt x="311" y="770" on="1"/>
        <pt x="451" y="880" on="1"/>
      </contour>
      <contour>
        <pt x="585" y="859" on="1"/>
        <pt x="441" y="755" on="1"/>
        <pt x="431" y="770" on="1"/>
        <pt x="571" y="880" on="1"/>
      </contour>
    </TTGlyph>
    <TTGlyph name="Omacron" xMin="55" yMin="-10" xMax="743" yMax="792">
      <contour>
        <pt x="399" y="710" on="1"/>
        <pt x="550" y="710" on="0"/>
        <pt x="743" y="508" on="0"/>
        <pt x="743" y="349" on="1"/>
        <pt x="743" y="191" on="0"/>
        <pt x="550" y="-10" on="0"/>
        <pt x="399" y="-10" on="1"/>
        <pt x="248" y="-10" on="0"/>
        <pt x="55" y="191" on="0"/>
        <pt x="55" y="349" on="1"/>
        <pt x="55" y="507" on="0"/>
        <pt x="248" y="710" on="0"/>
      </contour>
      <contour>
        <pt x="399" y="12" on="1"/>
        <pt x="539" y="12" on="0"/>
        <pt x="720" y="202" on="0"/>
        <pt x="720" y="349" on="1"/>
        <pt x="720" y="496" on="0"/>
        <pt x="539" y="688" on="0"/>
        <pt x="399" y="688" on="1"/>
        <pt x="260" y="688" on="0"/>
        <pt x="78" y="496" on="0"/>
        <pt x="78" y="349" on="1"/>
        <pt x="78" y="202" on="0"/>
        <pt x="260" y="12" on="0"/>
      </contour>
      <contour>
        <pt x="538" y="770" on="1"/>
        <pt x="268" y="770" on="1"/>
        <pt x="268" y="792" on="1"/>
        <pt x="538" y="792" on="1"/>
      </contour>
    </TTGlyph>
    <TTGlyph name="Oslash" xMin="55" yMin="-18" xMax="743" yMax="718">
      <contour>
        <pt x="114" y="-18" on="1"/>
        <pt x="95" y="-4" on="1"/>
        <pt x="684" y="718" on="1"/>
        <pt x="703" y="704" on="1"/>
      </contour>
      <contour>
        <pt x="399" y="710" on="1"/>
        <pt x="550" y="710" on="0"/>
        <pt x="743" y="508" on="0"/>
        <pt x="743" y="349" on="1"/>
        <pt x="743" y="191" on="0"/>
        <pt x="550" y="-10" on="0"/>
        <pt x="399" y="-10" on="1"/>
        <pt x="248" y="-10" on="0"/>
        <pt x="55" y="191" on="0"/>
        <pt x="55" y="349" on="1"/>
        <pt x="55" y="507" on="0"/>
        <pt x="248" y="710" on="0"/>
      </contour>
      <contour>
        <pt x="399" y="12" on="1"/>
        <pt x="539" y="12" on="0"/>
        <pt x="720" y="202" on="0"/>
        <pt x="720" y="349" on="1"/>
        <pt x="720" y="496" on="0"/>
        <pt x="539" y="688" on="0"/>
        <pt x="399" y="688" on="1"/>
        <pt x="260" y="688" on="0"/>
        <pt x="78" y="496" on="0"/>
        <pt x="78" y="349" on="1"/>
        <pt x="78" y="202" on="0"/>
        <pt x="260" y="12" on="0"/>
      </contour>
    </TTGlyph>
    <TTGlyph name="Oslashacute" xMin="55" yMin="-18" xMax="743" yMax="890">
      <contour>
        <pt x="114" y="-18" on="1"/>
        <pt x="95" y="-4" on="1"/>
        <pt x="684" y="718" on="1"/>
        <pt x="703" y="704" on="1"/>
      </contour>
      <contour>
        <pt x="399" y="710" on="1"/>
        <pt x="550" y="710" on="0"/>
        <pt x="743" y="508" on="0"/>
        <pt x="743" y="349" on="1"/>
        <pt x="743" y="191" on="0"/>
        <pt x="550" y="-10" on="0"/>
        <pt x="399" y="-10" on="1"/>
        <pt x="248" y="-10" on="0"/>
        <pt x="55" y="191" on="0"/>
        <pt x="55" y="349" on="1"/>
        <pt x="55" y="507" on="0"/>
        <pt x="248" y="710" on="0"/>
      </contour>
      <contour>
        <pt x="399" y="12" on="1"/>
        <pt x="539" y="12" on="0"/>
        <pt x="720" y="202" on="0"/>
        <pt x="720" y="349" on="1"/>
        <pt x="720" y="496" on="0"/>
        <pt x="539" y="688" on="0"/>
        <pt x="399" y="688" on="1"/>
        <pt x="260" y="688" on="0"/>
        <pt x="78" y="496" on="0"/>
        <pt x="78" y="349" on="1"/>
        <pt x="78" y="202" on="0"/>
        <pt x="260" y="12" on="0"/>
      </contour>
      <contour>
        <pt x="502" y="869" on="1"/>
        <pt x="356" y="770" on="1"/>
        <pt x="346" y="785" on="1"/>
        <pt x="488" y="890" on="1"/>
      </contour>
    </TTGlyph>
    <TTGlyph name="Otilde" xMin="55" yMin="-10" xMax="743" yMax="838">
      <contour>
        <pt x="399" y="710" on="1"/>
        <pt x="550" y="710" on="0"/>
        <pt x="743" y="508" on="0"/>
        <pt x="743" y="349" on="1"/>
        <pt x="743" y="191" on="0"/>
        <pt x="550" y="-10" on="0"/>
        <pt x="399" y="-10" on="1"/>
        <pt x="248" y="-10" on="0"/>
        <pt x="55" y="191" on="0"/>
        <pt x="55" y="349" on="1"/>
        <pt x="55" y="507" on="0"/>
        <pt x="248" y="710" on="0"/>
      </contour>
      <contour>
        <pt x="399" y="12" on="1"/>
        <pt x="539" y="12" on="0"/>
        <pt x="720" y="202" on="0"/>
        <pt x="720" y="349" on="1"/>
        <pt x="720" y="496" on="0"/>
        <pt x="539" y="688" on="0"/>
        <pt x="399" y="688" on="1"/>
        <pt x="260" y="688" on="0"/>
        <pt x="78" y="496" on="0"/>
        <pt x="78" y="349" on="1"/>
        <pt x="78" y="202" on="0"/>
        <pt x="260" y="12" on="0"/>
      </contour>
      <contour>
        <pt x="292" y="771" on="1"/>
        <pt x="270" y="771" on="1"/>
        <pt x="270" y="802" on="0"/>
        <pt x="306" y="838" on="0"/>
        <pt x="328" y="838" on="1"/>
        <pt x="352" y="838" on="0"/>
        <pt x="394" y="818" on="0"/>
        <pt x="412" y="809" on="1"/>
        <pt x="418" y="806" on="0"/>
        <pt x="448" y="792" on="0"/>
        <pt x="462" y="792" on="1"/>
        <pt x="480" y="792" on="0"/>
        <pt x="512" y="813" on="0"/>
        <pt x="514" y="837" on="1"/>
        <pt x="536" y="837" on="1"/>
        <pt x="536" y="805" on="0"/>
        <pt x="492" y="770" on="0"/>
        <pt x="464" y="770" on="1"/>
        <pt x="440" y="770" on="0"/>
        <pt x="398" y="790" on="0"/>
        <pt x="382" y="798" on="1"/>
        <pt x="376" y="801" on="0"/>
        <pt x="344" y="816" on="0"/>
        <pt x="330" y="816" on="1"/>
        <pt x="316" y="816" on="0"/>
        <pt x="292" y="793" on="0"/>
      </contour>
    </TTGlyph>
    <TTGlyph name="P" xMin="110" yMin="0" xMax="545" yMax="700">
      <contour>
        <pt x="110" y="700" on="1"/>
        <pt x="361" y="700" on="1"/>
        <pt x="444" y="700" on="0"/>
        <pt x="545" y="593" on="0"/>
        <pt x="545" y="507" on="1"/>
        <pt x="545" y="411" on="0"/>
        <pt x="444" y="291" on="0"/>
        <pt x="361" y="291" on="1"/>
        <pt x="118" y="291" on="1"/>
        <pt x="132" y="300" on="1"/>
        <pt x="132" y="0" on="1"/>
        <pt x="110" y="0" on="1"/>
      </contour>
      <contour>
        <pt x="117" y="313" on="1"/>
        <pt x="367" y="313" on="1"/>
        <pt x="437" y="313" on="0"/>
        <pt x="522" y="421" on="0"/>
        <pt x="522" y="507" on="1"/>
        <pt x="522" y="582" on="0"/>
        <pt x="437" y="678" on="0"/>
        <pt x="367" y="678" on="1"/>
        <pt x="119" y="678" on="1"/>
        <pt x="132" y="690" on="1"/>
        <pt x="132" y="305" on="1"/>
      </contour>
    </TTGlyph>
    <TTGlyph name="Q" xMin="55" yMin="-78" xMax="743" yMax="710">
      <contour>
        <pt x="399" y="710" on="1"/>
        <pt x="550" y="710" on="0"/>
        <pt x="743" y="508" on="0"/>
        <pt x="743" y="349" on="1"/>
        <pt x="743" y="191" on="0"/>
        <pt x="550" y="-10" on="0"/>
        <pt x="399" y="-10" on="1"/>
        <pt x="248" y="-10" on="0"/>
        <pt x="55" y="191" on="0"/>
        <pt x="55" y="349" on="1"/>
        <pt x="55" y="507" on="0"/>
        <pt x="248" y="710" on="0"/>
      </contour>
      <contour>
        <pt x="399" y="12" on="1"/>
        <pt x="539" y="12" on="0"/>
        <pt x="720" y="202" on="0"/>
        <pt x="720" y="349" on="1"/>
        <pt x="720" y="496" on="0"/>
        <pt x="539" y="688" on="0"/>
        <pt x="399" y="688" on="1"/>
        <pt x="260" y="688" on="0"/>
        <pt x="78" y="496" on="0"/>
        <pt x="78" y="349" on="1"/>
        <pt x="78" y="202" on="0"/>
        <pt x="260" y="12" on="0"/>
      </contour>
      <contour>
        <pt x="416" y="272" on="1"/>
        <pt x="669" y="-65" on="1"/>
        <pt x="652" y="-78" on="1"/>
        <pt x="398" y="260" on="1"/>
      </contour>
    </TTGlyph>
    <TTGlyph name="R" xMin="110" yMin="0" xMax="569" yMax="700">
      <contour>
        <pt x="545" y="507" on="1"/>
        <pt x="545" y="411" on="0"/>
        <pt x="444" y="291" on="0"/>
        <pt x="361" y="291" on="1"/>
        <pt x="121" y="291" on="1"/>
        <pt x="121" y="313" on="1"/>
        <pt x="367" y="313" on="1"/>
        <pt x="437" y="313" on="0"/>
        <pt x="522" y="421" on="0"/>
        <pt x="522" y="507" on="1"/>
        <pt x="522" y="582" on="0"/>
        <pt x="437" y="678" on="0"/>
        <pt x="367" y="678" on="1"/>
        <pt x="119" y="678" on="1"/>
        <pt x="132" y="690" on="1"/>
        <pt x="132" y="0" on="1"/>
        <pt x="110" y="0" on="1"/>
        <pt x="110" y="700" on="1"/>
        <pt x="361" y="700" on="1"/>
        <pt x="444" y="700" on="0"/>
        <pt x="545" y="593" on="0"/>
      </contour>
      <contour>
        <pt x="368" y="298" on="1"/>
        <pt x="391" y="305" on="1"/>
        <pt x="569" y="0" on="1"/>
        <pt x="543" y="0" on="1"/>
      </contour>
    </TTGlyph>
    <TTGlyph name="Racute" xMin="110" yMin="0" xMax="569" yMax="890">
      <contour>
        <pt x="545" y="507" on="1"/>
        <pt x="545" y="411" on="0"/>
        <pt x="444" y="291" on="0"/>
        <pt x="361" y="291" on="1"/>
        <pt x="121" y="291" on="1"/>
        <pt x="121" y="313" on="1"/>
        <pt x="367" y="313" on="1"/>
        <pt x="437" y="313" on="0"/>
        <pt x="522" y="421" on="0"/>
        <pt x="522" y="507" on="1"/>
        <pt x="522" y="582" on="0"/>
        <pt x="437" y="678" on="0"/>
        <pt x="367" y="678" on="1"/>
        <pt x="119" y="678" on="1"/>
        <pt x="132" y="690" on="1"/>
        <pt x="132" y="0" on="1"/>
        <pt x="110" y="0" on="1"/>
        <pt x="110" y="700" on="1"/>
        <pt x="361" y="700" on="1"/>
        <pt x="444" y="700" on="0"/>
        <pt x="545" y="593" on="0"/>
      </contour>
      <contour>
        <pt x="368" y="298" on="1"/>
        <pt x="391" y="305" on="1"/>
        <pt x="569" y="0" on="1"/>
        <pt x="543" y="0" on="1"/>
      </contour>
      <contour>
        <pt x="418" y="869" on="1"/>
        <pt x="272" y="770" on="1"/>
        <pt x="262" y="785" on="1"/>
        <pt x="404" y="890" on="1"/>
      </contour>
    </TTGlyph>
    <TTGlyph name="Rcaron" xMin="110" yMin="0" xMax="569" yMax="850">
      <contour>
        <pt x="545" y="507" on="1"/>
        <pt x="545" y="411" on="0"/>
        <pt x="444" y="291" on="0"/>
        <pt x="361" y="291" on="1"/>
        <pt x="121" y="291" on="1"/>
        <pt x="121" y="313" on="1"/>
        <pt x="367" y="313" on="1"/>
        <pt x="437" y="313" on="0"/>
        <pt x="522" y="421" on="0"/>
        <pt x="522" y="507" on="1"/>
        <pt x="522" y="582" on="0"/>
        <pt x="437" y="678" on="0"/>
        <pt x="367" y="678" on="1"/>
        <pt x="119" y="678" on="1"/>
        <pt x="132" y="690" on="1"/>
        <pt x="132" y="0" on="1"/>
        <pt x="110" y="0" on="1"/>
        <pt x="110" y="700" on="1"/>
        <pt x="361" y="700" on="1"/>
        <pt x="444" y="700" on="0"/>
        <pt x="545" y="593" on="0"/>
      </contour>
      <contour>
        <pt x="368" y="298" on="1"/>
        <pt x="391" y="305" on="1"/>
        <pt x="569" y="0" on="1"/>
        <pt x="543" y="0" on="1"/>
      </contour>
      <contour>
        <pt x="404" y="850" on="1"/>
        <pt x="288" y="758" on="1"/>
        <pt x="303" y="758" on="1"/>
        <pt x="186" y="850" on="1"/>
        <pt x="174" y="837" on="1"/>
        <pt x="281" y="745" on="1"/>
        <pt x="309" y="745" on="1"/>
        <pt x="416" y="837" on="1"/>
      </contour>
    </TTGlyph>
    <TTGlyph name="S" xMin="43" yMin="-10" xMax="527" yMax="710">
      <contour>
        <pt x="43" y="115" on="1"/>
        <pt x="61" y="131" on="1"/>
        <pt x="99" y="72" on="0"/>
        <pt x="221" y="12" on="0"/>
        <pt x="303" y="12" on="1"/>
        <pt x="387" y="12" on="0"/>
        <pt x="504" y="102" on="0"/>
        <pt x="504" y="172" on="1"/>
        <pt x="504" y="244" on="0"/>
        <pt x="370" y="312" on="0"/>
        <pt x="264" y="342" on="1"/>
        <pt x="170" y="368" on="0"/>
        <pt x="65" y="451" on="0"/>
        <pt x="65" y="526" on="1"/>
        <pt x="65" y="605" on="0"/>
        <pt x="196" y="710" on="0"/>
        <pt x="292" y="710" on="1"/>
        <pt x="373" y="710" on="0"/>
        <pt x="477" y="658" on="0"/>
        <pt x="511" y="611" on="1"/>
        <pt x="494" y="596" on="1"/>
        <pt x="461" y="640" on="0"/>
        <pt x="366" y="688" on="0"/>
        <pt x="292" y="688" on="1"/>
        <pt x="206" y="688" on="0"/>
        <pt x="88" y="597" on="0"/>
        <pt x="88" y="526" on="1"/>
        <pt x="88" y="458" on="0"/>
        <pt x="188" y="385" on="0"/>
        <pt x="272" y="363" on="1"/>
        <pt x="391" y="333" on="0"/>
        <pt x="527" y="251" on="0"/>
        <pt x="527" y="172" on="1"/>
        <pt x="527" y="94" on="0"/>
        <pt x="398" y="-10" on="0"/>
        <pt x="303" y="-10" on="1"/>
        <pt x="214" y="-10" on="0"/>
        <pt x="83" y="55" on="0"/>
      </contour>
    </TTGlyph>
    <TTGlyph name="Sacute" xMin="43" yMin="-10" xMax="527" yMax="890">
      <contour>
        <pt x="43" y="115" on="1"/>
        <pt x="61" y="131" on="1"/>
        <pt x="99" y="72" on="0"/>
        <pt x="221" y="12" on="0"/>
        <pt x="303" y="12" on="1"/>
        <pt x="387" y="12" on="0"/>
        <pt x="504" y="102" on="0"/>
        <pt x="504" y="172" on="1"/>
        <pt x="504" y="244" on="0"/>
        <pt x="370" y="312" on="0"/>
        <pt x="264" y="342" on="1"/>
        <pt x="170" y="368" on="0"/>
        <pt x="65" y="451" on="0"/>
        <pt x="65" y="526" on="1"/>
        <pt x="65" y="605" on="0"/>
        <pt x="196" y="710" on="0"/>
        <pt x="292" y="710" on="1"/>
        <pt x="373" y="710" on="0"/>
        <pt x="477" y="658" on="0"/>
        <pt x="511" y="611" on="1"/>
        <pt x="494" y="596" on="1"/>
        <pt x="461" y="640" on="0"/>
        <pt x="366" y="688" on="0"/>
        <pt x="292" y="688" on="1"/>
        <pt x="206" y="688" on="0"/>
        <pt x="88" y="597" on="0"/>
        <pt x="88" y="526" on="1"/>
        <pt x="88" y="458" on="0"/>
        <pt x="188" y="385" on="0"/>
        <pt x="272" y="363" on="1"/>
        <pt x="391" y="333" on="0"/>
        <pt x="527" y="251" on="0"/>
        <pt x="527" y="172" on="1"/>
        <pt x="527" y="94" on="0"/>
        <pt x="398" y="-10" on="0"/>
        <pt x="303" y="-10" on="1"/>
        <pt x="214" y="-10" on="0"/>
        <pt x="83" y="55" on="0"/>
      </contour>
      <contour>
        <pt x="395" y="869" on="1"/>
        <pt x="249" y="770" on="1"/>
        <pt x="239" y="785" on="1"/>
        <pt x="381" y="890" on="1"/>
      </contour>
    </TTGlyph>
    <TTGlyph name="Scaron" xMin="43" yMin="-10" xMax="527" yMax="850">
      <contour>
        <pt x="43" y="115" on="1"/>
        <pt x="61" y="131" on="1"/>
        <pt x="99" y="72" on="0"/>
        <pt x="221" y="12" on="0"/>
        <pt x="303" y="12" on="1"/>
        <pt x="387" y="12" on="0"/>
        <pt x="504" y="102" on="0"/>
        <pt x="504" y="172" on="1"/>
        <pt x="504" y="244" on="0"/>
        <pt x="370" y="312" on="0"/>
        <pt x="264" y="342" on="1"/>
        <pt x="170" y="368" on="0"/>
        <pt x="65" y="451" on="0"/>
        <pt x="65" y="526" on="1"/>
        <pt x="65" y="605" on="0"/>
        <pt x="196" y="710" on="0"/>
        <pt x="292" y="710" on="1"/>
        <pt x="373" y="710" on="0"/>
        <pt x="477" y="658" on="0"/>
        <pt x="511" y="611" on="1"/>
        <pt x="494" y="596" on="1"/>
        <pt x="461" y="640" on="0"/>
        <pt x="366" y="688" on="0"/>
        <pt x="292" y="688" on="1"/>
        <pt x="206" y="688" on="0"/>
        <pt x="88" y="597" on="0"/>
        <pt x="88" y="526" on="1"/>
        <pt x="88" y="458" on="0"/>
        <pt x="188" y="385" on="0"/>
        <pt x="272" y="363" on="1"/>
        <pt x="391" y="333" on="0"/>
        <pt x="527" y="251" on="0"/>
        <pt x="527" y="172" on="1"/>
        <pt x="527" y="94" on="0"/>
        <pt x="398" y="-10" on="0"/>
        <pt x="303" y="-10" on="1"/>
        <pt x="214" y="-10" on="0"/>
        <pt x="83" y="55" on="0"/>
      </contour>
      <contour>
        <pt x="409" y="850" on="1"/>
        <pt x="293" y="758" on="1"/>
        <pt x="308" y="758" on="1"/>
        <pt x="191" y="850" on="1"/>
        <pt x="179" y="837" on="1"/>
        <pt x="286" y="745" on="1"/>
        <pt x="314" y="745" on="1"/>
        <pt x="421" y="837" on="1"/>
      </contour>
    </TTGlyph>
    <TTGlyph name="Scedilla" xMin="43" yMin="-230" xMax="527" yMax="710">
      <contour>
        <pt x="43" y="115" on="1"/>
        <pt x="61" y="131" on="1"/>
        <pt x="99" y="72" on="0"/>
        <pt x="221" y="12" on="0"/>
        <pt x="303" y="12" on="1"/>
        <pt x="387" y="12" on="0"/>
        <pt x="504" y="102" on="0"/>
        <pt x="504" y="172" on="1"/>
        <pt x="504" y="244" on="0"/>
        <pt x="370" y="312" on="0"/>
        <pt x="264" y="342" on="1"/>
        <pt x="170" y="368" on="0"/>
        <pt x="65" y="451" on="0"/>
        <pt x="65" y="526" on="1"/>
        <pt x="65" y="605" on="0"/>
        <pt x="196" y="710" on="0"/>
        <pt x="292" y="710" on="1"/>
        <pt x="373" y="710" on="0"/>
        <pt x="477" y="658" on="0"/>
        <pt x="511" y="611" on="1"/>
        <pt x="494" y="596" on="1"/>
        <pt x="461" y="640" on="0"/>
        <pt x="366" y="688" on="0"/>
        <pt x="292" y="688" on="1"/>
        <pt x="206" y="688" on="0"/>
        <pt x="88" y="597" on="0"/>
        <pt x="88" y="526" on="1"/>
        <pt x="88" y="458" on="0"/>
        <pt x="188" y="385" on="0"/>
        <pt x="272" y="363" on="1"/>
        <pt x="391" y="333" on="0"/>
        <pt x="527" y="251" on="0"/>
        <pt x="527" y="172" on="1"/>
        <pt x="527" y="94" on="0"/>
        <pt x="398" y="-10" on="0"/>
        <pt x="303" y="-10" on="1"/>
        <pt x="214" y="-10" on="0"/>
        <pt x="83" y="55" on="0"/>
      </contour>
      <contour>
        <pt x="257" y="-84" on="1"/>
        <pt x="239" y="-81" on="1"/>
        <pt x="293" y="-3" on="1"/>
        <pt x="315" y="-3" on="1"/>
      </contour>
      <contour>
        <pt x="372" y="-142" on="1"/>
        <pt x="372" y="-160" on="0"/>
        <pt x="354" y="-196" on="0"/>
        <pt x="332" y="-205" on="1"/>
        <pt x="310" y="-214" on="0"/>
        <pt x="262" y="-224" on="0"/>
        <pt x="226" y="-230" on="1"/>
        <pt x="222" y="-213" on="1"/>
        <pt x="267" y="-206" on="0"/>
        <pt x="352" y="-182" on="0"/>
        <pt x="352" y="-141" on="1"/>
        <pt x="352" y="-119" on="0"/>
        <pt x="310" y="-91" on="0"/>
        <pt x="252" y="-91" on="1"/>
        <pt x="239" y="-83" on="1"/>
        <pt x="239" y="-81" on="1"/>
        <pt x="258" y="-74" on="1"/>
        <pt x="321" y="-75" on="0"/>
        <pt x="372" y="-111" on="0"/>
      </contour>
    </TTGlyph>
    <TTGlyph name="Scircumflex" xMin="43" yMin="-10" xMax="527" yMax="875">
      <contour>
        <pt x="43" y="115" on="1"/>
        <pt x="61" y="131" on="1"/>
        <pt x="99" y="72" on="0"/>
        <pt x="221" y="12" on="0"/>
        <pt x="303" y="12" on="1"/>
        <pt x="387" y="12" on="0"/>
        <pt x="504" y="102" on="0"/>
        <pt x="504" y="172" on="1"/>
        <pt x="504" y="244" on="0"/>
        <pt x="370" y="312" on="0"/>
        <pt x="264" y="342" on="1"/>
        <pt x="170" y="368" on="0"/>
        <pt x="65" y="451" on="0"/>
        <pt x="65" y="526" on="1"/>
        <pt x="65" y="605" on="0"/>
        <pt x="196" y="710" on="0"/>
        <pt x="292" y="710" on="1"/>
        <pt x="373" y="710" on="0"/>
        <pt x="477" y="658" on="0"/>
        <pt x="511" y="611" on="1"/>
        <pt x="494" y="596" on="1"/>
        <pt x="461" y="640" on="0"/>
        <pt x="366" y="688" on="0"/>
        <pt x="292" y="688" on="1"/>
        <pt x="206" y="688" on="0"/>
        <pt x="88" y="597" on="0"/>
        <pt x="88" y="526" on="1"/>
        <pt x="88" y="458" on="0"/>
        <pt x="188" y="385" on="0"/>
        <pt x="272" y="363" on="1"/>
        <pt x="391" y="333" on="0"/>
        <pt x="527" y="251" on="0"/>
        <pt x="527" y="172" on="1"/>
        <pt x="527" y="94" on="0"/>
        <pt x="398" y="-10" on="0"/>
        <pt x="303" y="-10" on="1"/>
        <pt x="214" y="-10" on="0"/>
        <pt x="83" y="55" on="0"/>
      </contour>
      <contour>
        <pt x="409" y="770" on="1"/>
        <pt x="293" y="862" on="1"/>
        <pt x="308" y="862" on="1"/>
        <pt x="191" y="770" on="1"/>
        <pt x="179" y="783" on="1"/>
        <pt x="286" y="875" on="1"/>
        <pt x="314" y="875" on="1"/>
        <pt x="421" y="783" on="1"/>
      </contour>
    </TTGlyph>
    <TTGlyph name="T" xMin="20" yMin="0" xMax="468" yMax="700">
      <contour>
        <pt x="255" y="0" on="1"/>
        <pt x="233" y="0" on="1"/>
        <pt x="233" y="688" on="1"/>
        <pt x="255" y="688" on="1"/>
      </contour>
      <contour>
        <pt x="468" y="678" on="1"/>
        <pt x="20" y="678" on="1"/>
        <pt x="20" y="700" on="1"/>
        <pt x="468" y="700" on="1"/>
      </contour>
    </TTGlyph>
    <TTGlyph name="Tbar" xMin="20" yMin="0" xMax="468" yMax="700">
      <contour>
        <pt x="255" y="0" on="1"/>
        <pt x="233" y="0" on="1"/>
        <pt x="233" y="688" on="1"/>
        <pt x="255" y="688" on="1"/>
      </contour>
      <contour>
        <pt x="468" y="678" on="1"/>
        <pt x="20" y="678" on="1"/>
        <pt x="20" y="700" on="1"/>
        <pt x="468" y="700" on="1"/>
      </contour>
      <contour>
        <pt x="388" y="359" on="1"/>
        <pt x="120" y="359" on="1"/>
        <pt x="120" y="380" on="1"/>
        <pt x="388" y="380" on="1"/>
      </contour>
    </TTGlyph>
    <TTGlyph name="Tcaron" xMin="20" yMin="0" xMax="468" yMax="850">
      <contour>
        <pt x="255" y="0" on="1"/>
        <pt x="233" y="0" on="1"/>
        <pt x="233" y="688" on="1"/>
        <pt x="255" y="688" on="1"/>
      </contour>
      <contour>
        <pt x="468" y="678" on="1"/>
        <pt x="20" y="678" on="1"/>
        <pt x="20" y="700" on="1"/>
        <pt x="468" y="700" on="1"/>
      </contour>
      <contour>
        <pt x="354" y="850" on="1"/>
        <pt x="238" y="758" on="1"/>
        <pt x="253" y="758" on="1"/>
        <pt x="136" y="850" on="1"/>
        <pt x="124" y="837" on="1"/>
        <pt x="231" y="745" on="1"/>
        <pt x="259" y="745" on="1"/>
        <pt x="366" y="837" on="1"/>
      </contour>
    </TTGlyph>
    <TTGlyph name="Thorn" xMin="110" yMin="0" xMax="511" yMax="700">
      <contour>
        <pt x="110" y="700" on="1"/>
        <pt x="132" y="700" on="1"/>
        <pt x="132" y="0" on="1"/>
        <pt x="110" y="0" on="1"/>
      </contour>
      <contour>
        <pt x="122" y="171" on="1"/>
        <pt x="122" y="193" on="1"/>
        <pt x="327" y="193" on="1"/>
        <pt x="404" y="193" on="0"/>
        <pt x="489" y="294" on="0"/>
        <pt x="489" y="358" on="1"/>
        <pt x="489" y="430" on="0"/>
        <pt x="407" y="521" on="0"/>
        <pt x="327" y="521" on="1"/>
        <pt x="122" y="521" on="1"/>
        <pt x="122" y="543" on="1"/>
        <pt x="329" y="543" on="1"/>
        <pt x="409" y="543" on="0"/>
        <pt x="511" y="442" on="0"/>
        <pt x="511" y="358" on="1"/>
        <pt x="511" y="280" on="0"/>
        <pt x="408" y="171" on="0"/>
        <pt x="328" y="171" on="1"/>
      </contour>
    </TTGlyph>
    <TTGlyph name="U" xMin="110" yMin="-6" xMax="634" yMax="700">
      <contour>
        <pt x="612" y="700" on="1"/>
        <pt x="634" y="700" on="1"/>
        <pt x="634" y="269" on="1"/>
        <pt x="634" y="149" on="0"/>
        <pt x="484" y="-6" on="0"/>
        <pt x="368" y="-6" on="1"/>
        <pt x="255" y="-6" on="0"/>
        <pt x="111" y="149" on="0"/>
        <pt x="110" y="269" on="1"/>
        <pt x="110" y="700" on="1"/>
        <pt x="132" y="700" on="1"/>
        <pt x="132" y="278" on="1"/>
        <pt x="132" y="163" on="0"/>
        <pt x="263" y="16" on="0"/>
        <pt x="368" y="16" on="1"/>
        <pt x="476" y="16" on="0"/>
        <pt x="612" y="163" on="0"/>
        <pt x="612" y="278" on="1"/>
      </contour>
    </TTGlyph>
    <TTGlyph name="Uacute" xMin="110" yMin="-6" xMax="634" yMax="890">
      <contour>
        <pt x="612" y="700" on="1"/>
        <pt x="634" y="700" on="1"/>
        <pt x="634" y="269" on="1"/>
        <pt x="634" y="149" on="0"/>
        <pt x="484" y="-6" on="0"/>
        <pt x="368" y="-6" on="1"/>
        <pt x="255" y="-6" on="0"/>
        <pt x="111" y="149" on="0"/>
        <pt x="110" y="269" on="1"/>
        <pt x="110" y="700" on="1"/>
        <pt x="132" y="700" on="1"/>
        <pt x="132" y="278" on="1"/>
        <pt x="132" y="163" on="0"/>
        <pt x="263" y="16" on="0"/>
        <pt x="368" y="16" on="1"/>
        <pt x="476" y="16" on="0"/>
        <pt x="612" y="163" on="0"/>
        <pt x="612" y="278" on="1"/>
      </contour>
      <contour>
        <pt x="484" y="869" on="1"/>
        <pt x="338" y="770" on="1"/>
        <pt x="328" y="785" on="1"/>
        <pt x="470" y="890" on="1"/>
      </contour>
    </TTGlyph>
    <TTGlyph name="Ubreve" xMin="110" yMin="-6" xMax="634" yMax="909">
      <contour>
        <pt x="612" y="700" on="1"/>
        <pt x="634" y="700" on="1"/>
        <pt x="634" y="269" on="1"/>
        <pt x="634" y="149" on="0"/>
        <pt x="484" y="-6" on="0"/>
        <pt x="368" y="-6" on="1"/>
        <pt x="255" y="-6" on="0"/>
        <pt x="111" y="149" on="0"/>
        <pt x="110" y="269" on="1"/>
        <pt x="110" y="700" on="1"/>
        <pt x="132" y="700" on="1"/>
        <pt x="132" y="278" on="1"/>
        <pt x="132" y="163" on="0"/>
        <pt x="263" y="16" on="0"/>
        <pt x="368" y="16" on="1"/>
        <pt x="476" y="16" on="0"/>
        <pt x="612" y="163" on="0"/>
        <pt x="612" y="278" on="1"/>
      </contour>
      <contour>
        <pt x="372" y="787" on="1"/>
        <pt x="321" y="787" on="0"/>
        <pt x="252" y="851" on="0"/>
        <pt x="240" y="907" on="1"/>
        <pt x="262" y="909" on="1"/>
        <pt x="272" y="861" on="0"/>
        <pt x="332" y="808" on="0"/>
        <pt x="372" y="808" on="1"/>
        <pt x="411" y="808" on="0"/>
        <pt x="473" y="861" on="0"/>
        <pt x="482" y="909" on="1"/>
        <pt x="504" y="907" on="1"/>
        <pt x="493" y="851" on="0"/>
        <pt x="422" y="787" on="0"/>
      </contour>
    </TTGlyph>
    <TTGlyph name="Ucircumflex" xMin="110" yMin="-6" xMax="634" yMax="875">
      <contour>
        <pt x="612" y="700" on="1"/>
        <pt x="634" y="700" on="1"/>
        <pt x="634" y="269" on="1"/>
        <pt x="634" y="149" on="0"/>
        <pt x="484" y="-6" on="0"/>
        <pt x="368" y="-6" on="1"/>
        <pt x="255" y="-6" on="0"/>
        <pt x="111" y="149" on="0"/>
        <pt x="110" y="269" on="1"/>
        <pt x="110" y="700" on="1"/>
        <pt x="132" y="700" on="1"/>
        <pt x="132" y="278" on="1"/>
        <pt x="132" y="163" on="0"/>
        <pt x="263" y="16" on="0"/>
        <pt x="368" y="16" on="1"/>
        <pt x="476" y="16" on="0"/>
        <pt x="612" y="163" on="0"/>
        <pt x="612" y="278" on="1"/>
      </contour>
      <contour>
        <pt x="481" y="770" on="1"/>
        <pt x="365" y="862" on="1"/>
        <pt x="380" y="862" on="1"/>
        <pt x="263" y="770" on="1"/>
        <pt x="251" y="783" on="1"/>
        <pt x="358" y="875" on="1"/>
        <pt x="386" y="875" on="1"/>
        <pt x="493" y="783" on="1"/>
      </contour>
    </TTGlyph>
    <TTGlyph name="Udieresis" xMin="110" yMin="-6" xMax="634" yMax="824">
      <contour>
        <pt x="612" y="700" on="1"/>
        <pt x="634" y="700" on="1"/>
        <pt x="634" y="269" on="1"/>
        <pt x="634" y="149" on="0"/>
        <pt x="484" y="-6" on="0"/>
        <pt x="368" y="-6" on="1"/>
        <pt x="255" y="-6" on="0"/>
        <pt x="111" y="149" on="0"/>
        <pt x="110" y="269" on="1"/>
        <pt x="110" y="700" on="1"/>
        <pt x="132" y="700" on="1"/>
        <pt x="132" y="278" on="1"/>
        <pt x="132" y="163" on="0"/>
        <pt x="263" y="16" on="0"/>
        <pt x="368" y="16" on="1"/>
        <pt x="476" y="16" on="0"/>
        <pt x="612" y="163" on="0"/>
        <pt x="612" y="278" on="1"/>
      </contour>
      <contour>
        <pt x="324" y="797" on="1"/>
        <pt x="324" y="785" on="0"/>
        <pt x="311" y="770" on="0"/>
        <pt x="297" y="770" on="1"/>
        <pt x="285" y="770" on="0"/>
        <pt x="270" y="785" on="0"/>
        <pt x="270" y="797" on="1"/>
        <pt x="270" y="808" on="0"/>
        <pt x="284" y="824" on="0"/>
        <pt x="297" y="824" on="1"/>
        <pt x="311" y="824" on="0"/>
        <pt x="324" y="809" on="0"/>
      </contour>
      <contour>
        <pt x="474" y="797" on="1"/>
        <pt x="474" y="785" on="0"/>
        <pt x="461" y="770" on="0"/>
        <pt x="447" y="770" on="1"/>
        <pt x="435" y="770" on="0"/>
        <pt x="420" y="785" on="0"/>
        <pt x="420" y="797" on="1"/>
        <pt x="420" y="808" on="0"/>
        <pt x="434" y="824" on="0"/>
        <pt x="447" y="824" on="1"/>
        <pt x="461" y="824" on="0"/>
        <pt x="474" y="809" on="0"/>
      </contour>
    </TTGlyph>
    <TTGlyph name="Ugrave" xMin="110" yMin="-6" xMax="634" yMax="890">
      <contour>
        <pt x="612" y="700" on="1"/>
        <pt x="634" y="700" on="1"/>
        <pt x="634" y="269" on="1"/>
        <pt x="634" y="149" on="0"/>
        <pt x="484" y="-6" on="0"/>
        <pt x="368" y="-6" on="1"/>
        <pt x="255" y="-6" on="0"/>
        <pt x="111" y="149" on="0"/>
        <pt x="110" y="269" on="1"/>
        <pt x="110" y="700" on="1"/>
        <pt x="132" y="700" on="1"/>
        <pt x="132" y="278" on="1"/>
        <pt x="132" y="163" on="0"/>
        <pt x="263" y="16" on="0"/>
        <pt x="368" y="16" on="1"/>
        <pt x="476" y="16" on="0"/>
        <pt x="612" y="163" on="0"/>
        <pt x="612" y="278" on="1"/>
      </contour>
      <contour>
        <pt x="430" y="785" on="1"/>
        <pt x="420" y="770" on="1"/>
        <pt x="274" y="869" on="1"/>
        <pt x="288" y="890" on="1"/>
      </contour>
    </TTGlyph>
    <TTGlyph name="Uhorn" xMin="110" yMin="-6" xMax="730" yMax="799">
      <contour>
        <pt x="612" y="700" on="1"/>
        <pt x="634" y="700" on="1"/>
        <pt x="634" y="269" on="1"/>
        <pt x="634" y="149" on="0"/>
        <pt x="484" y="-6" on="0"/>
        <pt x="368" y="-6" on="1"/>
        <pt x="255" y="-6" on="0"/>
        <pt x="111" y="149" on="0"/>
        <pt x="110" y="269" on="1"/>
        <pt x="110" y="700" on="1"/>
        <pt x="132" y="700" on="1"/>
        <pt x="132" y="278" on="1"/>
        <pt x="132" y="163" on="0"/>
        <pt x="263" y="16" on="0"/>
        <pt x="368" y="16" on="1"/>
        <pt x="476" y="16" on="0"/>
        <pt x="612" y="163" on="0"/>
        <pt x="612" y="278" on="1"/>
      </contour>
      <contour>
        <pt x="612" y="679" on="1"/>
        <pt x="612" y="700" on="1"/>
        <pt x="661" y="700" on="0"/>
        <pt x="708" y="749" on="0"/>
        <pt x="708" y="799" on="1"/>
        <pt x="730" y="799" on="1"/>
        <pt x="730" y="744" on="0"/>
        <pt x="668" y="679" on="0"/>
      </contour>
    </TTGlyph>
    <TTGlyph name="Uhungarumlaut" xMin="110" yMin="-6" xMax="634" yMax="880">
      <contour>
        <pt x="612" y="700" on="1"/>
        <pt x="634" y="700" on="1"/>
        <pt x="634" y="269" on="1"/>
        <pt x="634" y="149" on="0"/>
        <pt x="484" y="-6" on="0"/>
        <pt x="368" y="-6" on="1"/>
        <pt x="255" y="-6" on="0"/>
        <pt x="111" y="149" on="0"/>
        <pt x="110" y="269" on="1"/>
        <pt x="110" y="700" on="1"/>
        <pt x="132" y="700" on="1"/>
        <pt x="132" y="278" on="1"/>
        <pt x="132" y="163" on="0"/>
        <pt x="263" y="16" on="0"/>
        <pt x="368" y="16" on="1"/>
        <pt x="476" y="16" on="0"/>
        <pt x="612" y="163" on="0"/>
        <pt x="612" y="278" on="1"/>
      </contour>
      <contour>
        <pt x="445" y="859" on="1"/>
        <pt x="301" y="755" on="1"/>
        <pt x="291" y="770" on="1"/>
        <pt x="431" y="880" on="1"/>
      </contour>
      <contour>
        <pt x="565" y="859" on="1"/>
        <pt x="421" y="755" on="1"/>
        <pt x="411" y="770" on="1"/>
        <pt x="551" y="880" on="1"/>
      </contour>
    </TTGlyph>
    <TTGlyph name="Umacron" xMin="110" yMin="-6" xMax="634" yMax="792">
      <contour>
        <pt x="612" y="700" on="1"/>
        <pt x="634" y="700" on="1"/>
        <pt x="634" y="269" on="1"/>
        <pt x="634" y="149" on="0"/>
        <pt x="484" y="-6" on="0"/>
        <pt x="368" y="-6" on="1"/>
        <pt x="255" y="-6" on="0"/>
        <pt x="111" y="149" on="0"/>
        <pt x="110" y="269" on="1"/>
        <pt x="110" y="700" on="1"/>
        <pt x="132" y="700" on="1"/>
        <pt x="132" y="278" on="1"/>
        <pt x="132" y="163" on="0"/>
        <pt x="263" y="16" on="0"/>
        <pt x="368" y="16" on="1"/>
        <pt x="476" y="16" on="0"/>
        <pt x="612" y="163" on="0"/>
        <pt x="612" y="278" on="1"/>
      </contour>
      <contour>
        <pt x="506" y="770" on="1"/>
        <pt x="236" y="770" on="1"/>
        <pt x="236" y="792" on="1"/>
        <pt x="506" y="792" on="1"/>
      </contour>
    </TTGlyph>
    <TTGlyph name="Uogonek" xMin="110" yMin="-230" xMax="634" yMax="700">
      <contour>
        <pt x="379" y="-4" on="1"/>
        <pt x="247" y="-4" on="0"/>
        <pt x="111" y="154" on="0"/>
        <pt x="110" y="269" on="1"/>
        <pt x="110" y="700" on="1"/>
        <pt x="132" y="700" on="1"/>
        <pt x="132" y="278" on="1"/>
        <pt x="132" y="163" on="0"/>
        <pt x="263" y="16" on="0"/>
        <pt x="368" y="16" on="1"/>
        <pt x="476" y="16" on="0"/>
        <pt x="612" y="163" on="0"/>
        <pt x="612" y="278" on="1"/>
        <pt x="612" y="700" on="1"/>
        <pt x="634" y="700" on="1"/>
        <pt x="634" y="269" on="1"/>
        <pt x="634" y="166" on="0"/>
        <pt x="513" y="21" on="0"/>
        <pt x="437" y="4" on="1"/>
        <pt x="403" y="0" on="0"/>
        <pt x="332" y="-77" on="0"/>
        <pt x="332" y="-130" on="1"/>
        <pt x="332" y="-163" on="0"/>
        <pt x="377" y="-208" on="0"/>
        <pt x="410" y="-208" on="1"/>
        <pt x="436" y="-208" on="0"/>
        <pt x="474" y="-183" on="0"/>
        <pt x="485" y="-163" on="1"/>
        <pt x="500" y="-176" on="1"/>
        <pt x="488" y="-200" on="0"/>
        <pt x="440" y="-230" on="0"/>
        <pt x="410" y="-230" on="1"/>
        <pt x="368" y="-230" on="0"/>
        <pt x="310" y="-172" on="0"/>
        <pt x="310" y="-130" on="1"/>
        <pt x="310" y="-88" on="0"/>
        <pt x="361" y="-13" on="0"/>
        <pt x="410" y="9" on="1"/>
        <pt x="427" y="9" on="1"/>
        <pt x="418" y="4" on="0"/>
        <pt x="394" y="-4" on="0"/>
      </contour>
    </TTGlyph>
    <TTGlyph name="Uring" xMin="110" yMin="-6" xMax="634" yMax="948">
      <contour>
        <pt x="612" y="700" on="1"/>
        <pt x="634" y="700" on="1"/>
        <pt x="634" y="269" on="1"/>
        <pt x="634" y="149" on="0"/>
        <pt x="484" y="-6" on="0"/>
        <pt x="368" y="-6" on="1"/>
        <pt x="255" y="-6" on="0"/>
        <pt x="111" y="149" on="0"/>
        <pt x="110" y="269" on="1"/>
        <pt x="110" y="700" on="1"/>
        <pt x="132" y="700" on="1"/>
        <pt x="132" y="278" on="1"/>
        <pt x="132" y="163" on="0"/>
        <pt x="263" y="16" on="0"/>
        <pt x="368" y="16" on="1"/>
        <pt x="476" y="16" on="0"/>
        <pt x="612" y="163" on="0"/>
        <pt x="612" y="278" on="1"/>
      </contour>
      <contour>
        <pt x="464" y="858" on="1"/>
        <pt x="464" y="823" on="0"/>
        <pt x="409" y="770" on="0"/>
        <pt x="372" y="770" on="1"/>
        <pt x="335" y="770" on="0"/>
        <pt x="280" y="822" on="0"/>
        <pt x="280" y="858" on="1"/>
        <pt x="280" y="895" on="0"/>
        <pt x="334" y="948" on="0"/>
        <pt x="372" y="948" on="1"/>
        <pt x="410" y="948" on="0"/>
        <pt x="464" y="895" on="0"/>
      </contour>
      <contour>
        <pt x="301" y="858" on="1"/>
        <pt x="301" y="831" on="0"/>
        <pt x="343" y="790" on="0"/>
        <pt x="372" y="790" on="1"/>
        <pt x="402" y="790" on="0"/>
        <pt x="443" y="831" on="0"/>
        <pt x="443" y="858" on="1"/>
        <pt x="443" y="890" on="0"/>
        <pt x="402" y="928" on="0"/>
        <pt x="372" y="928" on="1"/>
        <pt x="341" y="928" on="0"/>
        <pt x="301" y="889" on="0"/>
      </contour>
    </TTGlyph>
    <TTGlyph name="Utilde" xMin="110" yMin="-6" xMax="634" yMax="838">
      <contour>
        <pt x="612" y="700" on="1"/>
        <pt x="634" y="700" on="1"/>
        <pt x="634" y="269" on="1"/>
        <pt x="634" y="149" on="0"/>
        <pt x="484" y="-6" on="0"/>
        <pt x="368" y="-6" on="1"/>
        <pt x="255" y="-6" on="0"/>
        <pt x="111" y="149" on="0"/>
        <pt x="110" y="269" on="1"/>
        <pt x="110" y="700" on="1"/>
        <pt x="132" y="700" on="1"/>
        <pt x="132" y="278" on="1"/>
        <pt x="132" y="163" on="0"/>
        <pt x="263" y="16" on="0"/>
        <pt x="368" y="16" on="1"/>
        <pt x="476" y="16" on="0"/>
        <pt x="612" y="163" on="0"/>
        <pt x="612" y="278" on="1"/>
      </contour>
      <contour>
        <pt x="262" y="771" on="1"/>
        <pt x="240" y="771" on="1"/>
        <pt x="240" y="802" on="0"/>
        <pt x="274" y="838" on="0"/>
        <pt x="296" y="838" on="1"/>
        <pt x="320" y="838" on="0"/>
        <pt x="362" y="818" on="0"/>
        <pt x="380" y="809" on="1"/>
        <pt x="388" y="806" on="0"/>
        <pt x="418" y="792" on="0"/>
        <pt x="430" y="792" on="1"/>
        <pt x="450" y="792" on="0"/>
        <pt x="482" y="813" on="0"/>
        <pt x="482" y="837" on="1"/>
        <pt x="504" y="837" on="1"/>
        <pt x="504" y="805" on="0"/>
        <pt x="462" y="770" on="0"/>
        <pt x="432" y="770" on="1"/>
        <pt x="408" y="770" on="0"/>
        <pt x="368" y="790" on="0"/>
        <pt x="350" y="798" on="1"/>
        <pt x="344" y="801" on="0"/>
        <pt x="314" y="816" on="0"/>
        <pt x="298" y="816" on="1"/>
        <pt x="284" y="816" on="0"/>
        <pt x="262" y="793" on="0"/>
      </contour>
    </TTGlyph>
    <TTGlyph name="V" xMin="20" yMin="0" xMax="584" yMax="700">
      <contour>
        <pt x="288" y="0" on="1"/>
        <pt x="20" y="700" on="1"/>
        <pt x="46" y="700" on="1"/>
        <pt x="235" y="201" on="1"/>
        <pt x="261" y="133" on="0"/>
        <pt x="304" y="18" on="0"/>
        <pt x="308" y="8" on="1"/>
        <pt x="295" y="8" on="1"/>
        <pt x="298" y="18" on="0"/>
        <pt x="343" y="129" on="0"/>
        <pt x="370" y="202" on="1"/>
        <pt x="558" y="700" on="1"/>
        <pt x="584" y="700" on="1"/>
        <pt x="315" y="0" on="1"/>
      </contour>
    </TTGlyph>
    <TTGlyph name="W" xMin="20" yMin="0" xMax="829" yMax="700">
      <contour>
        <pt x="216" y="0" on="1"/>
        <pt x="20" y="700" on="1"/>
        <pt x="44" y="700" on="1"/>
        <pt x="186" y="193" on="1"/>
        <pt x="207" y="117" on="0"/>
        <pt x="213" y="91" on="0"/>
        <pt x="236" y="15" on="1"/>
        <pt x="224" y="15" on="1"/>
        <pt x="254" y="88" on="0"/>
        <pt x="284" y="167" on="0"/>
        <pt x="297" y="202" on="1"/>
        <pt x="417" y="520" on="1"/>
        <pt x="432" y="520" on="1"/>
        <pt x="551" y="202" on="1"/>
        <pt x="564" y="167" on="0"/>
        <pt x="596" y="88" on="0"/>
        <pt x="625" y="15" on="1"/>
        <pt x="612" y="15" on="1"/>
        <pt x="635" y="91" on="0"/>
        <pt x="642" y="117" on="0"/>
        <pt x="663" y="193" on="1"/>
        <pt x="805" y="700" on="1"/>
        <pt x="829" y="700" on="1"/>
        <pt x="633" y="0" on="1"/>
        <pt x="607" y="0" on="1"/>
        <pt x="415" y="499" on="1"/>
        <pt x="434" y="499" on="1"/>
        <pt x="242" y="0" on="1"/>
      </contour>
    </TTGlyph>
    <TTGlyph name="Wacute" xMin="20" yMin="0" xMax="829" yMax="890">
      <contour>
        <pt x="216" y="0" on="1"/>
        <pt x="20" y="700" on="1"/>
        <pt x="44" y="700" on="1"/>
        <pt x="186" y="193" on="1"/>
        <pt x="207" y="117" on="0"/>
        <pt x="213" y="91" on="0"/>
        <pt x="236" y="15" on="1"/>
        <pt x="224" y="15" on="1"/>
        <pt x="254" y="88" on="0"/>
        <pt x="284" y="167" on="0"/>
        <pt x="297" y="202" on="1"/>
        <pt x="417" y="520" on="1"/>
        <pt x="432" y="520" on="1"/>
        <pt x="551" y="202" on="1"/>
        <pt x="564" y="167" on="0"/>
        <pt x="596" y="88" on="0"/>
        <pt x="625" y="15" on="1"/>
        <pt x="612" y="15" on="1"/>
        <pt x="635" y="91" on="0"/>
        <pt x="642" y="117" on="0"/>
        <pt x="663" y="193" on="1"/>
        <pt x="805" y="700" on="1"/>
        <pt x="829" y="700" on="1"/>
        <pt x="633" y="0" on="1"/>
        <pt x="607" y="0" on="1"/>
        <pt x="415" y="499" on="1"/>
        <pt x="434" y="499" on="1"/>
        <pt x="242" y="0" on="1"/>
      </contour>
      <contour>
        <pt x="502" y="869" on="1"/>
        <pt x="356" y="770" on="1"/>
        <pt x="346" y="785" on="1"/>
        <pt x="488" y="890" on="1"/>
      </contour>
    </TTGlyph>
    <TTGlyph name="Wcircumflex" xMin="20" yMin="0" xMax="829" yMax="875">
      <contour>
        <pt x="216" y="0" on="1"/>
        <pt x="20" y="700" on="1"/>
        <pt x="44" y="700" on="1"/>
        <pt x="186" y="193" on="1"/>
        <pt x="207" y="117" on="0"/>
        <pt x="213" y="91" on="0"/>
        <pt x="236" y="15" on="1"/>
        <pt x="224" y="15" on="1"/>
        <pt x="254" y="88" on="0"/>
        <pt x="284" y="167" on="0"/>
        <pt x="297" y="202" on="1"/>
        <pt x="417" y="520" on="1"/>
        <pt x="432" y="520" on="1"/>
        <pt x="551" y="202" on="1"/>
        <pt x="564" y="167" on="0"/>
        <pt x="596" y="88" on="0"/>
        <pt x="625" y="15" on="1"/>
        <pt x="612" y="15" on="1"/>
        <pt x="635" y="91" on="0"/>
        <pt x="642" y="117" on="0"/>
        <pt x="663" y="193" on="1"/>
        <pt x="805" y="700" on="1"/>
        <pt x="829" y="700" on="1"/>
        <pt x="633" y="0" on="1"/>
        <pt x="607" y="0" on="1"/>
        <pt x="415" y="499" on="1"/>
        <pt x="434" y="499" on="1"/>
        <pt x="242" y="0" on="1"/>
      </contour>
      <contour>
        <pt x="534" y="770" on="1"/>
        <pt x="418" y="862" on="1"/>
        <pt x="432" y="862" on="1"/>
        <pt x="316" y="770" on="1"/>
        <pt x="304" y="783" on="1"/>
        <pt x="410" y="875" on="1"/>
        <pt x="438" y="875" on="1"/>
        <pt x="546" y="783" on="1"/>
      </contour>
    </TTGlyph>
    <TTGlyph name="Wdieresis" xMin="20" yMin="0" xMax="829" yMax="824">
      <contour>
        <pt x="216" y="0" on="1"/>
        <pt x="20" y="700" on="1"/>
        <pt x="44" y="700" on="1"/>
        <pt x="186" y="193" on="1"/>
        <pt x="207" y="117" on="0"/>
        <pt x="213" y="91" on="0"/>
        <pt x="236" y="15" on="1"/>
        <pt x="224" y="15" on="1"/>
        <pt x="254" y="88" on="0"/>
        <pt x="284" y="167" on="0"/>
        <pt x="297" y="202" on="1"/>
        <pt x="417" y="520" on="1"/>
        <pt x="432" y="520" on="1"/>
        <pt x="551" y="202" on="1"/>
        <pt x="564" y="167" on="0"/>
        <pt x="596" y="88" on="0"/>
        <pt x="625" y="15" on="1"/>
        <pt x="612" y="15" on="1"/>
        <pt x="635" y="91" on="0"/>
        <pt x="642" y="117" on="0"/>
        <pt x="663" y="193" on="1"/>
        <pt x="805" y="700" on="1"/>
        <pt x="829" y="700" on="1"/>
        <pt x="633" y="0" on="1"/>
        <pt x="607" y="0" on="1"/>
        <pt x="415" y="499" on="1"/>
        <pt x="434" y="499" on="1"/>
        <pt x="242" y="0" on="1"/>
      </contour>
      <contour>
        <pt x="376" y="797" on="1"/>
        <pt x="376" y="785" on="0"/>
        <pt x="364" y="770" on="0"/>
        <pt x="350" y="770" on="1"/>
        <pt x="338" y="770" on="0"/>
        <pt x="322" y="785" on="0"/>
        <pt x="322" y="797" on="1"/>
        <pt x="322" y="808" on="0"/>
        <pt x="336" y="824" on="0"/>
        <pt x="350" y="824" on="1"/>
        <pt x="364" y="824" on="0"/>
        <pt x="376" y="809" on="0"/>
      </contour>
      <contour>
        <pt x="526" y="797" on="1"/>
        <pt x="526" y="785" on="0"/>
        <pt x="514" y="770" on="0"/>
        <pt x="500" y="770" on="1"/>
        <pt x="488" y="770" on="0"/>
        <pt x="472" y="785" on="0"/>
        <pt x="472" y="797" on="1"/>
        <pt x="472" y="808" on="0"/>
        <pt x="486" y="824" on="0"/>
        <pt x="500" y="824" on="1"/>
        <pt x="514" y="824" on="0"/>
        <pt x="526" y="809" on="0"/>
      </contour>
    </TTGlyph>
    <TTGlyph name="Wgrave" xMin="20" yMin="0" xMax="829" yMax="890">
      <contour>
        <pt x="216" y="0" on="1"/>
        <pt x="20" y="700" on="1"/>
        <pt x="44" y="700" on="1"/>
        <pt x="186" y="193" on="1"/>
        <pt x="207" y="117" on="0"/>
        <pt x="213" y="91" on="0"/>
        <pt x="236" y="15" on="1"/>
        <pt x="224" y="15" on="1"/>
        <pt x="254" y="88" on="0"/>
        <pt x="284" y="167" on="0"/>
        <pt x="297" y="202" on="1"/>
        <pt x="417" y="520" on="1"/>
        <pt x="432" y="520" on="1"/>
        <pt x="551" y="202" on="1"/>
        <pt x="564" y="167" on="0"/>
        <pt x="596" y="88" on="0"/>
        <pt x="625" y="15" on="1"/>
        <pt x="612" y="15" on="1"/>
        <pt x="635" y="91" on="0"/>
        <pt x="642" y="117" on="0"/>
        <pt x="663" y="193" on="1"/>
        <pt x="805" y="700" on="1"/>
        <pt x="829" y="700" on="1"/>
        <pt x="633" y="0" on="1"/>
        <pt x="607" y="0" on="1"/>
        <pt x="415" y="499" on="1"/>
        <pt x="434" y="499" on="1"/>
        <pt x="242" y="0" on="1"/>
      </contour>
      <contour>
        <pt x="502" y="785" on="1"/>
        <pt x="492" y="770" on="1"/>
        <pt x="346" y="869" on="1"/>
        <pt x="360" y="890" on="1"/>
      </contour>
    </TTGlyph>
    <TTGlyph name="X" xMin="22" yMin="0" xMax="562" yMax="700">
      <contour>
        <pt x="524" y="700" on="1"/>
        <pt x="552" y="700" on="1"/>
        <pt x="299" y="352" on="1"/>
        <pt x="282" y="365" on="1"/>
      </contour>
      <contour>
        <pt x="27" y="700" on="1"/>
        <pt x="56" y="700" on="1"/>
        <pt x="295" y="366" on="1"/>
        <pt x="562" y="0" on="1"/>
        <pt x="533" y="0" on="1"/>
        <pt x="281" y="348" on="1"/>
      </contour>
      <contour>
        <pt x="50" y="0" on="1"/>
        <pt x="22" y="0" on="1"/>
        <pt x="281" y="363" on="1"/>
        <pt x="297" y="350" on="1"/>
      </contour>
    </TTGlyph>
    <TTGlyph name="Y" xMin="20" yMin="0" xMax="572" yMax="700">
      <contour>
        <pt x="546" y="700" on="1"/>
        <pt x="572" y="700" on="1"/>
        <pt x="302" y="300" on="1"/>
        <pt x="311" y="339" on="1"/>
        <pt x="311" y="0" on="1"/>
        <pt x="289" y="0" on="1"/>
        <pt x="289" y="339" on="1"/>
        <pt x="297" y="300" on="1"/>
        <pt x="20" y="700" on="1"/>
        <pt x="46" y="700" on="1"/>
        <pt x="305" y="327" on="1"/>
        <pt x="294" y="327" on="1"/>
      </contour>
    </TTGlyph>
    <TTGlyph name="Yacute" xMin="20" yMin="0" xMax="572" yMax="890">
      <contour>
        <pt x="546" y="700" on="1"/>
        <pt x="572" y="700" on="1"/>
        <pt x="302" y="300" on="1"/>
        <pt x="311" y="339" on="1"/>
        <pt x="311" y="0" on="1"/>
        <pt x="289" y="0" on="1"/>
        <pt x="289" y="339" on="1"/>
        <pt x="297" y="300" on="1"/>
        <pt x="20" y="700" on="1"/>
        <pt x="46" y="700" on="1"/>
        <pt x="305" y="327" on="1"/>
        <pt x="294" y="327" on="1"/>
      </contour>
      <contour>
        <pt x="409" y="869" on="1"/>
        <pt x="263" y="770" on="1"/>
        <pt x="253" y="785" on="1"/>
        <pt x="395" y="890" on="1"/>
      </contour>
    </TTGlyph>
    <TTGlyph name="Ycircumflex" xMin="20" yMin="0" xMax="572" yMax="875">
      <contour>
        <pt x="546" y="700" on="1"/>
        <pt x="572" y="700" on="1"/>
        <pt x="302" y="300" on="1"/>
        <pt x="311" y="339" on="1"/>
        <pt x="311" y="0" on="1"/>
        <pt x="289" y="0" on="1"/>
        <pt x="289" y="339" on="1"/>
        <pt x="297" y="300" on="1"/>
        <pt x="20" y="700" on="1"/>
        <pt x="46" y="700" on="1"/>
        <pt x="305" y="327" on="1"/>
        <pt x="294" y="327" on="1"/>
      </contour>
      <contour>
        <pt x="405" y="770" on="1"/>
        <pt x="289" y="862" on="1"/>
        <pt x="304" y="862" on="1"/>
        <pt x="187" y="770" on="1"/>
        <pt x="175" y="783" on="1"/>
        <pt x="282" y="875" on="1"/>
        <pt x="310" y="875" on="1"/>
        <pt x="417" y="783" on="1"/>
      </contour>
    </TTGlyph>
    <TTGlyph name="Ydieresis" xMin="20" yMin="0" xMax="572" yMax="824">
      <contour>
        <pt x="546" y="700" on="1"/>
        <pt x="572" y="700" on="1"/>
        <pt x="302" y="300" on="1"/>
        <pt x="311" y="339" on="1"/>
        <pt x="311" y="0" on="1"/>
        <pt x="289" y="0" on="1"/>
        <pt x="289" y="339" on="1"/>
        <pt x="297" y="300" on="1"/>
        <pt x="20" y="700" on="1"/>
        <pt x="46" y="700" on="1"/>
        <pt x="305" y="327" on="1"/>
        <pt x="294" y="327" on="1"/>
      </contour>
      <contour>
        <pt x="248" y="797" on="1"/>
        <pt x="248" y="785" on="0"/>
        <pt x="235" y="770" on="0"/>
        <pt x="221" y="770" on="1"/>
        <pt x="209" y="770" on="0"/>
        <pt x="194" y="785" on="0"/>
        <pt x="194" y="797" on="1"/>
        <pt x="194" y="808" on="0"/>
        <pt x="208" y="824" on="0"/>
        <pt x="221" y="824" on="1"/>
        <pt x="235" y="824" on="0"/>
        <pt x="248" y="809" on="0"/>
      </contour>
      <contour>
        <pt x="398" y="797" on="1"/>
        <pt x="398" y="785" on="0"/>
        <pt x="385" y="770" on="0"/>
        <pt x="371" y="770" on="1"/>
        <pt x="359" y="770" on="0"/>
        <pt x="344" y="785" on="0"/>
        <pt x="344" y="797" on="1"/>
        <pt x="344" y="808" on="0"/>
        <pt x="358" y="824" on="0"/>
        <pt x="371" y="824" on="1"/>
        <pt x="385" y="824" on="0"/>
        <pt x="398" y="809" on="0"/>
      </contour>
    </TTGlyph>
    <TTGlyph name="Ygrave" xMin="20" yMin="0" xMax="572" yMax="890">
      <contour>
        <pt x="546" y="700" on="1"/>
        <pt x="572" y="700" on="1"/>
        <pt x="302" y="300" on="1"/>
        <pt x="311" y="339" on="1"/>
        <pt x="311" y="0" on="1"/>
        <pt x="289" y="0" on="1"/>
        <pt x="289" y="339" on="1"/>
        <pt x="297" y="300" on="1"/>
        <pt x="20" y="700" on="1"/>
        <pt x="46" y="700" on="1"/>
        <pt x="305" y="327" on="1"/>
        <pt x="294" y="327" on="1"/>
      </contour>
      <contour>
        <pt x="339" y="785" on="1"/>
        <pt x="329" y="770" on="1"/>
        <pt x="183" y="869" on="1"/>
        <pt x="197" y="890" on="1"/>
      </contour>
    </TTGlyph>
    <TTGlyph name="Z" xMin="60" yMin="0" xMax="574" yMax="700">
      <contour>
        <pt x="86" y="700" on="1"/>
        <pt x="563" y="700" on="1"/>
        <pt x="563" y="677" on="1"/>
        <pt x="78" y="10" on="1"/>
        <pt x="75" y="22" on="1"/>
        <pt x="574" y="22" on="1"/>
        <pt x="574" y="0" on="1"/>
        <pt x="60" y="0" on="1"/>
        <pt x="60" y="24" on="1"/>
        <pt x="545" y="692" on="1"/>
        <pt x="557" y="678" on="1"/>
        <pt x="86" y="678" on="1"/>
      </contour>
    </TTGlyph>
    <TTGlyph name="Zacute" xMin="60" yMin="0" xMax="574" yMax="890">
      <contour>
        <pt x="86" y="700" on="1"/>
        <pt x="563" y="700" on="1"/>
        <pt x="563" y="677" on="1"/>
        <pt x="78" y="10" on="1"/>
        <pt x="75" y="22" on="1"/>
        <pt x="574" y="22" on="1"/>
        <pt x="574" y="0" on="1"/>
        <pt x="60" y="0" on="1"/>
        <pt x="60" y="24" on="1"/>
        <pt x="545" y="692" on="1"/>
        <pt x="557" y="678" on="1"/>
        <pt x="86" y="678" on="1"/>
      </contour>
      <contour>
        <pt x="428" y="869" on="1"/>
        <pt x="282" y="770" on="1"/>
        <pt x="272" y="785" on="1"/>
        <pt x="414" y="890" on="1"/>
      </contour>
    </TTGlyph>
    <TTGlyph name="Zcaron" xMin="60" yMin="0" xMax="574" yMax="850">
      <contour>
        <pt x="86" y="700" on="1"/>
        <pt x="563" y="700" on="1"/>
        <pt x="563" y="677" on="1"/>
        <pt x="78" y="10" on="1"/>
        <pt x="75" y="22" on="1"/>
        <pt x="574" y="22" on="1"/>
        <pt x="574" y="0" on="1"/>
        <pt x="60" y="0" on="1"/>
        <pt x="60" y="24" on="1"/>
        <pt x="545" y="692" on="1"/>
        <pt x="557" y="678" on="1"/>
        <pt x="86" y="678" on="1"/>
      </contour>
      <contour>
        <pt x="426" y="850" on="1"/>
        <pt x="310" y="758" on="1"/>
        <pt x="325" y="758" on="1"/>
        <pt x="208" y="850" on="1"/>
        <pt x="196" y="837" on="1"/>
        <pt x="303" y="745" on="1"/>
        <pt x="331" y="745" on="1"/>
        <pt x="438" y="837" on="1"/>
      </contour>
    </TTGlyph>
    <TTGlyph name="Zdotaccent" xMin="60" yMin="0" xMax="574" yMax="828">
      <contour>
        <pt x="86" y="700" on="1"/>
        <pt x="563" y="700" on="1"/>
        <pt x="563" y="677" on="1"/>
        <pt x="78" y="10" on="1"/>
        <pt x="75" y="22" on="1"/>
        <pt x="574" y="22" on="1"/>
        <pt x="574" y="0" on="1"/>
        <pt x="60" y="0" on="1"/>
        <pt x="60" y="24" on="1"/>
        <pt x="545" y="692" on="1"/>
        <pt x="557" y="678" on="1"/>
        <pt x="86" y="678" on="1"/>
      </contour>
      <contour>
        <pt x="345" y="799" on="1"/>
        <pt x="345" y="786" on="0"/>
        <pt x="331" y="770" on="0"/>
        <pt x="317" y="770" on="1"/>
        <pt x="303" y="770" on="0"/>
        <pt x="289" y="786" on="0"/>
        <pt x="289" y="799" on="1"/>
        <pt x="289" y="811" on="0"/>
        <pt x="303" y="828" on="0"/>
        <pt x="317" y="828" on="1"/>
        <pt x="330" y="828" on="0"/>
        <pt x="345" y="812" on="0"/>
      </contour>
    </TTGlyph>
    <TTGlyph name="_connection" xMin="-30" yMin="0" xMax="90" yMax="102">
      <contour>
        <pt x="-30" y="0" on="1"/>
        <pt x="-30" y="102" on="1"/>
        <pt x="90" y="102" on="1"/>
        <pt x="90" y="0" on="1"/>
      </contour>
    </TTGlyph>
    <TTGlyph name="_connection.round" xMin="-79" yMin="0" xMax="120" yMax="149">
      <contour>
        <pt x="-79" y="102" on="1"/>
        <pt x="-31" y="149" on="1"/>
        <pt x="-5" y="124" on="0"/>
        <pt x="65" y="102" on="0"/>
        <pt x="120" y="102" on="1"/>
        <pt x="120" y="0" on="1"/>
        <pt x="54" y="0" on="0"/>
        <pt x="-49" y="52" on="0"/>
      </contour>
    </TTGlyph>
    <TTGlyph name="_guide" xMin="72" yMin="0" xMax="1213" yMax="536">
      <contour>
        <pt x="963" y="536" on="1"/>
        <pt x="1078" y="536" on="0"/>
        <pt x="1213" y="412" on="0"/>
        <pt x="1213" y="310" on="1"/>
        <pt x="1213" y="0" on="1"/>
        <pt x="1110" y="0" on="1"/>
        <pt x="1110" y="293" on="1"/>
        <pt x="1110" y="356" on="0"/>
        <pt x="1012" y="440" on="0"/>
        <pt x="939" y="440" on="1"/>
        <pt x="861" y="440" on="0"/>
        <pt x="741" y="336" on="0"/>
        <pt x="741" y="278" on="1"/>
        <pt x="741" y="0" on="1"/>
        <pt x="715" y="0" on="0"/>
        <pt x="664" y="0" on="0"/>
        <pt x="638" y="0" on="1"/>
        <pt x="638" y="525" on="1"/>
        <pt x="741" y="525" on="1"/>
        <pt x="741" y="377" on="1"/>
        <pt x="703" y="375" on="1"/>
        <pt x="748" y="450" on="0"/>
        <pt x="884" y="536" on="0"/>
      </contour>
      <contour>
        <pt x="347" y="536" on="1"/>
        <pt x="437" y="536" on="0"/>
        <pt x="527" y="429" on="0"/>
        <pt x="527" y="320" on="1"/>
        <pt x="527" y="0" on="1"/>
        <pt x="424" y="0" on="1"/>
        <pt x="424" y="313" on="1"/>
        <pt x="424" y="381" on="0"/>
        <pt x="369" y="445" on="0"/>
        <pt x="313" y="442" on="1"/>
        <pt x="254" y="442" on="0"/>
        <pt x="175" y="370" on="0"/>
        <pt x="175" y="318" on="1"/>
        <pt x="175" y="0" on="1"/>
        <pt x="149" y="0" on="0"/>
        <pt x="98" y="0" on="0"/>
        <pt x="72" y="0" on="1"/>
        <pt x="72" y="525" on="1"/>
        <pt x="175" y="525" on="1"/>
        <pt x="175" y="417" on="1"/>
        <pt x="157" y="405" on="1"/>
        <pt x="172" y="457" on="0"/>
        <pt x="284" y="536" on="0"/>
      </contour>
    </TTGlyph>
    <TTGlyph name="_spacingBehDotless" xMin="0" yMin="0" xMax="161" yMax="221">
      <contour>
        <pt x="0" y="0" on="1"/>
        <pt x="0" y="221" on="1"/>
        <pt x="161" y="221" on="1"/>
        <pt x="161" y="0" on="1"/>
      </contour>
    </TTGlyph>
    <TTGlyph name="_spacingDal" xMin="0" yMin="0" xMax="161" yMax="221">
      <contour>
        <pt x="0" y="0" on="1"/>
        <pt x="0" y="221" on="1"/>
        <pt x="161" y="221" on="1"/>
        <pt x="161" y="0" on="1"/>
      </contour>
    </TTGlyph>
    <TTGlyph name="a" xMin="40" yMin="-10" xMax="532" yMax="530">
      <contour>
        <pt x="512" y="525" on="1"/>
        <pt x="532" y="525" on="1"/>
        <pt x="532" y="0" on="1"/>
        <pt x="510" y="0" on="1"/>
        <pt x="510" y="172" on="1"/>
        <pt x="519" y="175" on="1"/>
        <pt x="501" y="94" on="0"/>
        <pt x="377" y="-10" on="0"/>
        <pt x="294" y="-10" on="1"/>
        <pt x="184" y="-10" on="0"/>
        <pt x="40" y="141" on="0"/>
        <pt x="40" y="258" on="1"/>
        <pt x="40" y="376" on="0"/>
        <pt x="187" y="530" on="0"/>
        <pt x="290" y="530" on="1"/>
        <pt x="374" y="530" on="0"/>
        <pt x="502" y="430" on="0"/>
        <pt x="516" y="350" on="1"/>
        <pt x="510" y="353" on="1"/>
      </contour>
      <contour>
        <pt x="63" y="258" on="1"/>
        <pt x="63" y="152" on="0"/>
        <pt x="191" y="12" on="0"/>
        <pt x="294" y="12" on="1"/>
        <pt x="386" y="12" on="0"/>
        <pt x="511" y="150" on="0"/>
        <pt x="511" y="260" on="1"/>
        <pt x="511" y="368" on="0"/>
        <pt x="386" y="508" on="0"/>
        <pt x="292" y="508" on="1"/>
        <pt x="191" y="508" on="0"/>
        <pt x="63" y="367" on="0"/>
      </contour>
    </TTGlyph>
    <TTGlyph name="a.ss01" xMin="40" yMin="-10" xMax="464" yMax="530">
      <contour>
        <pt x="272" y="530" on="1"/>
        <pt x="362" y="530" on="0"/>
        <pt x="464" y="443" on="0"/>
        <pt x="464" y="364" on="1"/>
        <pt x="464" y="0" on="1"/>
        <pt x="442" y="0" on="1"/>
        <pt x="442" y="367" on="1"/>
        <pt x="442" y="431" on="0"/>
        <pt x="353" y="508" on="0"/>
        <pt x="271" y="508" on="1"/>
        <pt x="215" y="508" on="0"/>
        <pt x="116" y="459" on="0"/>
        <pt x="81" y="414" on="1"/>
        <pt x="65" y="430" on="1"/>
        <pt x="105" y="479" on="0"/>
        <pt x="210" y="530" on="0"/>
      </contour>
      <contour>
        <pt x="246" y="287" on="1"/>
        <pt x="450" y="287" on="1"/>
        <pt x="450" y="265" on="1"/>
        <pt x="240" y="265" on="1"/>
        <pt x="155" y="265" on="0"/>
        <pt x="62" y="205" on="0"/>
        <pt x="62" y="149" on="1"/>
        <pt x="62" y="88" on="0"/>
        <pt x="155" y="12" on="0"/>
        <pt x="219" y="12" on="1"/>
        <pt x="293" y="12" on="0"/>
        <pt x="414" y="92" on="0"/>
        <pt x="447" y="157" on="1"/>
        <pt x="460" y="146" on="1"/>
        <pt x="424" y="77" on="0"/>
        <pt x="298" y="-10" on="0"/>
        <pt x="218" y="-10" on="1"/>
        <pt x="142" y="-10" on="0"/>
        <pt x="40" y="77" on="0"/>
        <pt x="40" y="149" on="1"/>
        <pt x="40" y="215" on="0"/>
        <pt x="144" y="287" on="0"/>
      </contour>
    </TTGlyph>
    <TTGlyph name="aabreve.ss01" xMin="40" yMin="-10" xMax="464" yMax="747">
      <contour>
        <pt x="272" y="530" on="1"/>
        <pt x="362" y="530" on="0"/>
        <pt x="464" y="443" on="0"/>
        <pt x="464" y="364" on="1"/>
        <pt x="464" y="0" on="1"/>
        <pt x="442" y="0" on="1"/>
        <pt x="442" y="367" on="1"/>
        <pt x="442" y="431" on="0"/>
        <pt x="353" y="508" on="0"/>
        <pt x="271" y="508" on="1"/>
        <pt x="215" y="508" on="0"/>
        <pt x="116" y="459" on="0"/>
        <pt x="81" y="414" on="1"/>
        <pt x="65" y="430" on="1"/>
        <pt x="105" y="479" on="0"/>
        <pt x="210" y="530" on="0"/>
      </contour>
      <contour>
        <pt x="246" y="287" on="1"/>
        <pt x="450" y="287" on="1"/>
        <pt x="450" y="265" on="1"/>
        <pt x="240" y="265" on="1"/>
        <pt x="155" y="265" on="0"/>
        <pt x="62" y="205" on="0"/>
        <pt x="62" y="149" on="1"/>
        <pt x="62" y="88" on="0"/>
        <pt x="155" y="12" on="0"/>
        <pt x="219" y="12" on="1"/>
        <pt x="293" y="12" on="0"/>
        <pt x="414" y="92" on="0"/>
        <pt x="447" y="157" on="1"/>
        <pt x="460" y="146" on="1"/>
        <pt x="424" y="77" on="0"/>
        <pt x="298" y="-10" on="0"/>
        <pt x="218" y="-10" on="1"/>
        <pt x="142" y="-10" on="0"/>
        <pt x="40" y="77" on="0"/>
        <pt x="40" y="149" on="1"/>
        <pt x="40" y="215" on="0"/>
        <pt x="144" y="287" on="0"/>
      </contour>
      <contour>
        <pt x="256" y="625" on="1"/>
        <pt x="205" y="625" on="0"/>
        <pt x="136" y="689" on="0"/>
        <pt x="124" y="745" on="1"/>
        <pt x="146" y="747" on="1"/>
        <pt x="156" y="699" on="0"/>
        <pt x="216" y="646" on="0"/>
        <pt x="256" y="646" on="1"/>
        <pt x="295" y="646" on="0"/>
        <pt x="357" y="699" on="0"/>
        <pt x="366" y="747" on="1"/>
        <pt x="388" y="745" on="1"/>
        <pt x="377" y="689" on="0"/>
        <pt x="306" y="625" on="0"/>
      </contour>
    </TTGlyph>
    <TTGlyph name="aacute" xMin="40" yMin="-10" xMax="532" yMax="750">
      <contour>
        <pt x="512" y="525" on="1"/>
        <pt x="532" y="525" on="1"/>
        <pt x="532" y="0" on="1"/>
        <pt x="510" y="0" on="1"/>
        <pt x="510" y="172" on="1"/>
        <pt x="519" y="175" on="1"/>
        <pt x="501" y="94" on="0"/>
        <pt x="377" y="-10" on="0"/>
        <pt x="294" y="-10" on="1"/>
        <pt x="184" y="-10" on="0"/>
        <pt x="40" y="141" on="0"/>
        <pt x="40" y="258" on="1"/>
        <pt x="40" y="376" on="0"/>
        <pt x="187" y="530" on="0"/>
        <pt x="290" y="530" on="1"/>
        <pt x="374" y="530" on="0"/>
        <pt x="502" y="430" on="0"/>
        <pt x="516" y="350" on="1"/>
        <pt x="510" y="353" on="1"/>
      </contour>
      <contour>
        <pt x="63" y="258" on="1"/>
        <pt x="63" y="152" on="0"/>
        <pt x="191" y="12" on="0"/>
        <pt x="294" y="12" on="1"/>
        <pt x="386" y="12" on="0"/>
        <pt x="511" y="150" on="0"/>
        <pt x="511" y="260" on="1"/>
        <pt x="511" y="368" on="0"/>
        <pt x="386" y="508" on="0"/>
        <pt x="292" y="508" on="1"/>
        <pt x="191" y="508" on="0"/>
        <pt x="63" y="367" on="0"/>
      </contour>
      <contour>
        <pt x="396" y="729" on="1"/>
        <pt x="252" y="625" on="1"/>
        <pt x="242" y="640" on="1"/>
        <pt x="382" y="750" on="1"/>
      </contour>
    </TTGlyph>
    <TTGlyph name="aacute.ss01" xMin="40" yMin="-10" xMax="464" yMax="720">
      <contour>
        <pt x="272" y="530" on="1"/>
        <pt x="362" y="530" on="0"/>
        <pt x="464" y="443" on="0"/>
        <pt x="464" y="364" on="1"/>
        <pt x="464" y="0" on="1"/>
        <pt x="442" y="0" on="1"/>
        <pt x="442" y="367" on="1"/>
        <pt x="442" y="431" on="0"/>
        <pt x="353" y="508" on="0"/>
        <pt x="271" y="508" on="1"/>
        <pt x="215" y="508" on="0"/>
        <pt x="116" y="459" on="0"/>
        <pt x="81" y="414" on="1"/>
        <pt x="65" y="430" on="1"/>
        <pt x="105" y="479" on="0"/>
        <pt x="210" y="530" on="0"/>
      </contour>
      <contour>
        <pt x="246" y="287" on="1"/>
        <pt x="450" y="287" on="1"/>
        <pt x="450" y="265" on="1"/>
        <pt x="240" y="265" on="1"/>
        <pt x="155" y="265" on="0"/>
        <pt x="62" y="205" on="0"/>
        <pt x="62" y="149" on="1"/>
        <pt x="62" y="88" on="0"/>
        <pt x="155" y="12" on="0"/>
        <pt x="219" y="12" on="1"/>
        <pt x="293" y="12" on="0"/>
        <pt x="414" y="92" on="0"/>
        <pt x="447" y="157" on="1"/>
        <pt x="460" y="146" on="1"/>
        <pt x="424" y="77" on="0"/>
        <pt x="298" y="-10" on="0"/>
        <pt x="218" y="-10" on="1"/>
        <pt x="142" y="-10" on="0"/>
        <pt x="40" y="77" on="0"/>
        <pt x="40" y="149" on="1"/>
        <pt x="40" y="215" on="0"/>
        <pt x="144" y="287" on="0"/>
      </contour>
      <contour>
        <pt x="346" y="699" on="1"/>
        <pt x="202" y="595" on="1"/>
        <pt x="192" y="610" on="1"/>
        <pt x="332" y="720" on="1"/>
      </contour>
    </TTGlyph>
    <TTGlyph name="abreve" xMin="40" yMin="-10" xMax="532" yMax="734">
      <contour>
        <pt x="512" y="525" on="1"/>
        <pt x="532" y="525" on="1"/>
        <pt x="532" y="0" on="1"/>
        <pt x="510" y="0" on="1"/>
        <pt x="510" y="172" on="1"/>
        <pt x="519" y="175" on="1"/>
        <pt x="501" y="94" on="0"/>
        <pt x="377" y="-10" on="0"/>
        <pt x="294" y="-10" on="1"/>
        <pt x="184" y="-10" on="0"/>
        <pt x="40" y="141" on="0"/>
        <pt x="40" y="258" on="1"/>
        <pt x="40" y="376" on="0"/>
        <pt x="187" y="530" on="0"/>
        <pt x="290" y="530" on="1"/>
        <pt x="374" y="530" on="0"/>
        <pt x="502" y="430" on="0"/>
        <pt x="516" y="350" on="1"/>
        <pt x="510" y="353" on="1"/>
      </contour>
      <contour>
        <pt x="63" y="258" on="1"/>
        <pt x="63" y="152" on="0"/>
        <pt x="191" y="12" on="0"/>
        <pt x="294" y="12" on="1"/>
        <pt x="386" y="12" on="0"/>
        <pt x="511" y="150" on="0"/>
        <pt x="511" y="260" on="1"/>
        <pt x="511" y="368" on="0"/>
        <pt x="386" y="508" on="0"/>
        <pt x="292" y="508" on="1"/>
        <pt x="191" y="508" on="0"/>
        <pt x="63" y="367" on="0"/>
      </contour>
      <contour>
        <pt x="341" y="612" on="1"/>
        <pt x="290" y="612" on="0"/>
        <pt x="221" y="676" on="0"/>
        <pt x="209" y="732" on="1"/>
        <pt x="231" y="734" on="1"/>
        <pt x="241" y="686" on="0"/>
        <pt x="301" y="633" on="0"/>
        <pt x="341" y="633" on="1"/>
        <pt x="380" y="633" on="0"/>
        <pt x="442" y="686" on="0"/>
        <pt x="451" y="734" on="1"/>
        <pt x="473" y="732" on="1"/>
        <pt x="462" y="676" on="0"/>
        <pt x="391" y="612" on="0"/>
      </contour>
    </TTGlyph>
    <TTGlyph name="abreve.ss01" xMin="40" yMin="-10" xMax="464" yMax="717">
      <contour>
        <pt x="272" y="530" on="1"/>
        <pt x="362" y="530" on="0"/>
        <pt x="464" y="443" on="0"/>
        <pt x="464" y="364" on="1"/>
        <pt x="464" y="0" on="1"/>
        <pt x="442" y="0" on="1"/>
        <pt x="442" y="367" on="1"/>
        <pt x="442" y="431" on="0"/>
        <pt x="353" y="508" on="0"/>
        <pt x="271" y="508" on="1"/>
        <pt x="215" y="508" on="0"/>
        <pt x="116" y="459" on="0"/>
        <pt x="81" y="414" on="1"/>
        <pt x="65" y="430" on="1"/>
        <pt x="105" y="479" on="0"/>
        <pt x="210" y="530" on="0"/>
      </contour>
      <contour>
        <pt x="246" y="287" on="1"/>
        <pt x="450" y="287" on="1"/>
        <pt x="450" y="265" on="1"/>
        <pt x="240" y="265" on="1"/>
        <pt x="155" y="265" on="0"/>
        <pt x="62" y="205" on="0"/>
        <pt x="62" y="149" on="1"/>
        <pt x="62" y="88" on="0"/>
        <pt x="155" y="12" on="0"/>
        <pt x="219" y="12" on="1"/>
        <pt x="293" y="12" on="0"/>
        <pt x="414" y="92" on="0"/>
        <pt x="447" y="157" on="1"/>
        <pt x="460" y="146" on="1"/>
        <pt x="424" y="77" on="0"/>
        <pt x="298" y="-10" on="0"/>
        <pt x="218" y="-10" on="1"/>
        <pt x="142" y="-10" on="0"/>
        <pt x="40" y="77" on="0"/>
        <pt x="40" y="149" on="1"/>
        <pt x="40" y="215" on="0"/>
        <pt x="144" y="287" on="0"/>
      </contour>
      <contour>
        <pt x="266" y="595" on="1"/>
        <pt x="215" y="595" on="0"/>
        <pt x="146" y="659" on="0"/>
        <pt x="134" y="715" on="1"/>
        <pt x="156" y="717" on="1"/>
        <pt x="166" y="669" on="0"/>
        <pt x="226" y="616" on="0"/>
        <pt x="266" y="616" on="1"/>
        <pt x="305" y="616" on="0"/>
        <pt x="367" y="669" on="0"/>
        <pt x="376" y="717" on="1"/>
        <pt x="398" y="715" on="1"/>
        <pt x="387" y="659" on="0"/>
        <pt x="316" y="595" on="0"/>
      </contour>
    </TTGlyph>
    <TTGlyph name="acircumflex" xMin="40" yMin="-10" xMax="532" yMax="725">
      <contour>
        <pt x="512" y="525" on="1"/>
        <pt x="532" y="525" on="1"/>
        <pt x="532" y="0" on="1"/>
        <pt x="510" y="0" on="1"/>
        <pt x="510" y="172" on="1"/>
        <pt x="519" y="175" on="1"/>
        <pt x="501" y="94" on="0"/>
        <pt x="377" y="-10" on="0"/>
        <pt x="294" y="-10" on="1"/>
        <pt x="184" y="-10" on="0"/>
        <pt x="40" y="141" on="0"/>
        <pt x="40" y="258" on="1"/>
        <pt x="40" y="376" on="0"/>
        <pt x="187" y="530" on="0"/>
        <pt x="290" y="530" on="1"/>
        <pt x="374" y="530" on="0"/>
        <pt x="502" y="430" on="0"/>
        <pt x="516" y="350" on="1"/>
        <pt x="510" y="353" on="1"/>
      </contour>
      <contour>
        <pt x="63" y="258" on="1"/>
        <pt x="63" y="152" on="0"/>
        <pt x="191" y="12" on="0"/>
        <pt x="294" y="12" on="1"/>
        <pt x="386" y="12" on="0"/>
        <pt x="511" y="150" on="0"/>
        <pt x="511" y="260" on="1"/>
        <pt x="511" y="368" on="0"/>
        <pt x="386" y="508" on="0"/>
        <pt x="292" y="508" on="1"/>
        <pt x="191" y="508" on="0"/>
        <pt x="63" y="367" on="0"/>
      </contour>
      <contour>
        <pt x="395" y="620" on="1"/>
        <pt x="279" y="712" on="1"/>
        <pt x="294" y="712" on="1"/>
        <pt x="177" y="620" on="1"/>
        <pt x="165" y="633" on="1"/>
        <pt x="272" y="725" on="1"/>
        <pt x="300" y="725" on="1"/>
        <pt x="407" y="633" on="1"/>
      </contour>
    </TTGlyph>
    <TTGlyph name="acircumflex.ss01" xMin="40" yMin="-10" xMax="464" yMax="700">
      <contour>
        <pt x="272" y="530" on="1"/>
        <pt x="362" y="530" on="0"/>
        <pt x="464" y="443" on="0"/>
        <pt x="464" y="364" on="1"/>
        <pt x="464" y="0" on="1"/>
        <pt x="442" y="0" on="1"/>
        <pt x="442" y="367" on="1"/>
        <pt x="442" y="431" on="0"/>
        <pt x="353" y="508" on="0"/>
        <pt x="271" y="508" on="1"/>
        <pt x="215" y="508" on="0"/>
        <pt x="116" y="459" on="0"/>
        <pt x="81" y="414" on="1"/>
        <pt x="65" y="430" on="1"/>
        <pt x="105" y="479" on="0"/>
        <pt x="210" y="530" on="0"/>
      </contour>
      <contour>
        <pt x="246" y="287" on="1"/>
        <pt x="450" y="287" on="1"/>
        <pt x="450" y="265" on="1"/>
        <pt x="240" y="265" on="1"/>
        <pt x="155" y="265" on="0"/>
        <pt x="62" y="205" on="0"/>
        <pt x="62" y="149" on="1"/>
        <pt x="62" y="88" on="0"/>
        <pt x="155" y="12" on="0"/>
        <pt x="219" y="12" on="1"/>
        <pt x="293" y="12" on="0"/>
        <pt x="414" y="92" on="0"/>
        <pt x="447" y="157" on="1"/>
        <pt x="460" y="146" on="1"/>
        <pt x="424" y="77" on="0"/>
        <pt x="298" y="-10" on="0"/>
        <pt x="218" y="-10" on="1"/>
        <pt x="142" y="-10" on="0"/>
        <pt x="40" y="77" on="0"/>
        <pt x="40" y="149" on="1"/>
        <pt x="40" y="215" on="0"/>
        <pt x="144" y="287" on="0"/>
      </contour>
      <contour>
        <pt x="374" y="595" on="1"/>
        <pt x="258" y="687" on="1"/>
        <pt x="273" y="687" on="1"/>
        <pt x="156" y="595" on="1"/>
        <pt x="144" y="608" on="1"/>
        <pt x="251" y="700" on="1"/>
        <pt x="279" y="700" on="1"/>
        <pt x="386" y="608" on="1"/>
      </contour>
    </TTGlyph>
    <TTGlyph name="acute" xMin="55" yMin="597" xMax="209" yMax="722">
      <contour>
        <pt x="209" y="701" on="1"/>
        <pt x="65" y="597" on="1"/>
        <pt x="55" y="612" on="1"/>
        <pt x="195" y="722" on="1"/>
      </contour>
    </TTGlyph>
    <TTGlyph name="acute.case" xMin="52" yMin="605" xMax="208" yMax="725">
      <contour>
        <pt x="208" y="704" on="1"/>
        <pt x="62" y="605" on="1"/>
        <pt x="52" y="620" on="1"/>
        <pt x="194" y="725" on="1"/>
      </contour>
    </TTGlyph>
    <TTGlyph name="acutecomb" xMin="55" yMin="597" xMax="209" yMax="722">
      <contour>
        <pt x="209" y="701" on="1"/>
        <pt x="65" y="597" on="1"/>
        <pt x="55" y="612" on="1"/>
        <pt x="195" y="722" on="1"/>
      </contour>
    </TTGlyph>
    <TTGlyph name="acutecomb.case" xMin="52" yMin="605" xMax="208" yMax="725">
      <contour>
        <pt x="208" y="704" on="1"/>
        <pt x="62" y="605" on="1"/>
        <pt x="52" y="620" on="1"/>
        <pt x="194" y="725" on="1"/>
      </contour>
    </TTGlyph>
    <TTGlyph name="acutecomb_dotaccentcomb" xMin="10" yMin="607" xMax="164" yMax="808">
      <contour>
        <pt x="164" y="711" on="1"/>
        <pt x="20" y="607" on="1"/>
        <pt x="10" y="622" on="1"/>
        <pt x="150" y="732" on="1"/>
      </contour>
      <contour>
        <pt x="94" y="779" on="1"/>
        <pt x="94" y="766" on="0"/>
        <pt x="80" y="750" on="0"/>
        <pt x="66" y="750" on="1"/>
        <pt x="52" y="750" on="0"/>
        <pt x="38" y="766" on="0"/>
        <pt x="38" y="779" on="1"/>
        <pt x="38" y="791" on="0"/>
        <pt x="52" y="808" on="0"/>
        <pt x="66" y="808" on="1"/>
        <pt x="79" y="808" on="0"/>
        <pt x="94" y="792" on="0"/>
      </contour>
    </TTGlyph>
    <TTGlyph name="adieresis" xMin="40" yMin="-10" xMax="532" yMax="659">
      <contour>
        <pt x="512" y="525" on="1"/>
        <pt x="532" y="525" on="1"/>
        <pt x="532" y="0" on="1"/>
        <pt x="510" y="0" on="1"/>
        <pt x="510" y="172" on="1"/>
        <pt x="519" y="175" on="1"/>
        <pt x="501" y="94" on="0"/>
        <pt x="377" y="-10" on="0"/>
        <pt x="294" y="-10" on="1"/>
        <pt x="184" y="-10" on="0"/>
        <pt x="40" y="141" on="0"/>
        <pt x="40" y="258" on="1"/>
        <pt x="40" y="376" on="0"/>
        <pt x="187" y="530" on="0"/>
        <pt x="290" y="530" on="1"/>
        <pt x="374" y="530" on="0"/>
        <pt x="502" y="430" on="0"/>
        <pt x="516" y="350" on="1"/>
        <pt x="510" y="353" on="1"/>
      </contour>
      <contour>
        <pt x="63" y="258" on="1"/>
        <pt x="63" y="152" on="0"/>
        <pt x="191" y="12" on="0"/>
        <pt x="294" y="12" on="1"/>
        <pt x="386" y="12" on="0"/>
        <pt x="511" y="150" on="0"/>
        <pt x="511" y="260" on="1"/>
        <pt x="511" y="368" on="0"/>
        <pt x="386" y="508" on="0"/>
        <pt x="292" y="508" on="1"/>
        <pt x="191" y="508" on="0"/>
        <pt x="63" y="367" on="0"/>
      </contour>
      <contour>
        <pt x="241" y="632" on="1"/>
        <pt x="241" y="620" on="0"/>
        <pt x="228" y="605" on="0"/>
        <pt x="214" y="605" on="1"/>
        <pt x="202" y="605" on="0"/>
        <pt x="187" y="620" on="0"/>
        <pt x="187" y="632" on="1"/>
        <pt x="187" y="643" on="0"/>
        <pt x="201" y="659" on="0"/>
        <pt x="214" y="659" on="1"/>
        <pt x="228" y="659" on="0"/>
        <pt x="241" y="644" on="0"/>
      </contour>
      <contour>
        <pt x="391" y="632" on="1"/>
        <pt x="391" y="620" on="0"/>
        <pt x="378" y="605" on="0"/>
        <pt x="364" y="605" on="1"/>
        <pt x="352" y="605" on="0"/>
        <pt x="337" y="620" on="0"/>
        <pt x="337" y="632" on="1"/>
        <pt x="337" y="643" on="0"/>
        <pt x="351" y="659" on="0"/>
        <pt x="364" y="659" on="1"/>
        <pt x="378" y="659" on="0"/>
        <pt x="391" y="644" on="0"/>
      </contour>
    </TTGlyph>
    <TTGlyph name="adieresis.ss01" xMin="40" yMin="-10" xMax="464" yMax="682">
      <contour>
        <pt x="272" y="530" on="1"/>
        <pt x="362" y="530" on="0"/>
        <pt x="464" y="443" on="0"/>
        <pt x="464" y="364" on="1"/>
        <pt x="464" y="0" on="1"/>
        <pt x="442" y="0" on="1"/>
        <pt x="442" y="367" on="1"/>
        <pt x="442" y="431" on="0"/>
        <pt x="353" y="508" on="0"/>
        <pt x="271" y="508" on="1"/>
        <pt x="215" y="508" on="0"/>
        <pt x="116" y="459" on="0"/>
        <pt x="81" y="414" on="1"/>
        <pt x="65" y="430" on="1"/>
        <pt x="105" y="479" on="0"/>
        <pt x="210" y="530" on="0"/>
      </contour>
      <contour>
        <pt x="246" y="287" on="1"/>
        <pt x="450" y="287" on="1"/>
        <pt x="450" y="265" on="1"/>
        <pt x="240" y="265" on="1"/>
        <pt x="155" y="265" on="0"/>
        <pt x="62" y="205" on="0"/>
        <pt x="62" y="149" on="1"/>
        <pt x="62" y="88" on="0"/>
        <pt x="155" y="12" on="0"/>
        <pt x="219" y="12" on="1"/>
        <pt x="293" y="12" on="0"/>
        <pt x="414" y="92" on="0"/>
        <pt x="447" y="157" on="1"/>
        <pt x="460" y="146" on="1"/>
        <pt x="424" y="77" on="0"/>
        <pt x="298" y="-10" on="0"/>
        <pt x="218" y="-10" on="1"/>
        <pt x="142" y="-10" on="0"/>
        <pt x="40" y="77" on="0"/>
        <pt x="40" y="149" on="1"/>
        <pt x="40" y="215" on="0"/>
        <pt x="144" y="287" on="0"/>
      </contour>
      <contour>
        <pt x="204" y="655" on="1"/>
        <pt x="204" y="643" on="0"/>
        <pt x="191" y="628" on="0"/>
        <pt x="177" y="628" on="1"/>
        <pt x="165" y="628" on="0"/>
        <pt x="150" y="643" on="0"/>
        <pt x="150" y="655" on="1"/>
        <pt x="150" y="666" on="0"/>
        <pt x="164" y="682" on="0"/>
        <pt x="177" y="682" on="1"/>
        <pt x="191" y="682" on="0"/>
        <pt x="204" y="667" on="0"/>
      </contour>
      <contour>
        <pt x="354" y="655" on="1"/>
        <pt x="354" y="643" on="0"/>
        <pt x="341" y="628" on="0"/>
        <pt x="327" y="628" on="1"/>
        <pt x="315" y="628" on="0"/>
        <pt x="300" y="643" on="0"/>
        <pt x="300" y="655" on="1"/>
        <pt x="300" y="666" on="0"/>
        <pt x="314" y="682" on="0"/>
        <pt x="327" y="682" on="1"/>
        <pt x="341" y="682" on="0"/>
        <pt x="354" y="667" on="0"/>
      </contour>
    </TTGlyph>
    <TTGlyph name="ae" xMin="40" yMin="-10" xMax="912" yMax="530">
      <contour>
        <pt x="272" y="530" on="1"/>
        <pt x="362" y="530" on="0"/>
        <pt x="464" y="443" on="0"/>
        <pt x="464" y="364" on="1"/>
        <pt x="464" y="276" on="1"/>
        <pt x="442" y="276" on="1"/>
        <pt x="442" y="367" on="1"/>
        <pt x="442" y="431" on="0"/>
        <pt x="353" y="508" on="0"/>
        <pt x="271" y="508" on="1"/>
        <pt x="214" y="508" on="0"/>
        <pt x="115" y="458" on="0"/>
        <pt x="79" y="412" on="1"/>
        <pt x="63" y="428" on="1"/>
        <pt x="104" y="478" on="0"/>
        <pt x="209" y="530" on="0"/>
      </contour>
      <contour>
        <pt x="464" y="263" on="1"/>
        <pt x="465" y="153" on="0"/>
        <pt x="596" y="12" on="0"/>
        <pt x="699" y="12" on="1"/>
        <pt x="751" y="12" on="0"/>
        <pt x="839" y="50" on="0"/>
        <pt x="874" y="83" on="1"/>
        <pt x="886" y="65" on="1"/>
        <pt x="849" y="31" on="0"/>
        <pt x="756" y="-10" on="0"/>
        <pt x="699" y="-10" on="1"/>
        <pt x="585" y="-10" on="0"/>
        <pt x="442" y="144" on="0"/>
        <pt x="442" y="263" on="1"/>
        <pt x="442" y="373" on="0"/>
        <pt x="579" y="529" on="0"/>
        <pt x="687" y="529" on="1"/>
        <pt x="786" y="529" on="0"/>
        <pt x="912" y="401" on="0"/>
        <pt x="912" y="291" on="1"/>
        <pt x="910" y="265" on="1"/>
        <pt x="240" y="265" on="1"/>
        <pt x="155" y="265" on="0"/>
        <pt x="62" y="205" on="0"/>
        <pt x="62" y="149" on="1"/>
        <pt x="62" y="88" on="0"/>
        <pt x="155" y="12" on="0"/>
        <pt x="219" y="12" on="1"/>
        <pt x="297" y="12" on="0"/>
        <pt x="425" y="96" on="0"/>
        <pt x="459" y="165" on="1"/>
        <pt x="472" y="146" on="1"/>
        <pt x="436" y="76" on="0"/>
        <pt x="302" y="-10" on="0"/>
        <pt x="218" y="-10" on="1"/>
        <pt x="142" y="-10" on="0"/>
        <pt x="40" y="77" on="0"/>
        <pt x="40" y="149" on="1"/>
        <pt x="40" y="215" on="0"/>
        <pt x="144" y="287" on="0"/>
        <pt x="246" y="287" on="1"/>
        <pt x="900" y="287" on="1"/>
        <pt x="890" y="272" on="1"/>
        <pt x="890" y="295" on="1"/>
        <pt x="890" y="390" on="0"/>
        <pt x="773" y="507" on="0"/>
        <pt x="690" y="507" on="1"/>
        <pt x="588" y="507" on="0"/>
        <pt x="465" y="370" on="0"/>
      </contour>
    </TTGlyph>
</ttFont>
